<?xml version="1.0" standalone="no"?>
<!DOCTYPE svg PUBLIC "-//W3C//DTD SVG 20010904//EN"
 "http://www.w3.org/TR/2001/REC-SVG-20010904/DTD/svg10.dtd">
<svg version="1.0" xmlns="http://www.w3.org/2000/svg"
 width="2324.000000pt" height="1340.000000pt" viewBox="0 0 2324.000000 1340.000000"
 preserveAspectRatio="xMidYMid meet">

<g transform="translate(0.000000,1340.000000) scale(0.100000,-0.100000)"
fill="#000000" stroke="none">
<path d="M0 6700 l0 -6700 11593 0 11592 0 28 29 27 29 0 1200 0 1199 -21 19
-22 19 7 -28 c8 -35 -13 -87 -35 -87 -9 0 -19 -7 -23 -15 -3 -8 -14 -15 -25
-15 -11 0 -25 -8 -30 -18 -9 -15 -10 -15 -11 4 0 12 7 27 15 34 22 18 22 228
0 236 -21 9 -21 114 0 114 12 0 15 19 15 115 l0 115 -30 0 -30 0 0 290 c0 251
-2 290 -15 290 -21 0 -21 102 0 120 10 9 15 9 15 1 0 -6 7 -11 15 -11 12 0 15
-19 15 -115 0 -96 3 -115 15 -115 12 0 15 -13 15 -55 0 -42 -3 -55 -15 -55
-12 0 -15 -13 -15 -60 0 -47 3 -60 15 -60 12 0 15 13 15 60 0 53 2 60 20 60
18 0 20 7 20 55 0 48 -2 55 -20 55 -19 0 -20 7 -20 110 l0 110 -35 34 c-40 39
-44 51 -14 43 15 -4 23 0 26 13 3 12 17 22 38 26 19 3 36 12 39 20 3 8 21 14
43 15 l38 1 -35 8 c-20 5 -39 5 -45 -1 -12 -12 -45 -12 -45 0 0 14 27 21 76
21 l44 0 0 4795 0 4795 -11620 0 -11620 0 0 -6700z m533 5929 c12 -7 42 -28
66 -47 40 -33 48 -35 106 -33 78 3 131 -17 146 -56 12 -30 5 -145 -10 -186 -7
-19 -4 -39 15 -86 68 -168 34 -221 -153 -238 -53 -5 -76 -12 -103 -33 -92 -72
-165 -88 -205 -44 -29 31 -65 106 -72 150 -4 23 -22 46 -65 84 -66 58 -98 103
-98 137 0 30 53 89 118 130 44 29 57 45 87 107 52 109 106 147 168 115z
m21482 -154 c79 -32 145 -128 145 -214 0 -72 -21 -122 -71 -173 -41 -40 -93
-69 -103 -57 -2 2 -6 30 -9 61 -5 55 -4 58 19 64 13 3 36 20 50 37 27 32 27
29 8 155 -6 42 -8 44 -33 37 -33 -9 -168 -9 -202 0 -25 6 -27 4 -33 -34 -3
-23 -9 -58 -12 -80 -8 -53 15 -96 61 -111 38 -13 38 -12 29 -34 -9 -24 -45
-19 -76 11 -37 35 -41 27 -12 -19 19 -30 31 -38 54 -38 25 0 30 -4 30 -23 0
-35 -9 -38 -50 -17 -49 25 -104 89 -118 139 -60 199 130 374 323 296z m874 7
c60 -32 71 -68 71 -222 0 -218 -22 -240 -240 -240 -218 0 -240 22 -240 240 0
154 11 190 71 222 28 15 57 18 169 18 112 0 141 -3 169 -18z m-1634 -38 c17
-9 42 -13 58 -10 25 5 27 4 16 -16 -10 -19 -9 -20 11 -15 22 6 22 5 -4 -22
-18 -19 -26 -38 -26 -62 0 -47 -53 -151 -93 -185 -54 -45 -114 -67 -187 -67
-71 1 -170 34 -120 40 14 2 44 11 68 19 l43 16 -32 17 c-37 18 -61 51 -43 58
7 2 -1 16 -17 33 -32 32 -40 74 -12 63 16 -6 16 -5 0 17 -16 23 -23 80 -11 92
3 3 31 -12 63 -34 65 -45 141 -63 141 -34 0 32 31 78 63 91 41 18 46 18 82 -1z
m-14095 -79 c0 -20 -5 -25 -25 -25 -20 0 -25 5 -25 25 0 20 5 25 25 25 20 0
25 -5 25 -25z m250 0 c0 -20 -5 -25 -25 -25 -20 0 -25 5 -25 25 0 20 5 25 25
25 20 0 25 -5 25 -25z m819 14 c30 -11 51 -35 51 -58 0 -17 -57 -13 -64 5 -3
9 -15 14 -28 12 -36 -5 -32 -27 9 -44 21 -9 48 -25 61 -37 40 -37 23 -90 -33
-106 -64 -17 -125 14 -125 63 0 23 43 20 58 -5 15 -24 55 -22 60 2 2 12 -11
22 -43 35 -81 30 -97 96 -32 128 38 19 45 19 86 5z m576 -14 c0 -23 -34 -33
-45 -14 -13 20 1 40 24 37 13 -2 21 -10 21 -23z m255 0 c0 -20 -5 -25 -25 -25
-20 0 -25 5 -25 25 0 20 5 25 25 25 20 0 25 -5 25 -25z m1723 13 c7 -21 -4
-38 -23 -38 -23 0 -34 16 -26 35 7 18 43 20 49 3z m602 -13 c0 -22 -31 -33
-47 -17 -17 17 -1 44 24 40 15 -2 23 -10 23 -23z m3198 13 c7 -21 -4 -38 -23
-38 -23 0 -34 16 -26 35 7 18 43 20 49 3z m-7693 -113 l0 -115 -25 0 -25 0 0
115 0 115 25 0 25 0 0 -115z m3190 95 c0 -18 -7 -20 -55 -20 -52 0 -55 -1 -55
-25 0 -23 4 -25 45 -25 38 0 45 -3 45 -19 0 -16 -8 -20 -42 -23 -38 -3 -43 -6
-43 -28 0 -23 4 -25 53 -28 41 -2 52 -7 52 -20 0 -9 11 2 25 25 l25 42 -20 33
c-26 44 -25 58 5 58 18 0 29 -8 37 -26 l12 -25 13 25 c9 17 22 26 38 26 30 0
31 -12 4 -56 l-21 -34 27 -45 26 -45 -30 0 c-21 0 -34 7 -42 22 l-12 22 -15
-22 c-13 -20 -22 -22 -123 -22 l-109 0 0 115 0 115 80 0 c73 0 80 -2 80 -20z
m2150 0 c12 -12 20 -33 20 -55 0 -48 -29 -75 -80 -75 l-40 0 0 -40 c0 -38 -2
-40 -30 -40 l-30 0 0 115 0 115 70 0 c57 0 74 -4 90 -20z m1928 3 c-2 -14 -15
-19 -56 -21 -48 -3 -52 -5 -52 -28 0 -22 4 -24 45 -24 38 0 45 -3 45 -20 0
-17 -7 -20 -45 -20 -43 0 -45 -1 -45 -30 0 -30 1 -30 55 -30 48 0 55 -2 55
-20 0 -18 -7 -20 -85 -20 l-85 0 0 115 0 115 86 0 c76 0 85 -2 82 -17z m-1031
-12 c3 -11 11 -22 19 -25 19 -7 18 -35 -1 -42 -10 -4 -15 -20 -15 -50 0 -32 4
-44 15 -44 8 0 15 -8 15 -19 0 -25 -39 -34 -67 -15 -19 12 -23 23 -23 69 0 30
-4 55 -10 55 -5 0 -10 11 -10 25 0 14 5 25 10 25 6 0 10 9 10 20 0 28 50 28
57 1z m-6061 -46 c9 -12 14 -45 14 -87 0 -66 -1 -68 -25 -68 -23 0 -25 3 -25
49 0 62 -7 81 -31 81 -17 0 -19 -8 -19 -65 l0 -65 -30 0 -30 0 0 83 c0 46 3
86 6 90 3 3 33 4 66 3 46 -1 64 -6 74 -21z m94 -65 c0 -89 0 -90 -25 -90 -25
0 -25 1 -25 90 0 89 0 90 25 90 25 0 25 -1 25 -90z m154 69 c32 -25 35 -59 5
-59 -12 0 -27 7 -34 17 -20 27 -45 9 -45 -32 0 -38 22 -57 43 -36 13 13 57 15
57 2 0 -25 -38 -53 -72 -53 -46 0 -57 7 -74 48 -18 43 -8 89 24 114 32 26 63
25 96 -1z m96 -69 c0 -89 0 -90 -25 -90 -25 0 -25 1 -25 90 0 89 0 90 25 90
25 0 25 -1 25 -90z m149 75 c33 -17 41 -33 41 -84 0 -90 -122 -117 -156 -35
-19 45 -10 88 23 114 30 24 54 25 92 5z m865 -6 c19 -15 26 -30 26 -55 l0 -34
-50 0 c-27 0 -50 -4 -50 -9 0 -15 38 -23 58 -12 13 7 22 7 30 -1 19 -19 14
-28 -23 -44 -31 -12 -39 -12 -70 0 -61 26 -72 114 -18 156 33 26 63 25 97 -1z
m96 10 c0 -8 4 -8 13 -2 6 6 31 11 54 12 43 1 43 1 54 -44 13 -51 19 -50 34 3
10 36 38 53 56 35 5 -5 -3 -44 -18 -91 -25 -76 -29 -82 -54 -82 -25 0 -30 6
-55 83 -19 53 -30 74 -32 60 -2 -13 -12 -23 -25 -25 -19 -3 -22 -10 -25 -60
-3 -54 -5 -58 -27 -58 -25 0 -25 2 -25 83 0 46 3 87 7 90 11 11 43 8 43 -4z
m288 -81 l3 -88 -26 0 c-25 0 -25 0 -25 91 0 88 1 90 23 87 21 -3 22 -8 25
-90z m158 67 c14 -14 24 -31 21 -38 -6 -19 -40 -21 -53 -2 -20 27 -44 11 -44
-30 0 -24 5 -38 17 -42 9 -4 19 -1 21 5 4 14 62 16 62 2 0 -5 -9 -19 -20 -30
-49 -49 -140 -10 -140 60 0 86 81 130 136 75z m94 -65 c0 -89 0 -90 -25 -90
-25 0 -25 1 -25 90 0 89 0 90 25 90 25 0 25 -1 25 -90z m149 75 c33 -17 41
-33 41 -84 0 -63 -57 -101 -114 -77 -61 25 -71 115 -19 156 31 24 54 25 92 5z
m179 -1 c25 -17 30 -54 7 -54 -9 0 -26 7 -39 16 -16 10 -26 12 -31 5 -3 -6 6
-15 22 -21 48 -17 58 -26 61 -54 4 -33 -10 -52 -45 -59 -46 -9 -103 23 -103
57 0 10 49 6 55 -4 8 -12 45 -13 45 -1 0 5 -12 12 -27 16 -86 21 -80 115 7
115 14 0 36 -7 48 -16z m1007 -5 c22 -22 30 -83 16 -118 -14 -33 -49 -52 -80
-44 -18 5 -21 1 -21 -31 0 -32 -3 -36 -25 -36 l-25 0 0 124 0 125 60 -3 c38
-1 66 -7 75 -17z m169 0 c19 -15 26 -30 26 -55 l0 -34 -50 0 c-27 0 -50 -4
-50 -9 0 -15 38 -23 58 -12 13 7 22 7 30 -1 19 -19 14 -28 -23 -44 -93 -39
-168 75 -96 147 35 34 68 37 105 8z m150 3 c-1 -6 -2 -18 -2 -26 -1 -8 -12
-16 -24 -18 -20 -3 -23 -10 -26 -60 -3 -54 -5 -58 -27 -58 -25 0 -25 2 -25 83
0 46 3 86 6 90 12 12 99 2 98 -11z m66 -72 c0 -89 0 -90 -25 -90 -25 0 -25 1
-25 83 0 89 3 97 32 97 16 0 18 -9 18 -90z m138 84 c25 -7 52 -51 52 -84 0
-18 -6 -20 -56 -20 -49 0 -55 -2 -44 -15 14 -17 41 -20 56 -5 8 8 15 6 24 -5
20 -24 -10 -49 -56 -48 -53 2 -84 35 -84 90 0 69 43 104 108 87z m208 -19 c9
-12 14 -45 14 -88 l0 -68 -27 3 c-27 3 -28 6 -31 66 -3 53 -6 63 -20 60 -13
-3 -18 -16 -20 -66 -3 -61 -3 -62 -32 -62 l-30 0 0 83 c0 46 3 86 6 90 3 3 33
4 66 3 46 -1 64 -6 74 -21z m162 9 c29 -20 30 -64 2 -64 -11 0 -23 7 -26 15
-4 8 -14 15 -24 15 -31 0 -42 -58 -15 -80 13 -10 19 -10 33 4 37 33 72 15 46
-23 -32 -45 -98 -46 -130 -3 -16 21 -18 86 -3 113 20 38 80 49 117 23z m100
-76 l3 -88 -31 0 -30 0 0 83 c0 46 3 87 7 91 4 4 16 6 28 4 18 -3 20 -11 23
-90z m152 72 c15 -15 20 -33 20 -74 0 -30 3 -61 6 -69 4 -12 -6 -16 -48 -19
-71 -6 -102 8 -106 49 -4 37 26 63 71 63 16 0 26 4 22 10 -3 5 -25 7 -50 3
-48 -6 -57 3 -27 29 37 33 84 36 112 8z m840 -7 l0 -25 18 21 c9 12 33 24 53
27 29 5 41 1 65 -19 24 -21 29 -33 29 -71 0 -58 -27 -87 -80 -89 -48 -1 -85
37 -85 89 0 30 -3 34 -25 34 -24 0 -25 -3 -25 -61 0 -60 0 -60 -27 -57 -27 3
-28 5 -31 77 -2 41 -1 80 2 86 3 8 24 13 55 13 48 0 51 -2 51 -25z m234 -15
c5 -21 13 -38 17 -38 4 0 11 17 16 38 7 30 14 38 36 40 36 4 35 -5 -8 -124
-41 -114 -50 -126 -84 -122 -33 4 -42 37 -12 45 27 7 26 26 -4 107 -33 87 -32
98 3 94 22 -2 29 -10 36 -40z m214 36 c25 -7 52 -51 52 -84 0 -18 -6 -20 -56
-20 -49 0 -55 -2 -44 -15 14 -17 46 -20 55 -5 9 15 22 12 29 -7 18 -46 -76
-64 -120 -22 -34 32 -34 100 1 134 25 26 42 29 83 19z m190 -10 c29 -20 30
-64 2 -64 -11 0 -23 7 -26 15 -4 8 -14 15 -24 15 -31 0 -42 -58 -15 -80 13
-10 19 -10 33 4 37 33 72 15 46 -23 -32 -45 -98 -46 -130 -3 -16 21 -18 86 -3
113 20 38 80 49 117 23z m279 -8 c23 -20 28 -32 28 -70 0 -58 -27 -87 -80 -89
-29 -1 -43 5 -61 27 -40 45 -29 127 19 146 38 15 65 11 94 -14z m174 6 c14
-12 20 -25 16 -35 -8 -21 -35 -22 -58 -1 -10 9 -19 11 -23 5 -4 -5 14 -19 39
-30 39 -17 45 -24 45 -51 0 -26 -6 -33 -33 -45 -49 -20 -117 4 -117 42 0 16
41 18 57 2 6 -6 19 -9 29 -7 14 4 7 10 -27 25 -57 26 -68 55 -34 89 29 29 74
31 106 6z m849 -108 l0 -124 -25 0 c-22 0 -25 4 -25 36 0 32 -3 36 -21 31 -72
-19 -122 101 -66 157 19 19 34 23 80 23 l57 0 0 -123z m82 59 c3 -60 5 -68 23
-68 18 0 20 8 23 68 3 64 4 67 27 67 25 0 25 -1 25 -90 l0 -91 -32 0 c-18 0
-45 0 -61 0 -48 -2 -57 15 -57 102 0 77 1 79 25 79 23 0 24 -3 27 -67z m183
-23 l0 -85 -27 -3 -28 -3 0 91 0 91 28 -3 27 -3 0 -85z m164 69 c16 -15 21
-32 21 -68 0 -62 -24 -94 -68 -94 -30 0 -32 -3 -32 -34 0 -30 -3 -33 -30 -33
l-30 0 0 118 c0 65 2 121 5 124 3 3 30 6 59 6 40 0 59 -5 75 -19z m173 1 c30
-23 39 -60 26 -107 -12 -45 -60 -68 -107 -52 -39 14 -51 35 -51 89 0 77 74
116 132 70z m-9559 -2987 c23 -22 22 -78 -3 -103 -24 -24 -91 -27 -114 -5 -39
40 -31 99 17 120 36 16 73 11 100 -12z m-3093 -288 l0 -284 148 -3 147 -3 3
-57 3 -58 -226 0 -225 0 0 345 0 345 75 0 75 0 0 -285z m2553 168 c21 -13 40
-30 44 -38 4 -11 22 -15 67 -15 139 -1 207 -73 222 -235 l7 -75 -162 0 c-182
0 -189 -4 -127 -66 44 -44 104 -47 160 -9 20 14 40 25 44 25 4 0 22 -18 39
-39 l33 -40 -40 -34 c-90 -76 -237 -77 -336 -2 -42 32 -84 114 -84 165 0 42
-6 50 -48 72 l-32 17 0 -149 0 -150 -70 0 -70 0 0 153 c0 158 -9 224 -32 238
-22 15 -75 10 -97 -8 -20 -17 -21 -29 -23 -198 l-3 -180 -72 -3 -73 -3 0 178
c0 208 -5 223 -71 223 -26 0 -46 -7 -59 -20 -19 -19 -20 -33 -20 -200 l0 -180
-75 0 -75 0 2 258 3 257 68 3 c65 3 67 2 67 -22 l0 -25 45 25 c74 42 194 29
223 -22 8 -15 13 -14 43 8 19 14 45 29 57 33 39 12 119 7 149 -9 27 -14 29
-13 68 30 67 75 149 88 228 37z m1007 -84 c44 -25 85 -78 100 -130 14 -47 12
-164 -2 -213 -17 -55 -91 -131 -143 -145 -60 -16 -145 -13 -190 8 -94 43 -139
123 -139 248 0 71 4 89 30 138 18 36 45 69 70 87 70 50 191 54 274 7z m480
-39 l0 -68 -57 -4 c-89 -8 -93 -16 -93 -214 l0 -164 -70 0 -70 0 0 260 0 260
66 0 c58 0 67 -3 71 -20 4 -16 8 -18 19 -9 23 19 84 36 110 31 23 -4 24 -8 24
-72z m358 58 c83 -25 131 -101 139 -220 l6 -78 -162 0 c-88 0 -161 -2 -161 -4
0 -23 26 -60 52 -76 45 -27 97 -26 142 5 20 14 41 25 46 25 5 0 23 -17 40 -37
l31 -38 -40 -36 c-110 -99 -307 -71 -385 54 -24 39 -30 62 -34 126 -12 216
131 338 326 279z m548 -19 c43 -26 74 -73 74 -111 0 -28 0 -28 -69 -28 -66 0
-71 2 -83 27 -17 35 -58 49 -95 31 -31 -15 -41 -49 -21 -66 8 -6 49 -20 93
-32 134 -36 175 -74 175 -163 0 -88 -72 -148 -188 -155 -34 -3 -82 1 -106 8
-55 15 -114 63 -132 106 -25 60 -21 64 54 64 64 -1 68 -2 87 -33 17 -27 27
-33 62 -35 50 -4 83 11 83 38 0 26 -32 45 -110 65 -81 21 -111 37 -144 75 -53
63 -27 167 54 214 67 39 199 37 266 -5z m-4279 20 c31 -11 78 -53 96 -84 7
-12 14 -95 17 -205 4 -102 10 -193 14 -202 7 -16 1 -18 -68 -18 -58 0 -78 4
-82 15 -5 12 -12 11 -45 -5 -80 -41 -197 -14 -240 56 -30 49 -24 142 12 180
36 40 102 65 185 71 67 5 74 8 74 27 0 35 -28 66 -60 66 -41 0 -60 -10 -71
-36 -8 -22 -14 -24 -79 -24 -64 0 -70 2 -70 20 0 48 49 108 110 134 41 18 166
21 207 5z m511 -5 c64 -26 112 -89 112 -146 0 -5 -33 -8 -74 -8 -70 0 -74 1
-80 24 -13 50 -116 56 -129 7 -7 -28 14 -48 63 -61 22 -5 57 -14 78 -20 145
-38 188 -174 82 -263 -39 -33 -88 -47 -166 -47 -109 0 -214 74 -214 151 l0 29
70 0 c63 0 70 -2 70 -19 0 -29 38 -51 86 -51 47 0 67 17 62 52 -2 19 -17 27
-91 50 -108 33 -150 58 -171 102 -22 46 -20 74 7 126 32 63 87 90 184 90 44 0
89 -6 111 -16z m1930 -272 c1 -174 -2 -299 -8 -322 -21 -80 -104 -128 -196
-114 l-44 6 0 59 0 59 38 0 c21 0 43 5 50 12 9 9 12 88 12 293 0 155 3 285 7
289 4 4 37 6 73 4 l65 -3 3 -283z m16552 -112 c0 -5 -4 -10 -10 -10 -5 0 -10
5 -10 10 0 6 5 10 10 10 6 0 10 -4 10 -10z m-30 -30 c0 -5 -5 -10 -11 -10 -5
0 -7 5 -4 10 3 6 8 10 11 10 2 0 4 -4 4 -10z m-35 -50 c-3 -5 -11 -10 -16 -10
-6 0 -7 5 -4 10 3 6 11 10 16 10 6 0 7 -4 4 -10z m-170 -159 c-3 -6 -11 -11
-17 -11 -6 0 -6 6 2 15 14 17 26 13 15 -4z m-12853 -48 c41 -37 10 -113 -47
-113 -56 0 -87 70 -48 112 20 22 70 23 95 1z m7813 -188 c2150 -113 4043 -212
4205 -220 162 -9 301 -18 307 -20 9 -3 11 -21 8 -57 -13 -157 -46 -848 -42
-880 3 -20 2 -38 -2 -40 -4 -2 -24 -320 -44 -708 -21 -388 -53 -995 -72 -1350
-19 -355 -52 -1000 -74 -1435 -22 -434 -45 -816 -50 -848 -15 -91 -74 -161
-161 -190 -42 -14 -334 0 -4035 194 -2194 114 -4019 212 -4053 218 -38 6 -79
20 -102 35 -43 28 -88 97 -101 154 -5 22 0 178 11 392 10 195 21 411 25 480 3
69 19 375 35 680 39 722 200 3768 200 3786 0 8 8 14 17 14 10 0 1777 -92 3928
-205z m4975 171 c0 -3 -4 -8 -10 -11 -5 -3 -10 -1 -10 4 0 6 5 11 10 11 6 0
10 -2 10 -4z m-16966 -86 c24 -24 25 -74 1 -100 -24 -26 -95 -28 -117 -2 -71
80 40 177 116 102z m1810 0 c24 -24 25 -74 1 -100 -24 -26 -95 -28 -117 -2
-71 80 40 177 116 102z m13938 -10 c26 -27 30 -36 25 -68 -17 -104 -167 -95
-167 10 0 83 83 116 142 58z m381 -10 c30 -24 40 -60 27 -96 -14 -36 -38 -53
-77 -54 -45 0 -62 9 -79 42 -43 82 56 165 129 108z m-710 -10 c5 -4 7 -16 5
-26 -2 -15 -14 -20 -58 -22 -30 -2 -83 -1 -118 3 -67 7 -85 22 -61 51 10 13
29 14 118 8 58 -3 110 -10 114 -14z m-14965 -162 c83 -61 112 -122 112 -230
l0 -58 -159 0 -160 0 11 -31 c24 -69 127 -89 197 -39 l33 22 34 -33 c19 -18
34 -39 34 -45 0 -7 -15 -24 -33 -38 -100 -76 -253 -75 -338 1 -66 59 -84 104
-84 204 0 75 4 92 30 144 37 72 90 113 161 123 56 9 138 -1 162 -20z m573 -14
c41 -40 49 -84 49 -293 l0 -191 -70 0 -70 0 0 158 c0 157 -8 219 -32 234 -25
15 -84 9 -106 -12 -21 -20 -22 -28 -22 -200 l0 -180 -75 0 -75 0 2 258 3 257
68 3 c60 3 67 1 67 -16 0 -30 10 -32 41 -10 58 43 171 39 220 -8z m470 18 c36
-15 86 -75 98 -119 18 -63 18 -63 -59 -63 -52 0 -70 3 -70 14 0 7 -9 25 -21
40 -28 36 -86 36 -119 1 -32 -35 -40 -163 -13 -215 32 -61 109 -66 141 -10 16
29 20 30 85 30 l69 0 -7 -32 c-27 -123 -156 -187 -299 -147 -55 15 -119 83
-137 144 -18 63 -16 189 3 235 20 47 64 97 101 116 59 31 160 34 228 6z m775
-12 c61 -38 68 -64 75 -265 4 -99 10 -190 14 -202 7 -22 6 -23 -68 -23 -57 0
-76 4 -81 15 -5 13 -11 12 -46 -6 -52 -27 -146 -23 -188 8 -53 39 -74 82 -70
141 3 31 13 64 24 80 32 43 102 73 188 79 73 6 76 7 76 31 0 14 -7 34 -17 44
-31 35 -113 15 -113 -28 0 -11 -17 -14 -75 -14 -81 0 -85 3 -64 57 23 61 82
102 164 112 66 9 138 -3 181 -29z m497 6 c45 -22 76 -63 84 -111 l6 -35 -74 0
c-73 0 -75 1 -85 29 -14 34 -53 47 -92 29 -35 -17 -40 -52 -10 -71 13 -8 48
-20 78 -27 117 -27 170 -72 178 -149 6 -63 -19 -106 -80 -141 -37 -22 -56 -25
-133 -25 -76 0 -96 4 -131 23 -45 26 -94 93 -94 129 0 22 4 23 70 23 56 0 70
-3 70 -15 0 -30 38 -55 83 -55 82 0 100 65 25 88 -18 6 -59 18 -90 27 -163 45
-193 208 -53 283 62 33 177 32 248 -2z m715 12 c83 -25 131 -101 139 -220 l6
-78 -162 0 c-88 0 -161 -2 -161 -4 0 -23 26 -60 52 -76 45 -27 97 -26 142 5
20 14 41 25 46 25 5 0 23 -17 40 -37 l31 -38 -40 -36 c-110 -99 -307 -71 -385
54 -24 39 -30 62 -34 126 -12 216 131 338 326 279z m604 -25 c42 -40 48 -78
48 -290 l0 -193 -70 0 -70 0 0 158 c0 157 -8 219 -32 234 -25 15 -84 9 -106
-12 -21 -20 -22 -28 -22 -200 l0 -180 -75 0 -75 0 2 258 3 257 68 3 c62 3 67
1 67 -18 0 -24 12 -25 46 -3 60 39 168 32 216 -14z m-6324 22 c82 -35 122
-101 129 -217 l6 -78 -162 0 -162 0 7 -22 c9 -32 23 -47 57 -65 40 -20 111
-12 141 16 31 29 40 27 75 -18 l31 -39 -40 -35 c-52 -44 -112 -61 -193 -55
-71 6 -111 23 -156 69 -48 48 -64 87 -69 170 -7 128 42 229 132 270 51 23 153
25 204 4z m357 -62 l41 -72 40 72 39 72 69 3 c38 2 73 -1 77 -5 4 -4 -24 -63
-62 -130 l-71 -122 57 -98 c32 -54 66 -113 77 -130 l20 -33 -81 0 -80 0 -42
75 -43 75 -29 -53 c-59 -105 -49 -97 -132 -97 -41 0 -75 3 -75 7 0 4 32 62 70
129 39 66 70 123 70 126 0 3 -31 59 -69 124 -38 66 -67 123 -64 127 3 4 37 7
76 5 l71 -3 41 -72z m465 57 c0 -25 8 -25 33 -2 15 13 37 17 96 17 69 0 82 -3
113 -27 20 -15 47 -49 59 -75 21 -42 24 -62 24 -158 0 -121 -14 -163 -72 -217
-54 -51 -139 -63 -206 -29 l-37 19 0 -115 0 -114 -72 3 -73 3 -3 345 c-1 190
0 351 3 357 3 9 26 13 70 13 58 0 65 -2 65 -20z m736 1 c73 -33 109 -101 121
-223 l6 -68 -162 0 c-182 0 -189 -4 -127 -66 44 -44 104 -47 160 -9 20 14 40
25 44 25 4 0 22 -18 39 -39 l33 -40 -40 -34 c-122 -104 -330 -64 -396 77 -27
58 -33 169 -12 237 14 49 69 114 117 139 49 26 161 27 217 1z m324 -1 c0 -11
3 -20 6 -20 3 0 17 9 31 20 18 14 41 20 74 20 l49 0 0 -70 0 -70 -49 0 c-34 0
-56 -6 -75 -21 l-26 -20 0 -170 0 -169 -75 0 -75 0 0 253 c0 140 3 257 7 260
3 4 35 7 70 7 56 0 63 -2 63 -20z m368 -242 l2 -258 -75 0 -75 0 0 253 c0 140
3 257 7 261 4 4 37 6 73 4 l65 -3 3 -257z m1810 0 l2 -258 -75 0 -75 0 0 253
c0 140 3 257 7 261 4 4 37 6 73 4 l65 -3 3 -257z m-3069 -484 c32 -7 32 -7 29
-62 l-3 -56 -45 -2 c-50 -3 -70 -22 -70 -65 0 -26 3 -28 48 -31 l47 -3 3 -52
3 -53 -50 0 -51 0 0 -205 0 -205 -75 0 -75 0 0 205 0 205 -35 0 -35 0 0 55 0
55 35 0 c33 0 35 2 35 33 0 128 105 207 239 181z m241 -153 l0 -60 43 -3 42
-3 3 -52 3 -53 -45 0 -46 0 0 -138 c0 -152 4 -162 57 -162 l33 0 0 -54 c0 -40
-4 -55 -16 -60 -30 -12 -116 -6 -150 10 -60 28 -68 58 -72 242 l-4 162 -34 0
-35 0 3 53 c3 51 4 52 36 55 l32 3 0 60 0 59 75 0 75 0 0 -59z m2058 -85 c63
-33 98 -100 108 -211 l7 -75 -162 0 c-182 0 -189 -4 -127 -66 44 -44 104 -47
160 -9 20 14 40 25 44 25 4 0 22 -18 39 -39 l33 -40 -40 -34 c-122 -104 -330
-64 -396 77 -27 58 -33 169 -12 237 14 47 68 113 112 136 62 33 169 33 234 -1z
m-3291 3 c50 -24 82 -65 90 -114 l6 -35 -71 0 c-67 0 -72 1 -84 27 -7 14 -25
31 -40 35 -55 19 -113 -38 -74 -71 8 -7 50 -21 93 -32 85 -21 144 -56 162 -95
17 -38 13 -105 -9 -141 -39 -65 -174 -101 -274 -73 -55 15 -114 63 -132 106
-25 60 -22 64 55 64 61 0 70 -3 76 -20 11 -34 35 -50 76 -50 50 0 79 15 79 40
0 26 -32 45 -110 65 -119 30 -170 77 -170 155 0 61 31 108 90 138 61 30 175
31 237 1z m514 -2 c135 -72 173 -292 72 -424 -61 -80 -197 -107 -299 -59 -88
41 -133 121 -134 238 0 119 52 214 140 252 56 24 168 21 221 -7z m1005 -132
c18 -82 32 -148 33 -145 5 25 81 282 86 290 3 5 28 10 55 10 l49 0 20 -67 c11
-38 31 -106 45 -153 13 -47 25 -82 25 -77 1 4 15 71 31 149 17 77 30 143 30
145 0 7 129 2 134 -6 3 -5 -23 -120 -58 -257 l-63 -249 -64 0 -63 0 -45 148
-45 149 -45 -151 -44 -151 -64 0 c-35 0 -63 2 -63 4 0 2 -29 117 -64 254 -35
138 -61 253 -58 257 3 3 35 5 71 3 l65 -3 32 -150z m881 144 c31 -11 78 -53
96 -84 7 -12 14 -95 17 -205 4 -102 10 -193 14 -202 7 -16 1 -18 -68 -18 -58
0 -78 4 -82 15 -5 12 -12 11 -45 -5 -80 -41 -197 -14 -240 56 -30 49 -24 142
12 180 36 40 102 65 185 71 67 5 74 8 74 27 0 35 -28 66 -60 66 -41 0 -60 -10
-71 -36 -8 -22 -14 -24 -79 -24 -64 0 -70 2 -70 20 0 48 49 108 110 134 41 18
166 21 207 5z m343 -15 l0 -26 31 26 c24 20 41 26 80 26 l49 0 0 -70 0 -70
-46 0 c-45 0 -82 -13 -96 -34 -4 -6 -8 -86 -8 -178 l0 -168 -75 0 -75 0 0 253
c0 140 3 257 7 260 3 4 35 7 70 7 61 0 63 -1 63 -26z m950 -1224 l0 -139 -35
1 c-19 1 -38 -1 -41 -5 -9 -9 -64 14 -73 32 -23 43 -16 117 15 148 21 21 32
24 60 20 34 -6 34 -5 34 32 0 40 6 51 27 51 10 0 13 -30 13 -140z m490 0 l0
-139 -33 1 c-19 1 -39 -2 -45 -6 -21 -13 -63 14 -78 50 -20 47 -10 104 21 134
19 18 32 22 60 17 l35 -6 0 45 c0 37 3 44 20 44 19 0 20 -7 20 -140z m1108 -3
c2 -132 2 -137 -18 -137 -19 0 -20 6 -20 141 0 128 2 140 18 137 15 -3 17 -19
20 -141z m82 3 c0 -133 -1 -140 -20 -140 -19 0 -20 7 -20 140 0 133 1 140 20
140 19 0 20 -7 20 -140z m1500 121 c0 -13 -8 -21 -22 -23 -30 -4 -37 -38 -9
-38 14 0 21 -6 21 -20 0 -13 -7 -20 -20 -20 -18 0 -20 -7 -20 -80 0 -73 -2
-80 -20 -80 -18 0 -20 7 -20 80 0 64 -3 80 -15 80 -8 0 -15 9 -15 20 0 11 7
20 15 20 9 0 15 9 15 22 0 31 29 58 62 58 21 0 28 -5 28 -19z m768 -123 l3
-137 -38 -1 c-21 0 -49 -1 -63 -1 -66 -2 -98 124 -44 177 20 20 33 25 60 22
33 -4 34 -3 34 32 0 41 7 52 30 48 12 -3 15 -26 18 -140z m860 -1 l3 -138 -23
3 c-22 3 -23 7 -26 127 -3 138 0 154 25 149 16 -3 18 -19 21 -141z m-8739 31
l61 -93 0 93 c0 85 1 92 20 92 19 0 20 -7 20 -130 0 -128 0 -130 -22 -130 -18
1 -36 22 -78 88 l-55 87 -3 -88 c-3 -79 -5 -87 -22 -87 -19 0 -20 8 -20 130 0
120 1 130 19 130 12 0 39 -31 80 -92z m292 3 c50 -50 36 -141 -25 -166 -67
-28 -126 18 -126 100 0 48 45 95 90 95 22 0 41 -9 61 -29z m187 13 c27 -19 30
-54 3 -54 -10 0 -22 7 -25 16 -4 10 -15 14 -33 12 -34 -4 -41 -24 -11 -33 69
-21 88 -36 88 -72 0 -29 -5 -36 -33 -48 -52 -22 -117 4 -117 47 0 24 21 23 43
-3 21 -24 60 -22 65 3 2 11 -8 20 -35 28 -73 24 -92 61 -51 100 26 24 75 26
106 4z m282 -4 c16 -16 20 -33 20 -84 0 -35 3 -71 6 -80 5 -13 -2 -16 -37 -16
-24 -1 -55 -1 -69 -1 -25 -1 -60 32 -60 58 0 28 47 63 85 63 29 0 36 3 33 18
-4 23 -45 28 -68 7 -20 -18 -40 -13 -40 10 0 19 47 44 83 45 15 0 36 -9 47
-20z m188 4 c27 -19 30 -54 3 -54 -10 0 -22 7 -25 16 -4 10 -15 14 -33 12 -34
-4 -41 -24 -11 -33 69 -21 88 -36 88 -72 0 -30 -5 -36 -36 -49 -52 -22 -114 4
-114 48 0 24 21 23 43 -3 21 -24 60 -22 65 3 2 11 -8 20 -35 28 -73 24 -92 61
-51 100 26 24 75 26 106 4z m183 3 c22 -17 39 -51 39 -81 0 -24 -3 -25 -66
-28 l-66 -3 20 -25 c19 -23 22 -24 56 -12 44 16 64 7 41 -18 -34 -38 -110 -30
-139 15 -9 14 -16 43 -16 65 0 73 80 126 131 87z m229 -100 c0 -59 -4 -117
-10 -127 -17 -31 -72 -44 -114 -26 -20 8 -36 20 -36 26 0 16 30 24 43 11 24
-24 77 -6 77 26 0 8 -7 10 -22 4 -58 -21 -102 21 -102 100 0 73 28 98 105 96
l59 -1 0 -109z m80 40 c0 -71 10 -97 36 -97 30 0 44 31 44 101 0 62 2 70 18
67 14 -3 17 -17 20 -100 l3 -97 -43 -1 c-24 0 -51 -1 -62 -1 -10 0 -27 8 -37
17 -16 14 -19 31 -19 101 0 76 2 83 20 83 18 0 20 -7 20 -73z m260 52 c0 -12
-7 -19 -18 -19 -32 0 -42 -22 -42 -92 0 -61 -2 -68 -20 -68 -19 0 -20 7 -20
99 l0 99 50 0 c42 0 50 -3 50 -19z m149 0 c15 -17 20 -38 23 -100 l3 -79 -40
0 c-22 0 -50 -1 -63 -1 -30 -1 -62 28 -62 56 0 37 23 57 74 62 36 4 46 9 42
20 -4 8 -6 17 -6 19 0 12 -55 2 -65 -13 -7 -10 -19 -14 -29 -10 -14 5 -15 11
-6 27 22 42 97 53 129 19z m101 10 c0 -8 5 -8 15 1 9 8 27 10 47 6 40 -8 53
-8 98 0 55 9 74 -19 79 -117 l3 -79 -26 0 c-25 0 -25 2 -28 78 l-3 77 -30 0
-30 0 -3 -77 c-3 -70 -5 -78 -22 -78 -18 0 -20 7 -20 64 0 79 -6 96 -34 96
-36 0 -46 -20 -46 -92 0 -61 -2 -68 -20 -68 -19 0 -20 7 -20 100 0 93 1 100
20 100 11 0 20 -5 20 -11z m415 -13 c72 -72 18 -197 -78 -179 -56 11 -85 92
-56 157 23 49 95 61 134 22z m195 4 c11 -11 20 -27 20 -35 0 -20 -36 -19 -44
1 -4 10 -15 14 -33 12 -40 -4 -35 -30 7 -41 44 -11 70 -34 70 -61 0 -31 -13
-45 -50 -56 -52 -15 -125 28 -104 61 9 16 31 10 46 -13 11 -16 20 -20 41 -14
38 9 33 33 -9 45 -46 13 -74 38 -74 67 0 49 91 73 130 34z m256 9 c5 -8 9 -7
14 1 4 7 15 10 24 7 14 -6 16 -24 14 -139 -3 -125 -4 -133 -23 -133 -16 0 -21
8 -23 36 -3 35 -5 37 -39 36 -52 -1 -83 37 -83 104 0 40 5 55 25 74 25 26 78
34 91 14z m134 -62 c0 -71 10 -97 36 -97 30 0 44 31 44 101 0 62 2 70 18 67
14 -3 17 -17 20 -100 l3 -97 -43 -1 c-24 0 -51 -1 -62 -1 -10 0 -27 8 -37 17
-16 14 -19 31 -19 101 0 76 2 83 20 83 18 0 20 -7 20 -73z m281 60 c22 -17 39
-51 39 -81 0 -24 -3 -25 -66 -28 l-66 -3 20 -25 c19 -23 22 -24 56 -12 44 16
64 7 41 -18 -34 -38 -110 -30 -139 15 -9 14 -16 43 -16 65 0 73 80 126 131 87z
m287 -4 c30 -26 38 -63 15 -63 -10 0 -24 9 -31 20 -7 11 -23 20 -37 20 -42 0
-60 -64 -29 -108 19 -28 48 -28 68 -1 9 13 21 19 30 16 22 -9 20 -20 -9 -47
-36 -33 -91 -31 -122 5 -39 45 -27 140 21 163 33 16 72 14 94 -5z m192 -3 c16
-16 20 -33 20 -84 0 -35 3 -71 6 -80 5 -13 -2 -16 -37 -16 -24 -1 -55 -1 -69
-1 -25 -1 -60 32 -60 58 0 28 47 63 85 63 29 0 36 3 33 18 -4 22 -51 28 -68 8
-18 -22 -40 -20 -40 4 0 23 43 49 83 50 15 0 36 -9 47 -20z m399 -1 c15 -17
20 -38 23 -100 l3 -79 -40 0 c-22 0 -50 -1 -63 -1 -30 -1 -62 28 -62 56 0 37
23 57 74 62 36 4 46 9 42 20 -4 8 -6 17 -6 19 0 12 -59 2 -64 -11 -3 -8 -12
-15 -20 -15 -27 0 -28 19 -2 45 32 32 87 34 115 4z m486 -4 c17 -16 25 -35 25
-60 l0 -35 -60 0 c-62 0 -71 -7 -44 -34 18 -19 45 -21 61 -5 13 13 43 5 43
-11 0 -17 -64 -40 -91 -33 -58 14 -86 70 -68 137 18 66 88 88 134 41z m183 9
c27 -19 30 -54 3 -54 -10 0 -21 7 -25 15 -3 8 -17 15 -31 15 -42 0 -27 -31 23
-48 55 -18 72 -50 48 -87 -33 -50 -146 -29 -146 27 0 24 22 23 45 -2 22 -24
58 -23 63 2 2 12 -8 20 -38 29 -51 15 -76 48 -61 78 23 41 79 54 119 25z m190
-1 c16 -15 21 -34 25 -100 l5 -82 -41 -1 c-23 0 -53 -1 -66 -1 -31 -1 -53 23
-53 57 0 36 34 64 79 64 27 0 34 4 31 18 -4 24 -45 27 -69 6 -22 -20 -44 -8
-34 18 14 36 90 49 123 21z m170 -5 c2 -12 -3 -18 -15 -18 -33 0 -43 -21 -43
-93 0 -65 -1 -68 -22 -65 -22 3 -23 9 -26 87 -2 46 -1 90 2 97 3 7 23 11 53
10 37 -1 49 -5 51 -18z m122 1 c0 -12 -7 -19 -18 -19 -32 0 -42 -22 -42 -92 0
-61 -2 -68 -20 -68 -19 0 -20 7 -20 99 l0 99 50 0 c42 0 50 -3 50 -19z m141
11 c24 -13 49 -61 49 -95 0 -90 -107 -135 -160 -67 -22 28 -26 87 -9 126 19
40 78 58 120 36z m380 0 c24 -13 49 -61 49 -95 0 -90 -107 -135 -160 -67 -22
28 -26 87 -9 126 19 40 78 58 120 36z m299 -10 c11 -11 20 -27 20 -35 0 -20
-36 -19 -44 1 -4 10 -15 14 -33 12 -40 -4 -35 -30 7 -41 83 -21 98 -93 24
-117 -27 -9 -40 -8 -68 5 -35 17 -51 39 -40 56 9 16 31 10 46 -13 11 -16 20
-20 41 -14 38 9 33 33 -9 45 -46 13 -74 38 -74 67 0 49 91 73 130 34z m183 6
c20 -15 42 -81 32 -96 -3 -6 -33 -10 -66 -10 -63 0 -71 -6 -39 -35 18 -16 25
-17 54 -7 41 15 46 15 46 -2 0 -23 -29 -39 -72 -39 -33 0 -47 6 -65 27 -39 46
-27 141 21 164 30 15 68 14 89 -2z m197 -6 c16 -16 20 -33 20 -84 0 -35 3 -71
6 -80 5 -13 -2 -16 -37 -16 -24 -1 -55 -1 -69 -1 -25 -1 -60 32 -60 58 0 28
47 63 85 63 29 0 36 3 33 18 -4 22 -51 28 -68 8 -18 -22 -40 -20 -40 4 0 23
43 49 83 50 15 0 36 -9 47 -20z m279 3 c21 -17 44 -86 33 -97 -3 -4 -32 -6
-64 -6 -60 0 -69 -7 -42 -34 18 -19 45 -21 61 -5 13 13 43 5 43 -11 0 -17 -64
-40 -91 -33 -58 14 -86 70 -68 137 17 61 82 86 128 49z m101 7 c0 -7 6 -7 19
0 32 17 69 12 85 -12 11 -16 16 -46 16 -100 0 -71 -2 -78 -20 -78 -17 0 -19 8
-22 78 -3 73 -4 77 -27 80 -36 6 -51 -22 -51 -95 0 -56 -2 -63 -20 -63 -19 0
-20 7 -20 93 0 52 3 97 7 100 10 11 33 8 33 -3z m411 0 c24 -13 49 -61 49 -95
0 -90 -107 -135 -160 -67 -23 28 -27 107 -7 133 28 36 80 49 118 29z m216 -12
c13 -12 23 -30 23 -40 0 -25 -36 -23 -43 2 -6 23 -45 28 -65 8 -7 -7 -12 -30
-12 -53 0 -63 38 -86 75 -45 23 25 45 26 45 2 0 -29 -37 -56 -75 -56 -69 0
-111 77 -81 147 8 19 22 40 33 46 30 17 75 13 100 -11z m181 5 c16 -15 21 -34
25 -100 l5 -82 -41 -1 c-23 0 -53 -1 -66 -1 -31 -1 -53 23 -53 57 0 36 34 64
79 64 27 0 34 4 31 18 -4 24 -45 27 -69 6 -22 -20 -44 -8 -34 18 14 36 90 49
123 21z m413 -12 c54 -54 31 -161 -37 -174 -65 -12 -114 33 -114 103 0 53 42
100 90 100 22 0 41 -9 61 -29z m278 12 c21 -17 44 -86 33 -97 -3 -4 -32 -6
-64 -6 -60 0 -69 -7 -42 -34 18 -19 45 -21 61 -5 13 13 43 5 43 -11 0 -17 -64
-40 -91 -33 -58 14 -86 70 -68 137 17 61 82 86 128 49z m203 0 c15 -13 18 -33
18 -100 0 -76 -2 -83 -20 -83 -17 0 -19 8 -22 78 -3 73 -4 77 -27 80 -33 5
-41 -12 -41 -90 0 -66 -1 -68 -25 -68 -25 0 -25 0 -25 93 0 52 2 96 5 98 2 3
30 5 62 6 40 1 63 -3 75 -14z m366 0 c16 -15 21 -34 25 -100 l5 -82 -41 -1
c-23 0 -53 -1 -66 -1 -31 -1 -53 23 -53 57 0 36 34 64 79 64 27 0 34 4 31 18
-4 23 -56 29 -64 8 -7 -17 -30 -21 -38 -7 -27 43 79 81 122 44z m190 1 c27
-19 30 -54 3 -54 -10 0 -21 7 -25 15 -3 8 -17 15 -31 15 -42 0 -27 -31 23 -48
54 -18 72 -50 49 -85 -35 -53 -147 -35 -147 25 0 24 22 23 45 -2 22 -24 58
-23 63 2 2 12 -8 20 -38 29 -51 15 -76 48 -61 78 23 41 79 54 119 25z m-8008
-604 l0 -139 -35 1 c-19 1 -38 -1 -41 -5 -9 -9 -64 14 -73 32 -23 43 -16 117
15 148 21 21 32 24 60 20 34 -6 34 -5 34 32 0 40 6 51 27 51 10 0 13 -30 13
-140z m400 0 l0 -139 -37 -1 c-101 -1 -99 -2 -120 47 -32 78 15 161 84 150
l33 -6 0 45 c0 37 3 44 20 44 19 0 20 -7 20 -140z m670 0 l0 -139 -33 1 c-19
1 -39 -2 -45 -6 -21 -13 -63 14 -78 50 -33 79 13 162 83 151 l33 -6 0 45 c0
37 3 44 20 44 19 0 20 -7 20 -140z m368 -3 c2 -132 2 -137 -18 -137 -19 0 -20
6 -20 141 0 128 2 140 18 137 15 -3 17 -19 20 -141z m2830 96 c3 -41 4 -41 35
-36 42 6 75 -20 86 -67 9 -42 -1 -96 -21 -117 -14 -14 -29 -15 -108 -10 l-35
2 -3 124 c-3 138 0 154 25 149 13 -2 19 -15 21 -45z m730 -95 l3 -137 -43 -1
c-24 0 -52 -1 -63 -1 -62 0 -90 127 -39 177 20 20 33 25 60 22 33 -4 34 -3 34
32 0 41 7 52 30 48 12 -3 15 -26 18 -140z m882 2 c0 -133 -1 -140 -20 -140
-19 0 -20 7 -20 140 0 133 1 140 20 140 19 0 20 -7 20 -140z m1548 -2 l3 -137
-38 -1 c-21 0 -49 -1 -63 -1 -66 -2 -98 124 -44 177 20 20 33 25 60 22 33 -4
34 -3 34 32 0 41 7 52 30 48 12 -3 15 -26 18 -140z m562 2 c0 -133 -1 -140
-20 -140 -19 0 -20 7 -20 140 0 133 1 140 20 140 19 0 20 -7 20 -140z m-8192
101 c-5 -24 -38 -27 -38 -3 0 10 3 21 6 25 11 11 35 -5 32 -22z m3108 -10
c-10 -16 -36 -13 -43 5 -8 22 18 37 36 20 7 -8 10 -19 7 -25z m1687 3 c-3 -8
-12 -14 -19 -14 -20 0 -30 30 -13 40 17 11 40 -7 32 -26z m1763 -3 c-10 -16
-36 -13 -43 5 -8 22 18 37 36 20 7 -8 10 -19 7 -25z m1734 -11 c0 -11 7 -20
15 -20 8 0 15 -9 15 -20 0 -11 -7 -20 -15 -20 -12 0 -15 -14 -15 -65 0 -52 3
-65 16 -65 20 0 14 -34 -6 -38 -36 -7 -54 23 -58 97 -3 52 -8 71 -18 71 -8 0
-14 9 -14 20 0 11 7 20 15 20 8 0 15 9 15 20 0 15 7 20 25 20 18 0 25 -5 25
-20z m-9250 -30 c0 -7 6 -7 19 0 30 16 59 12 81 -10 17 -17 20 -33 20 -100 0
-73 -2 -80 -20 -80 -18 0 -20 7 -20 64 0 79 -6 96 -34 96 -36 0 -46 -20 -46
-92 0 -61 -2 -68 -20 -68 -19 0 -20 7 -20 100 0 93 1 100 20 100 11 0 20 -5
20 -10z m281 -3 c22 -17 39 -51 39 -81 0 -24 -3 -25 -66 -28 l-66 -3 20 -25
c19 -23 22 -24 56 -12 44 16 64 7 41 -18 -34 -38 -110 -30 -139 15 -9 14 -16
43 -16 65 0 73 80 126 131 87z m204 -12 c14 -13 25 -31 25 -40 0 -23 -38 -18
-45 6 -5 16 -14 19 -38 17 -25 -2 -32 -9 -39 -36 -17 -65 43 -123 74 -73 15
24 48 28 48 7 0 -8 -7 -22 -17 -31 -48 -49 -122 -33 -143 30 -34 103 65 191
135 120z m176 12 c22 -17 39 -51 39 -81 0 -24 -3 -25 -66 -28 l-66 -3 20 -25
c19 -23 22 -24 56 -12 44 16 64 7 41 -18 -34 -38 -110 -30 -139 15 -9 14 -16
43 -16 65 0 73 80 126 131 87z m194 -12 c14 -13 25 -29 25 -35 0 -16 -40 -12
-46 5 -4 9 -19 15 -36 15 -45 0 -32 -29 22 -49 76 -28 78 -100 3 -114 -54 -10
-122 38 -94 66 8 8 18 4 35 -12 19 -18 31 -22 51 -17 15 4 25 12 23 18 -4 12
-11 16 -70 42 -32 13 -38 21 -38 45 0 59 80 82 125 36z m105 -75 c0 -93 -1
-100 -20 -100 -19 0 -20 7 -20 100 0 93 1 100 20 100 19 0 20 -7 20 -100z
m379 79 c15 -17 20 -38 23 -100 l3 -79 -40 0 c-22 0 -50 -1 -63 -1 -30 -1 -62
28 -62 56 0 37 23 57 74 62 36 4 46 9 42 20 -4 8 -6 17 -6 19 0 12 -55 2 -65
-13 -7 -10 -19 -14 -29 -10 -14 5 -15 11 -6 27 22 42 97 53 129 19z m396 -4
c17 -16 25 -35 25 -60 l0 -35 -60 0 c-62 0 -71 -7 -44 -34 18 -19 45 -21 61
-5 13 13 43 5 43 -11 0 -17 -62 -39 -92 -33 -55 10 -85 73 -66 139 17 64 88
85 133 39z m183 9 c24 -17 30 -54 8 -54 -7 0 -19 7 -26 15 -7 8 -23 15 -37 15
-40 0 -24 -31 25 -48 55 -18 72 -50 48 -87 -30 -46 -146 -30 -146 21 0 24 21
26 45 4 26 -24 58 -23 63 2 2 12 -8 20 -38 29 -51 15 -76 48 -61 78 23 41 79
54 119 25z m487 -9 c17 -16 25 -35 25 -60 l0 -35 -60 0 c-62 0 -71 -7 -44 -34
18 -19 45 -21 61 -5 13 13 43 5 43 -11 0 -17 -62 -39 -92 -33 -55 10 -85 73
-66 139 17 64 88 85 133 39z m358 14 c50 -23 64 -118 25 -164 -43 -49 -128
-31 -149 32 -30 93 42 170 124 132z m205 -5 c27 -19 30 -54 3 -54 -10 0 -21 7
-25 15 -3 8 -17 15 -31 15 -42 0 -27 -31 23 -48 55 -18 72 -50 48 -87 -33 -50
-146 -29 -146 27 0 24 22 23 45 -2 22 -24 58 -23 63 2 2 12 -8 20 -38 29 -51
15 -76 48 -61 78 23 41 79 54 119 25z m192 -57 c0 -71 10 -97 36 -97 30 0 44
31 44 101 0 62 2 70 18 67 14 -3 17 -17 20 -100 l3 -97 -43 -1 c-24 0 -51 -1
-62 -1 -10 0 -27 8 -37 17 -16 14 -19 31 -19 101 0 76 2 83 20 83 18 0 20 -7
20 -73z m285 48 c14 -13 25 -29 25 -35 0 -16 -40 -12 -46 5 -4 9 -19 15 -36
15 -45 0 -32 -29 22 -49 55 -20 74 -58 46 -90 -34 -37 -115 -31 -137 10 -20
39 12 53 40 17 14 -16 24 -19 45 -14 15 4 26 12 24 18 -4 12 -11 16 -70 42
-32 13 -38 21 -38 45 0 59 80 82 125 36z m95 -43 c0 -85 15 -112 54 -94 25 11
26 15 26 87 0 68 2 75 20 75 19 0 20 -7 20 -100 l0 -99 -37 -1 c-21 0 -49 -1
-63 -1 -42 -1 -60 34 -60 115 0 75 4 86 27 86 9 0 13 -18 13 -68z m291 49 c21
-17 24 -29 28 -101 l3 -83 -28 5 c-16 3 -38 2 -49 -2 -22 -8 -65 5 -77 23 -4
7 -8 24 -8 39 0 33 33 58 77 58 26 0 33 4 33 20 0 16 -7 20 -30 20 -18 0 -33
-6 -36 -15 -7 -18 -30 -20 -40 -3 -11 17 42 58 75 58 16 0 39 -9 52 -19z m169
-2 c0 -12 -7 -19 -18 -19 -32 0 -42 -22 -42 -92 0 -61 -2 -68 -20 -68 -19 0
-20 7 -20 99 l0 99 50 0 c42 0 50 -3 50 -19z m60 -79 c0 -93 -1 -100 -20 -100
-19 0 -20 7 -20 93 0 95 3 107 27 107 10 0 13 -23 13 -100z m191 71 c50 -50
36 -141 -25 -166 -67 -28 -126 18 -126 100 0 48 45 95 90 95 22 0 41 -9 61
-29z m187 13 c27 -19 30 -54 3 -54 -10 0 -22 7 -25 16 -6 17 -56 16 -58 -1 -1
-10 8 -15 65 -41 32 -14 37 -21 37 -51 0 -30 -5 -36 -36 -49 -52 -22 -114 4
-114 48 0 24 21 23 43 -3 21 -24 60 -22 65 3 2 11 -8 20 -35 28 -72 23 -92 61
-53 100 24 24 77 26 108 4z m289 -6 c69 -65 11 -210 -71 -178 -24 9 -25 7 -28
-33 -2 -30 -8 -43 -20 -45 -16 -3 -18 9 -18 135 l0 139 58 1 c45 1 62 -3 79
-19z m193 2 c16 -16 20 -33 20 -84 0 -35 3 -71 6 -80 5 -13 -2 -16 -37 -16
-24 -1 -55 -1 -69 -1 -25 -1 -60 32 -60 58 0 28 47 63 85 63 29 0 36 3 33 18
-4 22 -51 28 -68 8 -18 -22 -40 -20 -40 4 0 23 43 49 83 50 15 0 36 -9 47 -20z
m168 -2 c2 -12 -3 -18 -15 -18 -33 0 -43 -21 -43 -93 0 -65 -1 -68 -22 -65
-22 3 -23 9 -26 87 -2 46 -1 90 2 97 3 7 23 11 53 10 37 -1 49 -5 51 -18z
m140 5 c16 -15 21 -34 25 -100 l5 -82 -41 -1 c-23 0 -53 -1 -66 -1 -31 -1 -53
23 -53 57 0 36 34 64 79 64 27 0 34 4 31 18 -4 24 -45 27 -69 6 -22 -20 -44
-8 -34 18 14 36 90 49 123 21z m460 -5 c2 -12 -3 -18 -15 -18 -33 0 -43 -21
-43 -93 0 -65 -1 -68 -22 -65 -22 3 -23 9 -26 87 -2 46 -1 90 2 97 3 7 23 11
53 10 37 -1 49 -5 51 -18z m62 -78 c0 -93 -1 -100 -20 -100 -19 0 -20 7 -20
100 0 93 1 100 20 100 19 0 20 -7 20 -100z m182 83 c15 -13 18 -33 18 -100 0
-76 -2 -83 -20 -83 -17 0 -19 8 -22 78 -3 73 -4 77 -27 80 -33 5 -41 -12 -41
-91 0 -65 -1 -68 -22 -65 -22 3 -23 9 -26 87 -2 46 -1 89 1 96 7 18 119 16
139 -2z m398 -3 c16 -16 20 -33 20 -84 0 -35 3 -71 6 -80 5 -13 -2 -16 -37
-16 -24 -1 -55 -1 -69 -1 -25 -1 -60 32 -60 58 0 28 47 63 85 63 29 0 36 3 33
18 -4 22 -51 28 -68 8 -18 -22 -40 -20 -40 4 0 23 43 49 83 50 15 0 36 -9 47
-20z m160 -1 c0 -10 -6 -19 -14 -19 -32 0 -46 -30 -46 -96 0 -57 -2 -64 -20
-64 -19 0 -20 7 -20 93 0 52 2 96 5 99 3 3 25 5 50 6 38 0 45 -3 45 -19z m238
5 c27 -19 30 -54 3 -54 -10 0 -21 7 -25 15 -3 8 -17 15 -31 15 -42 0 -27 -31
23 -48 54 -18 72 -50 49 -85 -35 -53 -147 -35 -147 25 0 24 22 23 45 -2 22
-24 58 -23 63 2 2 12 -8 20 -38 29 -51 15 -76 48 -61 78 23 41 79 54 119 25z
m185 4 c35 -18 46 -40 47 -89 0 -83 -57 -126 -125 -93 -23 11 -38 27 -46 51
-30 93 45 173 124 131z m207 -56 c0 -85 15 -112 54 -94 25 11 26 15 26 87 0
68 2 75 20 75 19 0 20 -7 20 -100 l0 -99 -37 -1 c-21 0 -49 -1 -63 -1 -43 -1
-60 33 -60 122 0 72 2 79 20 79 18 0 20 -7 20 -68z m294 47 c31 -24 35 -59 7
-59 -11 0 -23 9 -26 20 -8 24 -47 27 -66 4 -7 -9 -13 -31 -13 -49 0 -59 49
-88 76 -45 15 23 48 27 48 6 0 -8 -7 -22 -17 -31 -48 -49 -122 -33 -143 30
-34 102 56 185 134 124z m96 -79 c0 -93 -1 -100 -20 -100 -19 0 -20 7 -20 93
0 95 3 107 27 107 10 0 13 -23 13 -100z m191 71 c54 -54 31 -161 -37 -174 -65
-12 -114 33 -114 103 0 53 42 100 90 100 22 0 41 -9 61 -29z m99 19 c0 -7 6
-7 19 0 32 17 69 12 85 -12 11 -16 16 -46 16 -100 0 -71 -2 -78 -20 -78 -17 0
-19 8 -22 78 -3 73 -4 77 -27 80 -36 6 -51 -22 -51 -95 0 -56 -2 -63 -20 -63
-19 0 -20 7 -20 93 0 52 3 97 7 100 10 11 33 8 33 -3z m295 -15 c17 -16 25
-35 25 -60 l0 -35 -60 0 c-47 0 -60 -3 -60 -15 0 -9 11 -20 25 -27 19 -9 29
-8 49 5 20 13 26 14 35 3 8 -10 6 -17 -7 -28 -48 -43 -122 -24 -142 37 -34
103 65 191 135 120z m185 5 c11 -11 20 -27 20 -35 0 -20 -36 -19 -44 1 -4 10
-15 14 -33 12 -40 -4 -35 -30 7 -41 83 -21 98 -93 24 -117 -27 -9 -40 -8 -68
5 -35 17 -51 39 -40 56 9 16 31 10 46 -13 11 -16 20 -20 41 -14 40 10 33 34
-13 46 -48 13 -70 34 -70 65 0 50 90 75 130 35z m485 -5 c17 -16 25 -35 25
-60 l0 -35 -60 0 c-47 0 -60 -3 -60 -15 0 -9 11 -20 25 -27 19 -9 29 -8 49 5
20 13 26 14 35 3 8 -10 6 -17 -7 -28 -48 -43 -122 -24 -142 37 -34 103 65 191
135 120z m275 5 c16 -16 20 -33 20 -84 0 -35 3 -71 6 -80 5 -13 -2 -16 -37
-16 -24 -1 -55 -1 -69 -1 -25 -1 -60 32 -60 58 0 28 47 63 85 63 29 0 36 3 33
18 -4 22 -51 28 -68 8 -19 -24 -42 -20 -38 6 6 45 92 64 128 28z m398 3 c16
-15 21 -34 25 -100 l5 -82 -41 -1 c-23 0 -53 -1 -66 -1 -31 -1 -53 23 -53 57
0 36 34 64 79 64 27 0 34 4 31 18 -4 23 -56 29 -64 8 -7 -17 -30 -21 -38 -7
-27 43 79 81 122 44z m-9048 -603 c0 -133 -1 -140 -20 -140 -19 0 -20 7 -20
140 0 133 1 140 20 140 19 0 20 -7 20 -140z m290 0 l0 -139 -37 -1 c-101 -1
-99 -2 -120 47 -32 78 15 161 84 150 l33 -6 0 45 c0 37 3 44 20 44 19 0 20 -7
20 -140z m400 0 l0 -139 -37 -1 c-21 0 -49 -1 -62 -1 -69 -2 -97 127 -39 181
24 22 68 26 86 8 9 -9 12 0 12 40 0 45 3 52 20 52 19 0 20 -7 20 -140z m-600
104 c0 -19 -28 -30 -42 -16 -8 8 -8 15 1 26 14 17 41 10 41 -10z m-385 -69
c14 -13 25 -31 25 -40 0 -23 -38 -18 -45 6 -5 16 -14 19 -38 17 -25 -2 -32 -9
-39 -36 -17 -65 43 -123 74 -73 15 24 48 28 48 7 0 -8 -7 -22 -17 -31 -48 -49
-122 -33 -143 30 -34 103 65 191 135 120z m185 5 c16 -16 20 -33 20 -84 0 -35
3 -71 6 -80 5 -13 -2 -16 -37 -16 -24 -1 -55 -1 -69 -1 -25 -1 -60 32 -60 58
0 28 47 63 85 63 29 0 36 3 33 18 -4 20 -45 29 -61 13 -16 -16 -47 -13 -47 4
0 19 47 44 83 45 15 0 36 -9 47 -20z m198 -83 c3 -92 2 -97 -18 -97 -19 0 -20
6 -20 101 0 90 2 100 18 97 14 -3 17 -17 20 -101z m373 84 c21 -17 24 -29 28
-101 l3 -83 -28 5 c-16 3 -38 2 -49 -2 -22 -8 -65 5 -77 23 -4 7 -8 24 -8 39
0 33 33 58 77 58 26 0 33 4 33 20 0 16 -7 20 -30 20 -18 0 -33 -6 -36 -15 -7
-18 -30 -20 -40 -3 -11 17 42 58 75 58 16 0 39 -9 52 -19z m317 -164 c2 -11
-3 -17 -17 -17 -23 0 -35 15 -26 31 10 15 39 6 43 -14z m19736 -1068 c-3 -5
-10 -7 -15 -3 -5 3 -7 10 -3 15 3 5 10 7 15 3 5 -3 7 -10 3 -15z m-17952 -97
c117 -47 214 -144 259 -260 32 -81 32 -223 0 -304 -45 -116 -142 -213 -259
-260 l-57 -23 -1269 -3 c-825 -1 -1289 1 -1324 8 -84 15 -157 53 -223 116
-137 131 -174 326 -95 499 52 113 186 220 306 244 25 5 613 8 1325 7 l1280 -1
57 -23z m3610 0 c117 -47 214 -144 259 -260 32 -81 32 -223 0 -304 -45 -116
-142 -213 -259 -260 l-57 -23 -1270 -3 c-883 -2 -1286 1 -1322 8 -225 47 -384
275 -346 496 30 173 156 313 324 358 46 13 239 15 1334 13 l1280 -2 57 -23z
m14286 0 c2 -15 -2 -22 -12 -22 -11 0 -16 9 -16 26 0 31 23 28 28 -4z m-122
-129 c-10 -10 -19 5 -10 18 6 11 8 11 12 0 2 -7 1 -15 -2 -18z m-26 -23 c0 -5
-4 -10 -10 -10 -5 0 -10 5 -10 10 0 6 5 10 10 10 6 0 10 -4 10 -10z m-113
-116 c-3 -3 -12 -4 -19 -1 -8 3 -5 6 6 6 11 1 17 -2 13 -5z m373 -809 c0 -96
-3 -115 -15 -115 -12 0 -15 19 -15 108 0 60 3 112 7 115 18 19 23 -3 23 -108z
m-179 -368 c-13 -13 -26 -3 -16 12 3 6 11 8 17 5 6 -4 6 -10 -1 -17z m-21222
-531 c90 -67 105 -179 34 -257 -83 -92 -226 -72 -283 41 -25 49 -25 90 -1 138
20 38 65 85 91 95 8 3 40 6 71 6 44 1 62 -4 88 -23z m13161 -14 c28 -23 31
-83 5 -112 -23 -26 -85 -27 -107 -2 -34 38 -32 77 8 116 21 21 67 20 94 -2z
m-8576 -583 c32 -25 34 -64 4 -96 -27 -29 -55 -29 -85 -1 -31 29 -30 71 3 97
15 12 32 21 39 21 7 0 24 -9 39 -21z m3576 -289 c26 -26 25 -68 -2 -97 -42
-45 -108 -14 -108 52 0 58 68 87 110 45z"/>
<path d="M468 12548 c-9 -7 -24 -26 -34 -43 -19 -29 -19 -29 1 -21 11 4 42 15
69 23 41 12 46 17 35 28 -22 20 -54 26 -71 13z"/>
<path d="M738 12426 c40 -58 52 -62 52 -15 0 35 -31 69 -65 69 -24 0 -24 0 13
-54z"/>
<path d="M506 12436 c-54 -19 -106 -41 -114 -50 -11 -11 -17 -44 -20 -124 -4
-104 -3 -110 19 -131 25 -23 126 -58 195 -68 38 -5 42 -3 73 36 19 23 48 72
67 108 32 64 32 67 17 97 -25 50 -114 166 -126 166 -7 0 -56 -16 -111 -34z"/>
<path d="M271 12315 c-17 -20 -31 -38 -31 -42 0 -11 42 -73 50 -73 6 0 21 140
15 148 -1 1 -16 -13 -34 -33z"/>
<path d="M772 12144 c-12 -22 -30 -50 -40 -63 l-17 -24 35 7 c53 10 65 27 54
77 l-9 42 -23 -39z"/>
<path d="M416 12010 c29 -50 44 -56 89 -34 l38 18 -49 16 c-27 10 -60 21 -73
25 l-24 7 19 -32z"/>
<path d="M22593 12450 c-53 -17 -67 -50 -71 -164 -5 -121 8 -179 45 -204 22
-14 50 -17 153 -17 187 1 194 8 194 195 0 131 -7 160 -45 181 -28 15 -236 21
-276 9z m277 -45 c17 -20 5 -45 -20 -45 -23 0 -35 22 -26 45 7 19 30 19 46 0z
m-64 -59 c30 -30 34 -40 34 -86 0 -46 -4 -56 -34 -86 -30 -30 -40 -34 -86 -34
-46 0 -56 4 -86 34 -30 30 -34 40 -34 86 0 46 4 56 34 86 30 30 40 34 86 34
46 0 56 -4 86 -34z"/>
<path d="M22683 12328 c-55 -27 -50 -114 8 -138 89 -37 151 99 63 139 -30 13
-42 13 -71 -1z"/>
<path d="M12130 12305 c0 -19 4 -35 9 -35 20 0 61 20 61 29 0 16 -31 41 -51
41 -15 0 -19 -7 -19 -35z"/>
<path d="M7494 12266 c-11 -30 0 -71 20 -71 26 0 40 26 32 58 -7 29 -42 38
-52 13z"/>
<path d="M8355 12270 c-4 -6 5 -10 20 -10 15 0 24 4 20 10 -3 6 -12 10 -20 10
-8 0 -17 -4 -20 -10z"/>
<path d="M9144 12266 c-11 -30 0 -71 20 -71 26 0 40 26 32 58 -7 29 -42 38
-52 13z"/>
<path d="M10314 12267 c-3 -9 -4 -28 -2 -44 2 -20 8 -28 23 -28 17 0 20 7 20
40 0 30 -4 41 -18 43 -9 2 -20 -3 -23 -11z"/>
<path d="M10495 12270 c-4 -6 5 -10 20 -10 15 0 24 4 20 10 -3 6 -12 10 -20
10 -8 0 -17 -4 -20 -10z"/>
<path d="M10870 12270 c0 -5 9 -10 20 -10 11 0 20 5 20 10 0 6 -9 10 -20 10
-11 0 -20 -4 -20 -10z"/>
<path d="M11470 12204 c0 -9 7 -14 17 -12 25 5 28 28 4 28 -12 0 -21 -6 -21
-16z"/>
<path d="M12440 12259 c-16 -28 2 -72 28 -67 24 5 25 81 0 86 -9 2 -22 -6 -28
-19z"/>
<path d="M12780 12270 c0 -5 9 -10 20 -10 11 0 20 5 20 10 0 6 -9 10 -20 10
-11 0 -20 -4 -20 -10z"/>
<path d="M13220 12259 c-16 -28 2 -72 28 -67 24 5 25 81 0 86 -9 2 -22 -6 -28
-19z"/>
<path d="M14224 12267 c-3 -9 -4 -28 -2 -44 2 -20 8 -28 23 -28 17 0 20 7 20
40 0 30 -4 41 -18 43 -9 2 -20 -3 -23 -11z"/>
<path d="M14672 12238 c3 -45 22 -57 41 -27 15 25 0 69 -24 69 -18 0 -20 -5
-17 -42z"/>
<path d="M14844 12253 c-8 -29 6 -58 26 -58 20 0 34 29 26 58 -4 18 -13 27
-26 27 -13 0 -22 -9 -26 -27z"/>
<path d="M4671 9157 c-49 -28 -65 -100 -36 -156 14 -29 40 -45 55 -36 5 3 11
19 15 35 4 17 29 54 56 84 42 46 47 55 34 66 -23 19 -96 23 -124 7z"/>
<path d="M4883 8993 c-9 -21 -19 -41 -21 -45 -2 -5 30 -8 72 -8 68 0 76 2 76
19 0 35 -38 71 -76 71 -29 0 -36 -5 -51 -37z"/>
<path d="M5636 9005 c-55 -59 -46 -206 15 -249 59 -41 130 2 143 85 9 58 -9
137 -36 166 -31 33 -91 31 -122 -2z"/>
<path d="M6523 9008 c-11 -13 -24 -33 -28 -45 -6 -23 -5 -23 79 -23 85 0 86 0
86 25 0 61 -94 90 -137 43z"/>
<path d="M2811 8851 c-33 -9 -62 -51 -55 -78 3 -12 19 -27 35 -33 23 -10 34
-9 66 6 35 18 38 23 41 67 l3 47 -33 -1 c-18 -1 -44 -4 -57 -8z"/>
<path d="M14011 6570 c-262 -37 -524 -198 -672 -412 -203 -295 -234 -662 -84
-985 52 -110 87 -163 168 -250 119 -128 283 -228 454 -279 127 -38 330 -44
461 -15 232 51 428 170 568 346 215 268 275 621 162 945 -109 309 -367 545
-684 625 -105 27 -276 38 -373 25z m258 -495 c132 -35 247 -125 310 -244 44
-83 61 -149 61 -238 0 -320 -309 -563 -614 -484 -192 51 -321 179 -371 371
-66 253 102 531 360 596 68 17 189 17 254 -1z"/>
<path d="M4953 8055 c-11 -8 -26 -28 -31 -45 l-11 -30 91 0 c78 0 89 2 84 16
-3 9 -6 20 -6 25 0 5 -9 18 -20 29 -24 24 -76 26 -107 5z"/>
<path d="M6760 7882 c-27 -13 -36 -24 -38 -48 -4 -39 18 -58 65 -57 50 1 73
27 73 80 0 42 -1 43 -32 43 -18 0 -49 -8 -68 -18z"/>
<path d="M8008 8053 c-16 -19 -38 -58 -38 -67 0 -3 38 -6 85 -6 84 0 85 0 85
25 0 14 -9 34 -20 45 -26 26 -91 27 -112 3z"/>
<path d="M2273 8048 c-11 -13 -24 -33 -28 -45 -6 -23 -5 -23 84 -23 l90 0 -10
33 c-11 41 -34 57 -79 57 -25 0 -43 -7 -57 -22z"/>
<path d="M3280 8050 c-17 -17 -20 -33 -20 -124 0 -101 1 -105 26 -125 35 -28
77 -26 111 3 27 23 28 28 28 119 0 87 -2 98 -24 121 -31 33 -91 36 -121 6z"/>
<path d="M3829 8057 c-18 -13 -39 -50 -39 -66 0 -7 32 -11 85 -11 76 0 85 2
85 19 0 10 -9 30 -21 45 -16 20 -29 26 -57 26 -20 0 -44 -6 -53 -13z"/>
<path d="M5549 7097 c-18 -13 -39 -50 -39 -66 0 -7 32 -11 85 -11 78 0 85 2
85 20 0 15 -7 20 -29 20 -20 0 -36 9 -49 25 -22 28 -30 30 -53 12z"/>
<path d="M2763 7088 c-27 -30 -34 -55 -34 -126 -1 -92 33 -142 96 -142 62 0
95 50 95 145 0 64 -20 119 -48 134 -35 19 -86 13 -109 -11z"/>
<path d="M4701 6931 c-33 -9 -62 -51 -55 -78 3 -12 19 -27 35 -33 23 -10 34
-9 66 6 35 18 38 23 41 67 l3 47 -33 -1 c-18 -1 -44 -4 -57 -8z"/>
<path d="M6012 5988 c-17 -17 -15 -84 4 -102 37 -37 66 -8 62 61 -3 43 -6 48
-28 51 -14 2 -31 -3 -38 -10z"/>
<path d="M6500 5985 c-17 -21 -15 -84 4 -103 12 -13 20 -13 41 -4 21 10 25 18
25 55 0 24 -5 48 -12 55 -16 16 -43 15 -58 -3z"/>
<path d="M9951 5981 c-17 -32 -13 -76 10 -97 33 -30 54 -8 54 57 0 51 -1 54
-27 57 -18 2 -30 -3 -37 -17z"/>
<path d="M2380 5981 c-14 -28 -12 -63 6 -89 42 -60 110 22 74 89 -7 12 -21 19
-40 19 -19 0 -33 -7 -40 -19z"/>
<path d="M2873 5923 c-18 -7 -16 -42 1 -49 22 -8 56 14 56 36 0 20 -27 26 -57
13z"/>
<path d="M3247 5993 c-19 -19 -5 -33 33 -33 38 0 40 2 30 20 -10 19 -49 27
-63 13z"/>
<path d="M3442 5988 c-17 -17 -15 -93 3 -108 12 -10 21 -10 40 -2 20 10 25 19
25 51 0 22 -3 46 -6 55 -7 19 -45 21 -62 4z"/>
<path d="M3950 5914 c-11 -12 -10 -18 3 -31 14 -15 18 -15 41 1 14 9 26 23 26
31 0 20 -54 20 -70 -1z"/>
<path d="M4460 5981 c-16 -30 -12 -76 8 -94 38 -34 76 -10 76 48 0 18 -6 40
-13 49 -18 22 -58 20 -71 -3z"/>
<path d="M4941 5981 c-24 -44 -4 -111 32 -111 30 1 38 18 35 71 -3 50 -5 54
-30 57 -18 2 -30 -3 -37 -17z"/>
<path d="M5347 5993 c-19 -19 -5 -33 33 -33 38 0 40 2 30 20 -10 19 -49 27
-63 13z"/>
<path d="M5823 5923 c-18 -7 -16 -42 1 -49 22 -8 56 14 56 36 0 20 -27 26 -57
13z"/>
<path d="M6214 5916 c-18 -14 -18 -16 -2 -32 16 -16 18 -16 42 0 14 9 26 23
26 31 0 19 -40 20 -66 1z"/>
<path d="M6702 5988 c-21 -21 -13 -28 29 -28 33 0 40 3 35 16 -3 9 -6 18 -6
20 0 9 -47 3 -58 -8z"/>
<path d="M7083 5923 c-18 -7 -16 -42 1 -49 22 -8 56 14 56 36 0 20 -27 26 -57
13z"/>
<path d="M7510 5981 c-33 -63 27 -147 70 -96 16 20 17 80 1 99 -18 22 -58 20
-71 -3z"/>
<path d="M7890 5981 c-33 -63 27 -147 70 -96 16 20 17 80 1 99 -18 22 -58 20
-71 -3z"/>
<path d="M8370 5981 c-10 -20 -8 -21 30 -21 34 0 41 3 38 18 -5 26 -54 28 -68
3z"/>
<path d="M8573 5923 c-18 -7 -16 -42 1 -49 22 -8 56 14 56 36 0 20 -27 26 -57
13z"/>
<path d="M8852 5988 c-21 -21 -13 -28 29 -28 33 0 40 3 35 16 -3 9 -6 18 -6
20 0 9 -47 3 -58 -8z"/>
<path d="M9360 5981 c-33 -63 27 -147 70 -96 16 20 17 80 1 99 -18 22 -58 20
-71 -3z"/>
<path d="M9763 5923 c-18 -7 -16 -42 1 -49 22 -8 56 14 56 36 0 20 -27 26 -57
13z"/>
<path d="M10163 5993 c-7 -2 -15 -20 -19 -39 -12 -66 46 -111 80 -62 41 58 -1
126 -61 101z"/>
<path d="M10452 5988 c-21 -21 -13 -28 29 -28 33 0 40 3 35 16 -3 9 -6 18 -6
20 0 9 -47 3 -58 -8z"/>
<path d="M11023 5923 c-18 -7 -16 -42 1 -49 22 -8 56 14 56 36 0 20 -27 26
-57 13z"/>
<path d="M3172 5428 c-17 -17 -15 -84 4 -102 37 -37 66 -8 62 61 -3 43 -6 48
-28 51 -14 2 -31 -3 -38 -10z"/>
<path d="M3570 5425 c-17 -21 -15 -84 4 -103 12 -13 20 -13 41 -4 21 10 25 18
25 51 0 22 -3 46 -6 55 -8 20 -48 21 -64 1z"/>
<path d="M4240 5425 c-17 -21 -15 -84 4 -103 12 -13 20 -13 41 -4 21 10 25 18
25 51 0 22 -3 46 -6 55 -8 20 -48 21 -64 1z"/>
<path d="M7557 5433 c-4 -3 -7 -28 -7 -54 0 -38 4 -51 19 -59 25 -13 27 -13
45 6 19 18 21 85 4 102 -13 13 -50 16 -61 5z"/>
<path d="M8161 5421 c-17 -32 -13 -76 10 -97 33 -30 54 -8 54 57 0 51 -1 54
-27 57 -18 2 -30 -3 -37 -17z"/>
<path d="M10591 5421 c-17 -32 -13 -76 10 -97 33 -30 54 -8 54 57 0 51 -1 54
-27 57 -18 2 -30 -3 -37 -17z"/>
<path d="M2327 5433 c-19 -19 -5 -33 33 -33 38 0 40 2 30 20 -10 19 -49 27
-63 13z"/>
<path d="M2707 5433 c-19 -19 -5 -33 33 -33 38 0 40 2 30 20 -10 19 -49 27
-63 13z"/>
<path d="M3370 5355 c-10 -12 -10 -18 0 -30 21 -25 69 -2 70 33 0 17 -55 15
-70 -3z"/>
<path d="M3772 5428 c-21 -21 -13 -28 29 -28 33 0 40 3 35 16 -3 9 -6 18 -6
20 0 9 -47 3 -58 -8z"/>
<path d="M4442 5428 c-21 -21 -13 -28 29 -28 33 0 40 3 35 16 -3 9 -6 18 -6
20 0 9 -47 3 -58 -8z"/>
<path d="M4809 5424 c-29 -36 -8 -114 31 -114 40 0 64 65 40 111 -13 23 -53
25 -71 3z"/>
<path d="M5872 5358 c-28 -28 2 -57 39 -38 28 15 25 50 -4 50 -13 0 -28 -5
-35 -12z"/>
<path d="M6270 5414 c-6 -14 -10 -33 -10 -42 0 -27 29 -62 50 -62 24 0 50 37
50 72 0 56 -71 82 -90 32z"/>
<path d="M6754 5426 c-3 -7 -4 -33 -2 -56 3 -50 27 -72 56 -54 21 13 29 89 11
110 -15 18 -58 18 -65 0z"/>
<path d="M6963 5363 c-18 -7 -16 -42 1 -49 22 -8 56 14 56 36 0 20 -27 26 -57
13z"/>
<path d="M7273 5363 c-18 -7 -16 -42 1 -49 22 -8 56 14 56 36 0 20 -27 26 -57
13z"/>
<path d="M8373 5363 c-18 -7 -16 -42 1 -49 22 -8 56 14 56 36 0 20 -27 26 -57
13z"/>
<path d="M8959 5424 c-16 -19 -15 -79 1 -99 43 -51 103 33 70 96 -13 23 -53
25 -71 3z"/>
<path d="M9733 5433 c-7 -2 -15 -20 -19 -39 -12 -66 46 -111 80 -62 41 58 -1
126 -61 101z"/>
<path d="M10132 5428 c-21 -21 -13 -28 28 -28 22 0 40 4 40 8 0 14 -23 32 -40
32 -9 0 -21 -5 -28 -12z"/>
<path d="M10802 5428 c-21 -21 -13 -28 28 -28 22 0 40 4 40 8 0 14 -23 32 -40
32 -9 0 -21 -5 -28 -12z"/>
<path d="M11083 5363 c-15 -5 -17 -39 -4 -47 18 -11 61 13 61 34 0 20 -26 26
-57 13z"/>
<path d="M11483 5363 c-18 -7 -16 -42 1 -49 22 -8 56 14 56 36 0 20 -27 26
-57 13z"/>
<path d="M2689 4864 c-17 -21 -15 -83 5 -102 12 -13 20 -13 41 -4 21 10 25 18
25 51 0 22 -3 46 -6 55 -8 21 -48 21 -65 0z"/>
<path d="M3080 4854 c-15 -37 -12 -59 9 -85 16 -21 22 -22 45 -11 22 10 26 18
26 55 0 48 -13 67 -47 67 -16 0 -27 -8 -33 -26z"/>
<path d="M2315 4794 c-15 -15 -15 -18 -1 -32 20 -21 66 -1 66 28 0 25 -41 28
-65 4z"/>
<path d="M2892 4798 c-28 -28 2 -57 39 -38 28 15 25 50 -4 50 -13 0 -28 -5
-35 -12z"/>
<path d="M1509 1531 c-24 -25 -29 -37 -29 -81 0 -41 5 -56 24 -75 63 -63 171
-34 192 52 9 35 -4 72 -36 104 -23 24 -37 29 -75 29 -38 0 -52 -5 -76 -29z"/>
<path d="M23140 3654 c0 -9 7 -14 17 -12 25 5 28 28 4 28 -12 0 -21 -6 -21
-16z"/>
</g>
</svg>
