<svg xmlns="http://www.w3.org/2000/svg" width="37" height="38" fill="none"><path fill="#00C9DB" d="M30.43 12.846a29.73 29.73 0 0 0-.36-.6C25.346 4.92 18.746-.681 15.4.067a5.53 5.53 0 0 0-2.915 2.2 9.912 9.912 0 0 1 5.683 2.274c1.3.698 2.498 1.573 3.558 2.6 1.578 1.265 6.824 7.25 9.731 14.378 1.117 2.873 1.437 5.2.834 6.141l-.02.03c-.652 1.014-3.223 1.7-6.67 1.759a17.054 17.054 0 0 1-1.2 3.266c5.5.2 10.038-.77 11.319-2.8 1.787-2.736-.67-10.269-5.29-17.069Z"/><path fill="url(#a)" d="M34.465 20.18a38.085 38.085 0 0 0-.9-1.962 44.843 44.843 0 0 1-1.68 4.5c.757 2.3.919 4.132.4 4.934l-.02.03c-.143.205-.325.38-.536.514 1.297-.68 3.777-1.884 2.736-8.016Z"/><path fill="#00C9DB" d="m30.827 8.885.025.028c.832.929.793 3.768-.132 7.313-3.566 9.434-5.4 10.541-9.521 14.649-2.813 2.267-5.348 3.443-6.522 3.059l-.04-.014c-.788-.257-1.662-1.447-2.44-3.257a39.705 39.705 0 0 1-3.974-1.346c1.258 4.529 3.148 7.888 5.168 8.53 3.028 1.02 9.421-3.136 14.685-9.2 6.672-7.93 8.335-19.751 5.8-22.51-1.63-1.776-6.301-2.037-11.763-.937 1.343.864 2.639 1.8 3.88 2.805 2.407-.144 4.199.171 4.834.88Z"/><path fill="url(#b)" d="m34.022 15.177-.028-.06c.002.01.007.02.013.03l.015.03Z"/><path fill="url(#c)" d="m34.427 20.1-.014-.03.012.027.002.003Z"/><path fill="url(#d)" d="M34.413 20.066c-.1-.239-.208-.48-.318-.722.063.14.123.279.184.418.044.097.091.203.134.304Z"/><path fill="url(#e)" d="M34.466 20.191c1.493 3.547 2.119 6.712 1.641 8.7.01-.008.022-.015.03-.023.487-1.976-.177-5.151-1.673-8.686v.005l.002.004Z"/><path fill="url(#f)" d="M33.567 18.218Z"/><path fill="url(#g)" d="m34.425 20.09-.012-.024c-.043-.1-.09-.2-.133-.3.048.099.1.214.145.324Z"/><path fill="url(#h)" d="m34.425 20.09-.012-.024c-.043-.1-.09-.2-.133-.3.048.099.1.214.145.324Z"/><path fill="url(#i)" d="M34.466 20.191c1.035 6.122-1.441 7.326-2.733 8.006l.013-.011c-1.113.763-3.508 1.247-6.521 1.261a44.51 44.51 0 0 1-9.01-1.626 9.064 9.064 0 0 0 .303 1.879c8.261 2.237 17.22 1.178 19.588-.8.479-1.994-.146-5.162-1.64-8.709Z"/><path fill="url(#j)" d="M33.994 19.118a36.66 36.66 0 0 0 .013.029c-.007-.01-.007-.02-.013-.029Z"/><path fill="url(#k)" d="M33.994 19.118a36.66 36.66 0 0 0 .013.029c-.007-.01-.007-.02-.013-.029Z"/><path fill="url(#l)" d="M34.465 20.185c-.012-.029-.026-.056-.037-.085v.007l.037.078Z"/><path fill="url(#m)" d="m34.1 19.34-.073-.163c.014.029.025.057.038.086l.035.077Z"/><path fill="url(#n)" d="M32.075 27.914Z"/><path fill="url(#o)" d="M34.06 19.264c-.013-.028-.024-.057-.038-.086l-.014-.03.052.116Z"/><path fill="url(#p)" d="M34.06 19.264c-.013-.028-.024-.057-.038-.086l-.014-.03.052.116Z"/><path fill="url(#q)" d="M34.28 19.759c-.061-.139-.121-.278-.184-.418l-.035-.077c.075.165.146.33.219.495Z"/><path fill="url(#r)" d="M34.28 19.759c-.061-.139-.121-.278-.184-.418l-.035-.077c.075.165.146.33.219.495Z"/><path fill="url(#s)" d="M34.466 20.191v-.006l-.036-.085c.012.032.023.061.036.091Z"/><path fill="url(#t)" d="M34.466 20.191v-.006l-.036-.085c.012.032.023.061.036.091Z"/><path fill="url(#u)" d="m34.466 20.191-.037-.088v-.012c-.047-.109-.1-.22-.145-.332l-.219-.5-.052-.116a43.507 43.507 0 0 0-.44-.929 44.843 44.843 0 0 1-1.68 4.5c.756 2.3.918 4.132.4 4.934l-.02.03a1.292 1.292 0 0 1-.192.231 2.349 2.349 0 0 1-.331.271l-.013.011c1.288-.675 3.763-1.878 2.73-8Z"/><path fill="url(#v)" d="m34.466 20.191-.037-.088v-.012c-.047-.109-.1-.22-.145-.332l-.219-.5-.052-.116a43.507 43.507 0 0 0-.44-.929 44.843 44.843 0 0 1-1.68 4.5c.756 2.3.918 4.132.4 4.934l-.02.03a1.292 1.292 0 0 1-.192.231 2.349 2.349 0 0 1-.331.271l-.013.011c1.288-.675 3.763-1.878 2.73-8Z"/><path fill="#00C9DB" d="M34.063 19.27v-.007l-.052-.116-.011-.019c-.138-.3-.282-.6-.432-.91a44.834 44.834 0 0 1-1.68 4.5c.757 2.3.919 4.132.4 4.934l-.02.03a1.292 1.292 0 0 1-.128.164c-.019.022-.039.042-.061.064l-.077.073-.011.017a2.547 2.547 0 0 1-.238.185h-.006c-.059.04-.124.08-.191.12l-.051.029c-.065.037-.133.072-.2.107l-.07.034a5.794 5.794 0 0 1-.221.1l-.078.031c-.08.032-.161.064-.247.1h-.01c-.166.06-.347.115-.534.168-.058.016-.115.034-.175.049l-.2.049-.241.057-.182.038-.3.059-.156.028c-.129.022-.26.043-.395.062l-.088.014c-.78.108-1.566.175-2.353.2-.214.007-.432.012-.654.014.418-.496.831-1.006 1.24-1.531A36.715 36.715 0 0 0 33.43 9.929c.531.158 1.049.331 1.54.527.029-1.94-.316-3.465-1.09-4.318-1.165-1.325-3.991-1.8-7.558-1.536l-.106.009c-.206.016-.415.035-.627.056l-.178.018a29.49 29.49 0 0 0-.627.073l-.143.017c-.251.033-.505.07-.762.108l-.221.037c-.183.03-.366.06-.55.092l-.321.058-.467.09-.21.04c-2.025.414-4.02.97-5.967 1.662-.217.061-.436.124-.658.2C9.17 9.127 3.552 12.519 1.188 15.546l-.018.023A6.129 6.129 0 0 0 .184 17.3l-.006.018c-.043.129-.08.26-.108.393v.02c-.035.149-.059.3-.07.452-.106 1.774 1.572 4.142 4.309 6.5a7.343 7.343 0 0 1-.088-1.115 42.841 42.841 0 0 0 8.74 4.932 29.62 29.62 0 0 0 3.557 1.2v.005c.156.042.314.081.47.121l.172.044a40.222 40.222 0 0 1-.642-.165c.204.743.503 1.457.889 2.124.633.166 1.267.31 1.9.435-2.021 1.336-3.731 1.968-4.634 1.672l-.04-.016c-.788-.257-1.662-1.447-2.44-3.257a39.083 39.083 0 0 1-3.407-1.13l-.548-.169c1.246 4.462 3.107 7.775 5.1 8.459 1.9.567 5.412-1.556 9.042-5.109 6.4.63 12.072-.722 13.329-2.805.182-.317.316-.66.395-1.016l.03-.023c.532-2.143-.295-5.699-2.071-9.6Zm.918 10.292c.114-.052.224-.1.329-.158a8.193 8.193 0 0 1-.329.158Zm-1.271.467.166-.053a13.776 13.776 0 0 1-.732.212c.2-.05.39-.103.572-.158l-.006-.001Zm-.732.2.1-.025c-.205.053-.421.1-.64.151l.046-.01c.169-.038.338-.077.5-.117l-.006.001Zm-.674.155c-.486.1-1 .191-1.548.267l.1-.013c.511-.075 1-.16 1.452-.254h-.004Zm-2.34.369a21.113 21.113 0 0 0-.016 0h.016Zm-.028 0c-.57.063-1.167.112-1.782.145a30.86 30.86 0 0 0 1.787-.142l-.005-.003Zm-21.22-6.78A17.925 17.925 0 0 1 4.871 20.3a3.015 3.015 0 0 1-.156-.237.284.284 0 0 1-.039-.063c-.13-.2-.245-.408-.345-.624-.02-.044-.04-.087-.057-.129a2.802 2.802 0 0 1-.154-.53 1.393 1.393 0 0 1-.02-.305v-.033a1.392 1.392 0 0 1 .04-.257 1.553 1.553 0 0 1 .065-.216c.025-.068.053-.138.086-.208l.03-.059c.027-.053.055-.108.087-.163l.059-.1c.02-.034.055-.088.085-.132.03-.044.047-.072.073-.109.026-.037.075-.1.114-.154.039-.054.1-.13.155-.2l.081-.1c.044-.051.09-.1.137-.156l.07-.076c.176-.186.375-.387.592-.587l.026-.026a16.283 16.283 0 0 1 .786-.672 21.68 21.68 0 0 1 1.838-1.309 75.785 75.785 0 0 1 16.3-5.747c.439-.05.861-.084 1.268-.107a15.213 15.213 0 0 1 2.417.032h.009c.114.011.224.025.333.04h.01c.298.04.593.1.883.18h.01c.06.018.117.037.174.056l.106.035.137.056c.04.016.079.033.117.05.038.017.075.035.112.05.037.015.078.041.115.062.037.021.059.038.085.058.026.02.077.053.113.08l.063.047c.052.043.1.09.146.139l.026.027c.058.065.11.136.154.211.049.083.092.168.129.257.519 1.228.385 3.768-.417 6.839-3.028 8.015-4.806 10.018-7.8 12.957-7.93-1.016-9.606-2.499-14.198-5.204Zm12.7 6.682a35.098 35.098 0 0 1-2.213-.346l.142.027c.69.126 1.38.232 2.066.318h.005v.001Zm-4.209-.777c.329.081.655.155.98.222l.076.015a32.297 32.297 0 0 1-1.059-.243h.005l-.002.006Zm6.923 1.02c.691.037 1.37.056 2.034.056h.027a37.252 37.252 0 0 1-2.071-.056h.01Zm11.27-1.539.088-.048c.071-.04.138-.079.2-.12l.04-.026a4.626 4.626 0 0 1-.334.193l.006.001Z"/><path fill="#00C9DB" d="M33.567 18.218a44.785 44.785 0 0 1-1.68 4.5c.757 2.3.919 4.132.4 4.934l-.02.03c-.675 1.05-3.407 1.749-7.044 1.764-7.7-.794-10.371-1.867-13.494-3.679-.73-.424-1.488-.887-2.339-1.4l-.675-.4a20.244 20.244 0 0 1-3.358-3.045A4.22 4.22 0 0 1 4.1 18.417v-.038c.043-.834.957-1.991 2.49-3.217a40.56 40.56 0 0 1 .265-4.213C2.834 13.342.105 16.052 0 18.183c-.158 2.632 3.608 6.564 8.92 9.854l.014.009c.271.167.547.334.826.5l.09.054c.287.168.578.335.872.5l.036.019c.267.148.536.294.809.437l.19.1c.288.15.576.3.869.444l.114.05c9.313 4.364 21.139 2.666 22.973-.239 1.326-2.023.328-6.665-2.146-11.693Z"/><path fill="#00C9DB" d="m14.675 33.931-.038-.011c-1.183-.387-2.558-2.864-3.515-6.4-1.593-9.965-.559-11.846.978-17.482 1.311-3.38 2.922-5.675 4.13-5.936l.036-.002c.81-.174 2.157.416 3.728 1.59 1.353-.35 2.724-.63 4.106-.837-3.33-3.29-6.634-5.248-8.7-4.786C12.271.71 8.8 7.529 7.245 15.43 5.407 25.657 9.911 36.8 13.4 37.846c2.305.693 6.474-1.4 10.656-5.109a43.743 43.743 0 0 1-4.75-.47c-2.022 1.333-3.729 1.959-4.631 1.664Z"/><path fill="#00C9DB" d="M15.459.058c-2.7.654-5.49 7.4-6.6 15.286-1.238 9.812 2.757 20.651 5.641 22.648 2.39-.045 5.971-2.085 9.549-5.259a43.743 43.743 0 0 1-4.75-.47c-2.016 1.334-3.723 1.964-4.625 1.668l-.038-.012c-1.183-.387-2.558-2.864-3.515-6.4-1.593-9.965-.559-11.846.978-17.482 1.311-3.38 2.922-5.675 4.13-5.936l.037-.001c.81-.174 2.157.416 3.728 1.59 1.2-.308 2.379-.553 3.516-.738l.558-.129c-3.29-3.242-6.545-5.177-8.609-4.765Z"/><path fill="#00C9DB" d="M22.4 34.114c.546-.433 1.1-.893 1.65-1.382a43.743 43.743 0 0 1-4.75-.47c-2.016 1.334-3.723 1.964-4.625 1.668l-.039-.011a1.889 1.889 0 0 1-.631-.388c.99 1.082 2.787 3.183 8.395.583ZM24.072 4.82l-.015-.02A6.935 6.935 0 0 0 18 3.486a8.245 8.245 0 0 0-1.91.662c.048-.016.1-.034.143-.045l.037-.003c.81-.174 2.157.416 3.728 1.59 1.2-.308 2.379-.553 3.516-.738l.558-.132Z"/><defs><linearGradient id="a" x1="31.228" x2="31.984" y1="15.292" y2="21.933" gradientUnits="userSpaceOnUse"><stop stop-color="#F0584B"/><stop offset="1" stop-color="#C73F3D"/></linearGradient><linearGradient id="b" x1="32.268" x2="33.344" y1="27.637" y2="6.967" gradientUnits="userSpaceOnUse"><stop stop-color="#FCBA39"/><stop offset="1" stop-color="#D96D2D"/></linearGradient><linearGradient id="c" x1="32.725" x2="33.803" y1="31.694" y2="10.99" gradientUnits="userSpaceOnUse"><stop stop-color="#FCBA39"/><stop offset="1" stop-color="#D96D2D"/></linearGradient><linearGradient id="g" x1="32.643" x2="33.732" y1="31.829" y2="10.907" gradientUnits="userSpaceOnUse"><stop stop-color="#FCBA39"/><stop offset="1" stop-color="#D96D2D"/></linearGradient><linearGradient id="i" x1="24.953" x2="26.043" y1="31.435" y2="10.501" gradientUnits="userSpaceOnUse"><stop stop-color="#FCBA39"/><stop offset="1" stop-color="#D96D2D"/></linearGradient><linearGradient id="j" x1="32.014" x2="33.103" y1="31.798" y2="10.872" gradientUnits="userSpaceOnUse"><stop stop-color="#FCBA39"/><stop offset="1" stop-color="#D96D2D"/></linearGradient><linearGradient id="l" x1="33.004" x2="33.754" y1="15.108" y2="21.712" gradientUnits="userSpaceOnUse"><stop stop-color="#F0584B"/><stop offset="1" stop-color="#C73F3D"/></linearGradient><linearGradient id="m" x1="32.718" x2="33.472" y1="15.124" y2="21.76" gradientUnits="userSpaceOnUse"><stop stop-color="#F0584B"/><stop offset="1" stop-color="#C73F3D"/></linearGradient><linearGradient id="n" x1="29.806" x2="30.57" y1="15.318" y2="22.04" gradientUnits="userSpaceOnUse"><stop stop-color="#F0584B"/><stop offset="1" stop-color="#C73F3D"/></linearGradient><linearGradient id="o" x1="32.288" x2="33.378" y1="31.828" y2="10.878" gradientUnits="userSpaceOnUse"><stop stop-color="#FCBA39"/><stop offset="1" stop-color="#D96D2D"/></linearGradient><linearGradient id="p" x1="32.7" x2="33.453" y1="15.129" y2="21.758" gradientUnits="userSpaceOnUse"><stop stop-color="#F0584B"/><stop offset="1" stop-color="#C73F3D"/></linearGradient><linearGradient id="r" x1="32.8" x2="33.553" y1="15.115" y2="21.75" gradientUnits="userSpaceOnUse"><stop stop-color="#F0584B"/><stop offset="1" stop-color="#C73F3D"/></linearGradient><linearGradient id="t" x1="33.006" x2="33.755" y1="15.114" y2="21.708" gradientUnits="userSpaceOnUse"><stop stop-color="#F0584B"/><stop offset="1" stop-color="#C73F3D"/></linearGradient><linearGradient id="u" x1="31.75" x2="32.84" y1="31.792" y2="10.855" gradientUnits="userSpaceOnUse"><stop stop-color="#FCBA39"/><stop offset="1" stop-color="#D96D2D"/></linearGradient><radialGradient id="d" cx="0" cy="0" r="1" gradientTransform="matrix(.75 -14.67455 14.5623 .74427 17.338 20.26)" gradientUnits="userSpaceOnUse"><stop stop-color="#F9B314"/><stop offset="1" stop-color="#EC5222"/></radialGradient><radialGradient id="e" cx="0" cy="0" r="1" gradientTransform="translate(3678.7 -3931.28) scale(14.1853)" gradientUnits="userSpaceOnUse"><stop stop-color="#F9B314"/><stop offset="1" stop-color="#EC5222"/></radialGradient><radialGradient id="f" cx="0" cy="0" r="1" gradientTransform="matrix(.3527 0 0 .3527 33.775 18.665)" gradientUnits="userSpaceOnUse"><stop stop-color="#F9B314"/><stop offset="1" stop-color="#EC5222"/></radialGradient><radialGradient id="h" cx="0" cy="0" r="1" gradientTransform="translate(34.346 19.924) scale(.12525)" gradientUnits="userSpaceOnUse"><stop stop-color="#F9B314"/><stop offset="1" stop-color="#EC5222"/></radialGradient><radialGradient id="k" cx="0" cy="0" r="1" gradientTransform="matrix(.36372 0 0 .36373 33.78 18.676)" gradientUnits="userSpaceOnUse"><stop stop-color="#F9B314"/><stop offset="1" stop-color="#EC5222"/></radialGradient><radialGradient id="q" cx="0" cy="0" r="1" gradientTransform="translate(34.163 19.508) scale(.19138)" gradientUnits="userSpaceOnUse"><stop stop-color="#F9B314"/><stop offset="1" stop-color="#EC5222"/></radialGradient><radialGradient id="s" cx="0" cy="0" r="1" gradientTransform="matrix(.03407 0 0 .03407 34.442 20.142)" gradientUnits="userSpaceOnUse"><stop stop-color="#F9B314"/><stop offset="1" stop-color="#EC5222"/></radialGradient><radialGradient id="v" cx="0" cy="0" r="1" gradientTransform="translate(3678.7 -3931.28) scale(14.1893)" gradientUnits="userSpaceOnUse"><stop stop-color="#F9B314"/><stop offset="1" stop-color="#EC5222"/></radialGradient></defs></svg>