<?xml version="1.0" standalone="no"?>
<!DOCTYPE svg PUBLIC "-//W3C//DTD SVG 20010904//EN"
 "http://www.w3.org/TR/2001/REC-SVG-20010904/DTD/svg10.dtd">
<svg version="1.0" xmlns="http://www.w3.org/2000/svg"
 width="2868.000000pt" height="1452.000000pt" viewBox="0 0 2868.000000 1452.000000"
 preserveAspectRatio="xMidYMid meet">

<g transform="translate(0.000000,1452.000000) scale(0.100000,-0.100000)"
fill="#000000" stroke="none">
<path d="M27570 14289 c-80 -16 -144 -82 -160 -168 -5 -30 -10 -125 -10 -212
0 -137 2 -158 15 -153 8 4 15 12 15 20 0 8 5 14 10 14 6 0 25 10 44 22 33 22
33 22 39 118 7 139 42 199 135 232 52 18 393 18 445 0 47 -17 92 -55 115 -96
15 -27 17 -62 17 -246 0 -206 -1 -217 -23 -255 -41 -71 -110 -105 -215 -105
-40 0 -56 -3 -51 -11 3 -6 8 -29 10 -52 3 -22 7 -43 10 -46 11 -11 199 -5 242
8 57 16 107 62 129 119 16 42 18 81 18 347 l0 300 -25 49 c-33 65 -81 103
-149 116 -65 12 -547 11 -611 -1z"/>
<path d="M27730 14101 c-103 -13 -129 -47 -138 -178 -4 -75 -3 -83 14 -89 10
-3 33 -12 49 -20 33 -14 33 -14 49 58 8 34 59 94 97 114 42 21 124 18 168 -7
145 -84 121 -294 -39 -340 -57 -16 -56 -15 -36 -34 9 -9 14 -21 11 -26 -4 -5
-1 -9 4 -9 6 0 11 -10 11 -21 0 -21 4 -21 78 -17 98 7 126 20 152 74 20 40 21
57 18 228 -3 169 -5 187 -24 213 -35 47 -64 55 -218 58 -77 2 -166 0 -196 -4z
m380 -70 c20 -39 -22 -82 -60 -61 -22 12 -27 49 -8 68 18 18 56 14 68 -7z"/>
<path d="M27804 13896 c-73 -73 -27 -185 77 -186 57 0 94 26 108 76 22 78 -31
144 -115 144 -28 0 -44 -8 -70 -34z"/>
<path d="M517 13527 c-11 -17 -13 -38 -8 -82 8 -75 31 -88 31 -17 0 35 4 52
15 56 21 8 19 26 -2 26 -17 1 -17 1 0 14 22 17 22 26 -2 26 -10 0 -25 -10 -34
-23z"/>
<path d="M990 13535 c0 -8 7 -15 15 -15 8 0 15 7 15 15 0 8 -7 15 -15 15 -8 0
-15 -7 -15 -15z"/>
<path d="M1410 13467 l0 -84 44 2 c55 1 76 18 76 61 0 42 -25 67 -62 62 -24
-4 -28 -1 -28 19 0 14 -6 23 -15 23 -12 0 -15 -16 -15 -83z m85 -22 c0 -25 -4
-30 -25 -30 -16 0 -26 6 -28 18 -6 30 6 49 30 45 18 -2 23 -9 23 -33z"/>
<path d="M239 13530 c-29 -17 -43 -65 -27 -97 20 -43 59 -57 103 -39 19 8 35
22 35 30 0 20 -11 20 -36 1 -28 -21 -51 -18 -69 9 -34 52 20 98 75 64 29 -18
39 1 11 23 -25 20 -66 24 -92 9z"/>
<path d="M707 13521 c-2 -10 -2 -42 1 -70 4 -44 9 -54 29 -62 32 -12 33 -12
33 6 0 8 -7 15 -15 15 -10 0 -15 11 -15 35 0 24 5 35 15 35 8 0 15 7 15 15 0
8 -7 15 -15 15 -8 0 -15 7 -15 15 0 21 -27 19 -33 -4z"/>
<path d="M387 13497 c-26 -20 -31 -60 -9 -87 15 -18 30 -24 66 -25 l46 -2 0
62 0 62 -44 1 c-24 1 -50 -4 -59 -11z m70 -33 c8 -20 -8 -48 -30 -52 -19 -4
-39 30 -31 52 8 21 53 21 61 0z"/>
<path d="M597 13498 c-9 -7 -19 -25 -22 -40 -5 -21 -1 -33 19 -52 30 -31 46
-32 77 -8 28 24 31 79 4 98 -23 17 -56 18 -78 2z m63 -28 c0 -5 -11 -10 -25
-10 -14 0 -25 5 -25 10 0 6 11 10 25 10 14 0 25 -4 25 -10z m-5 -50 c-3 -5
-12 -10 -20 -10 -8 0 -17 5 -20 10 -4 6 5 10 20 10 15 0 24 -4 20 -10z"/>
<path d="M797 13492 c-39 -43 -2 -120 51 -107 36 9 42 16 48 55 10 59 -60 96
-99 52z m68 -22 c4 -6 -7 -10 -25 -10 -18 0 -29 4 -25 10 3 6 15 10 25 10 10
0 22 -4 25 -10z m0 -50 c-3 -5 -15 -10 -25 -10 -10 0 -22 5 -25 10 -4 6 7 10
25 10 18 0 29 -4 25 -10z"/>
<path d="M912 13447 c4 -75 28 -94 28 -22 0 38 4 48 20 52 34 9 23 31 -15 31
l-36 0 3 -61z"/>
<path d="M992 13448 c2 -38 8 -63 16 -66 9 -3 12 14 12 62 0 53 -3 66 -15 66
-13 0 -15 -11 -13 -62z"/>
<path d="M1056 13491 c-21 -23 -21 -75 0 -92 9 -7 36 -14 60 -14 l44 -2 0 62
0 62 -44 1 c-30 1 -49 -4 -60 -17z m69 -46 c0 -25 -4 -30 -25 -30 -16 0 -26 6
-28 18 -6 30 6 49 30 45 18 -2 23 -9 23 -33z"/>
<path d="M1567 13497 c-26 -20 -31 -60 -9 -87 15 -18 30 -24 66 -25 l46 -2 0
62 0 62 -44 1 c-24 1 -50 -4 -59 -11z m70 -33 c8 -20 -8 -48 -30 -52 -19 -4
-39 30 -31 52 8 21 53 21 61 0z"/>
<path d="M1692 13447 c4 -75 28 -94 28 -22 0 38 4 48 20 52 34 9 23 31 -15 31
l-36 0 3 -61z"/>
<path d="M1235 13470 c-3 -6 0 -13 8 -16 24 -9 80 0 85 14 5 15 -84 17 -93 2z"/>
<path d="M12255 12095 c-14 -13 -25 -36 -25 -50 0 -16 -6 -25 -15 -25 -9 0
-15 -9 -15 -25 0 -16 6 -25 15 -25 12 0 15 -19 15 -115 l0 -115 25 0 25 0 0
115 0 115 30 0 c25 0 30 4 30 25 0 21 -5 25 -31 25 -24 0 -30 4 -27 17 2 10
16 24 31 31 16 8 27 21 27 33 0 29 -54 26 -85 -6z"/>
<path d="M12380 11925 l0 -185 25 0 25 0 0 185 0 185 -25 0 -25 0 0 -185z"/>
<path d="M8922 12073 c-66 -32 -100 -106 -87 -189 5 -39 16 -57 49 -90 52 -53
112 -66 181 -39 41 15 95 64 95 86 0 20 -54 7 -87 -21 -38 -34 -77 -39 -123
-15 -42 22 -60 53 -60 107 0 88 38 128 120 128 33 0 48 -6 72 -30 29 -29 78
-41 78 -19 0 22 -40 67 -74 83 -43 20 -121 20 -164 -1z"/>
<path d="M10160 12055 c0 -28 -4 -35 -20 -35 -15 0 -20 -7 -20 -25 0 -18 5
-25 20 -25 19 0 20 -7 20 -94 0 -106 7 -121 65 -132 40 -7 55 0 55 27 0 12 -7
19 -19 19 -47 0 -51 8 -51 96 l0 84 35 0 c31 0 35 3 35 25 0 22 -4 25 -35 25
-33 0 -35 2 -35 35 0 31 -3 35 -25 35 -22 0 -25 -4 -25 -35z"/>
<path d="M17873 12040 c0 -30 2 -43 4 -27 2 15 2 39 0 55 -2 15 -4 2 -4 -28z"/>
<path d="M9220 11880 l0 -140 25 0 c25 0 25 0 25 94 0 90 1 96 26 115 15 12
35 21 45 21 14 0 19 7 19 25 0 28 -25 34 -63 14 -16 -9 -22 -9 -25 0 -2 6 -15
11 -28 11 l-24 0 0 -140z"/>
<path d="M9451 12007 c-45 -23 -66 -63 -66 -125 0 -99 66 -155 161 -138 39 8
94 54 94 80 0 25 -44 19 -68 -9 -28 -32 -79 -34 -110 -5 -45 42 -31 50 84 50
l107 0 -7 43 c-12 76 -58 117 -131 117 -22 0 -51 -6 -64 -13z m119 -57 c33
-33 24 -40 -55 -40 -43 0 -75 4 -75 10 0 23 41 50 75 50 22 0 43 -8 55 -20z"/>
<path d="M9723 11987 c-31 -29 -37 -41 -41 -89 -5 -66 14 -110 61 -138 38 -24
82 -25 121 -5 26 14 30 14 40 -1 7 -9 21 -15 32 -12 17 3 19 14 22 141 l3 137
-31 0 c-20 0 -30 -5 -30 -15 0 -14 -3 -14 -30 0 -51 26 -105 20 -147 -18z
m152 -42 c55 -54 14 -155 -64 -155 -30 0 -70 39 -77 74 -6 35 15 90 38 99 34
14 80 6 103 -18z"/>
<path d="M10322 11911 c3 -99 5 -112 27 -135 29 -31 79 -42 121 -27 23 7 36 7
49 -1 10 -6 26 -8 35 -5 14 5 16 26 16 142 l0 135 -30 0 -30 0 0 -95 c0 -107
-14 -135 -69 -135 -52 0 -71 38 -71 141 l0 89 -26 0 -26 0 4 -109z"/>
<path d="M10749 11953 c15 -37 40 -101 55 -140 23 -61 31 -73 51 -73 12 0 27
6 32 13 11 14 103 245 103 259 0 5 -12 8 -26 6 -24 -3 -31 -14 -62 -100 -20
-54 -39 -98 -43 -98 -3 0 -22 44 -41 98 -33 93 -36 97 -66 100 l-31 3 28 -68z"/>
<path d="M11081 12007 c-45 -23 -66 -63 -66 -125 0 -99 66 -155 161 -138 39 8
94 54 94 80 0 25 -44 19 -68 -9 -28 -32 -79 -34 -110 -5 -45 42 -31 50 84 50
l107 0 -7 43 c-12 76 -58 117 -131 117 -22 0 -51 -6 -64 -13z m119 -57 c33
-33 24 -40 -55 -40 -43 0 -75 4 -75 10 0 23 41 50 75 50 22 0 43 -8 55 -20z"/>
<path d="M11322 11883 l3 -138 25 0 c25 0 25 2 30 95 3 52 8 100 13 107 4 6
21 14 37 18 23 5 30 12 30 31 0 18 -5 24 -23 24 -13 0 -29 -6 -36 -12 -11 -10
-14 -10 -18 0 -3 6 -18 12 -34 12 l-30 0 3 -137z"/>
<path d="M11486 11973 c66 -220 70 -228 96 -231 24 -3 27 2 53 87 16 50 31 91
35 91 3 0 19 -40 33 -90 25 -82 30 -90 52 -90 23 0 27 10 66 133 23 72 43 135
46 140 2 4 -9 7 -25 7 -28 0 -30 -3 -52 -87 -12 -49 -26 -92 -30 -96 -4 -5
-16 17 -25 50 -40 141 -36 133 -67 133 -15 0 -28 -5 -28 -11 0 -28 -53 -180
-60 -173 -4 5 -18 48 -30 97 -22 83 -24 87 -51 87 l-28 0 15 -47z"/>
<path d="M11951 12007 c-62 -32 -89 -131 -53 -197 33 -61 111 -86 172 -55 25
13 29 13 34 -1 4 -9 15 -14 28 -12 22 3 23 6 26 141 l3 137 -31 0 c-20 0 -30
-5 -30 -16 0 -14 -2 -14 -22 0 -27 19 -94 21 -127 3z m128 -63 c47 -60 11
-154 -59 -154 -71 0 -109 103 -58 157 31 33 90 32 117 -3z"/>
<path d="M12516 11888 l55 -133 -20 -50 c-10 -27 -22 -58 -26 -67 -6 -15 -2
-18 21 -18 28 0 31 6 107 193 42 105 77 195 77 200 0 4 -11 7 -24 7 -22 0 -29
-11 -61 -95 -21 -52 -40 -95 -44 -95 -3 0 -22 42 -42 93 -33 87 -36 92 -66 95
l-32 3 55 -133z"/>
<path d="M17884 11930 c2 -30 13 -96 24 -146 19 -85 30 -150 53 -324 10 -81
14 -115 29 -290 12 -144 12 -328 0 -444 -6 -56 -6 -96 0 -107 7 -13 5 -27 -9
-51 -10 -18 -24 -64 -31 -103 -20 -110 -66 -265 -121 -408 -121 -312 -174
-544 -209 -917 -6 -63 -13 -133 -15 -155 -9 -89 -34 -406 -39 -490 -7 -118
-27 -233 -80 -467 -25 -106 -65 -287 -91 -403 -45 -206 -143 -621 -170 -720
-32 -114 -116 -393 -205 -680 -98 -316 -143 -496 -191 -760 -17 -94 -17 -213
0 -310 20 -111 18 -506 -3 -635 -34 -214 -90 -349 -175 -424 -13 -12 -29 -27
-37 -33 -7 -7 -20 -13 -28 -13 -9 0 -16 -4 -16 -9 0 -4 -30 -16 -66 -26 -56
-15 -74 -16 -119 -6 -29 7 -61 18 -71 26 -11 8 -26 15 -34 15 -9 0 -22 9 -30
20 -8 11 -19 20 -25 20 -15 0 -105 138 -105 159 0 10 -3 20 -6 24 -18 17 -55
153 -73 265 -35 214 -41 339 -42 852 0 491 -6 650 -31 910 -20 216 -11 1095
14 1243 9 55 8 109 -5 272 -10 112 -24 241 -32 287 -21 127 -37 316 -30 383 3
33 10 152 15 264 l9 203 -29 112 c-16 61 -47 174 -70 251 -23 77 -44 151 -47
165 -17 90 -133 347 -209 467 -19 28 -34 55 -34 58 0 4 -8 19 -19 33 -38 55
-104 220 -132 328 -38 150 -53 348 -45 605 3 112 7 224 10 249 2 25 2 34 0 20
-11 -58 -15 -71 -23 -65 -5 2 -12 -6 -15 -20 -4 -14 -11 -25 -17 -25 -6 0 -8
-9 -4 -20 5 -16 2 -20 -15 -20 -12 0 -18 -4 -15 -10 3 -5 1 -19 -6 -31 -6 -12
-14 -17 -18 -12 -3 6 -17 14 -30 18 -21 6 -23 5 -16 -11 17 -43 17 -54 1 -54
-9 0 -21 11 -26 25 -13 33 -15 32 -18 -11 -2 -35 -21 -64 -41 -64 -6 0 -11
-12 -11 -28 0 -29 -25 -58 -56 -64 -9 -1 -19 -14 -21 -27 -2 -17 1 -22 12 -17
8 3 15 0 15 -5 0 -6 -9 -9 -20 -6 -11 3 -23 1 -26 -4 -3 -5 -10 -6 -16 -3 -7
5 -5 12 7 20 21 16 16 27 -8 18 -9 -3 -17 -15 -19 -27 -2 -13 -17 -29 -36 -39
-18 -9 -29 -18 -25 -21 18 -11 7 -62 -16 -72 -18 -8 -21 -16 -17 -38 5 -26 4
-27 -10 -13 -21 22 -23 20 -19 -14 3 -21 0 -30 -10 -30 -8 0 -15 -4 -15 -10 0
-5 5 -10 11 -10 5 0 -1 -10 -15 -23 -17 -16 -28 -42 -36 -87 -7 -36 -17 -75
-22 -86 -6 -12 -7 -35 -3 -52 3 -16 2 -33 -3 -36 -17 -10 -2 -223 18 -251 4
-5 13 -31 21 -57 7 -27 17 -48 21 -48 4 0 8 -9 8 -21 0 -11 9 -32 20 -46 11
-14 20 -33 20 -43 0 -9 3 -20 7 -24 4 -3 7 -14 8 -24 1 -9 30 -60 65 -111 88
-132 130 -260 137 -423 3 -73 2 -118 -4 -118 -13 0 -36 -97 -37 -155 -1 -25
-5 -45 -9 -45 -5 0 -7 -12 -6 -27 5 -68 -1 -105 -16 -99 -8 3 -15 1 -15 -4 0
-6 7 -10 16 -10 13 0 14 -3 5 -14 -9 -10 -9 -16 -1 -21 8 -5 8 -11 0 -20 -6
-7 -7 -20 -4 -30 4 -10 1 -20 -6 -25 -8 -5 -14 -33 -16 -67 -6 -87 -13 -143
-24 -193 -6 -25 -17 -78 -25 -119 -8 -40 -17 -81 -20 -91 -6 -19 3 -52 14 -46
7 5 5 -212 -3 -269 -8 -59 -21 -125 -34 -170 -6 -22 -13 -58 -17 -80 -3 -22
-11 -74 -19 -115 -18 -96 -30 -176 -61 -380 -48 -319 -54 -366 -60 -440 -4
-41 -13 -111 -21 -155 -9 -44 -17 -134 -19 -199 -4 -83 -9 -126 -20 -142 -21
-32 -53 -186 -52 -245 1 -27 -2 -49 -6 -49 -9 0 -7 -289 2 -305 10 -17 9 -95
-1 -95 -6 0 -8 -20 -6 -45 2 -25 -1 -47 -7 -49 -7 -3 -6 -7 0 -13 14 -10 17
-51 4 -58 -5 -4 -9 -11 -9 -18 0 -8 3 -8 12 1 17 17 28 15 28 -7 0 -24 16 -36
23 -19 3 7 6 3 6 -9 1 -16 -3 -21 -14 -17 -20 8 -19 -10 1 -27 12 -10 14 -23
9 -58 -4 -25 -13 -53 -20 -61 -7 -8 -16 -28 -20 -45 -4 -16 -14 -46 -23 -65
-24 -51 -22 -168 3 -186 10 -8 13 -14 7 -14 -10 0 -10 -5 -1 -21 7 -15 8 -24
1 -28 -7 -4 -6 -25 4 -61 13 -49 14 -90 12 -290 0 -25 3 -60 7 -77 5 -23 4
-33 -4 -33 -7 0 -9 -5 -6 -10 4 -6 10 -8 13 -6 4 2 5 -111 2 -252 -4 -232 -5
-1011 -1 -1122 1 -25 -1 -139 -3 -253 -3 -115 -1 -219 4 -232 6 -15 4 -86 -6
-192 -8 -92 -16 -288 -17 -435 -2 -147 -6 -270 -9 -273 -12 -13 -29 65 -39
180 -10 121 -12 162 -24 473 -4 95 -11 175 -16 178 -5 3 -9 -61 -9 -145 0 -94
-4 -151 -10 -151 -5 0 -11 10 -11 23 -1 12 -3 29 -4 37 -1 8 -3 47 -4 85 l-2
70 -15 -45 c-13 -40 -13 -58 2 -160 8 -63 21 -135 26 -160 6 -25 12 -92 13
-150 1 -58 0 -79 -2 -48 -5 72 -23 77 -23 6 0 -45 -9 -87 -41 -194 -5 -17 -9
-39 -9 -50 0 -59 -64 -239 -82 -228 -4 3 -8 -2 -8 -11 0 -8 -16 -30 -35 -48
-19 -17 -35 -37 -35 -42 0 -6 -9 -17 -20 -25 -11 -8 -20 -20 -20 -27 0 -7 -4
-13 -10 -13 -5 0 -10 -7 -10 -16 0 -8 -4 -12 -10 -9 -5 3 -10 1 -10 -5 0 -16
-32 -83 -43 -91 -4 -3 -12 -36 -18 -73 -11 -82 6 -130 67 -192 l39 -38 7 69
c26 285 25 281 87 410 16 33 37 77 46 98 43 98 55 121 55 106 0 -18 -16 -69
-35 -114 -120 -277 -164 -539 -115 -684 21 -64 20 -101 -2 -43 -7 18 -15 32
-19 32 -4 0 -10 24 -15 53 l-7 52 -24 -52 c-13 -28 -28 -80 -34 -115 -6 -35
-16 -74 -22 -86 -7 -15 -11 -87 -12 -195 0 -140 3 -172 14 -172 20 0 40 36 24
42 -7 3 -13 9 -13 14 0 6 4 8 9 5 14 -9 39 27 47 68 7 38 6 39 -19 33 -22 -6
-25 -4 -23 18 1 26 16 36 16 10 0 -19 7 -19 25 -1 8 7 10 17 6 22 -12 13 -22
166 -10 159 5 -4 9 -19 9 -35 0 -16 5 -32 10 -35 6 -4 10 7 9 27 0 28 4 75 9
101 1 4 7 7 12 7 6 0 10 -20 10 -44 0 -25 4 -48 10 -51 6 -3 7 1 4 10 -7 17
14 48 27 39 5 -3 9 -21 9 -41 0 -26 5 -36 20 -40 22 -6 28 -23 8 -23 -6 0 -3
-6 8 -14 18 -14 18 -15 0 -29 -23 -17 -32 -77 -11 -77 8 0 15 -9 15 -20 0 -11
-4 -20 -9 -20 -10 0 -20 -29 -27 -73 -6 -45 16 -58 88 -55 l63 3 -3 45 c-2 25
-8 50 -12 55 -5 6 -5 16 -1 24 15 24 41 -16 41 -65 0 -33 4 -44 16 -44 8 0 12
-4 9 -10 -4 -7 142 -10 432 -10 l438 0 12 26 c15 32 7 54 -21 55 -11 0 -16 3
-9 5 7 3 9 13 6 21 -6 15 -4 15 17 0 15 -10 33 -14 48 -10 17 4 23 2 18 -6 -4
-6 -1 -11 8 -11 10 0 13 -6 10 -15 -4 -9 -1 -15 7 -15 10 0 10 -3 1 -12 -33
-33 -15 -38 147 -38 94 0 161 4 163 10 2 5 14 11 28 13 16 3 26 11 28 25 3 19
-1 22 -30 21 -23 -1 -26 -3 -10 -6 12 -2 22 -9 22 -14 0 -17 -45 -4 -54 16 -5
11 -8 23 -8 28 1 4 -8 7 -20 8 -22 0 -22 1 -3 8 22 9 48 3 40 -9 -8 -13 31
-18 67 -10 28 7 29 8 8 9 -18 1 -26 7 -26 20 0 17 2 18 20 5 29 -20 36 -18 36
10 0 14 -10 30 -25 40 -24 16 -26 16 -35 -8 -5 -13 -14 -27 -21 -32 -9 -5 -10
-2 -6 9 17 42 20 52 12 45 -4 -4 -16 -3 -26 3 -20 10 -27 59 -8 59 8 0 7 5 -1
15 -11 13 -10 14 4 9 11 -4 16 -1 16 14 0 17 -5 20 -30 17 -17 -2 -35 -7 -40
-10 -6 -3 -10 -1 -10 4 0 6 -5 11 -10 11 -6 0 -9 -4 -8 -9 2 -5 -1 -9 -7 -10
-5 -1 -10 4 -10 9 0 6 -4 10 -10 9 -5 -1 -9 -5 -8 -9 3 -10 -45 -23 -57 -15
-4 3 -6 14 -3 25 3 11 0 26 -6 34 -10 11 -8 17 6 26 13 8 14 13 6 16 -7 3 -13
22 -12 42 0 30 2 33 9 17 8 -19 9 -19 9 -1 1 11 8 28 18 38 11 13 12 18 3 18
-7 0 -18 -7 -24 -15 -8 -10 -16 -12 -26 -5 -13 8 -12 11 5 25 16 13 17 16 3
11 -24 -7 -27 -1 -43 87 -5 27 -5 27 49 27 31 0 58 5 62 12 5 8 2 9 -9 5 -19
-7 -33 9 -15 17 9 3 8 8 -4 16 -22 14 -22 24 -1 56 12 19 18 22 24 12 7 -10 9
-8 9 6 0 12 5 16 15 12 9 -3 15 0 15 9 0 8 -4 15 -10 15 -5 0 -7 7 -4 15 4 9
0 15 -10 15 -9 0 -13 6 -10 14 3 8 1 17 -5 21 -6 3 -11 21 -11 39 0 28 4 34
25 38 16 4 25 0 28 -11 3 -9 5 -4 6 11 1 18 -3 26 -11 23 -9 -4 -13 6 -13 31
0 31 -4 38 -23 40 -13 3 -25 -2 -28 -11 -4 -8 -10 -12 -15 -9 -5 3 -9 -4 -9
-16 0 -12 5 -18 10 -15 6 3 10 -4 10 -17 0 -13 3 -33 6 -45 5 -17 2 -23 -9
-23 -8 0 -17 6 -20 13 -7 19 -67 20 -67 1 0 -8 6 -14 14 -14 8 0 32 -16 53
-35 21 -19 32 -35 26 -35 -7 0 -13 -7 -13 -15 0 -8 -6 -15 -14 -15 -9 0 -12
-7 -9 -20 3 -11 1 -20 -5 -20 -13 0 -20 -41 -12 -66 4 -10 2 -22 -4 -26 -17
-11 -46 -9 -46 3 0 5 5 7 12 3 8 -5 9 -2 5 9 -3 9 -2 19 4 23 5 3 7 15 3 27
-9 31 -11 31 -30 13 -10 -11 -23 -14 -33 -10 -9 4 -26 8 -38 8 -13 1 -23 6
-23 12 0 6 10 10 21 10 32 -1 34 21 4 28 -21 5 -24 10 -15 21 7 8 7 15 1 19
-16 10 -43 -54 -30 -70 6 -8 9 -21 5 -29 -4 -12 1 -14 24 -10 25 4 32 1 42
-20 6 -14 17 -25 25 -25 9 0 13 -13 13 -42 -1 -36 -3 -41 -13 -27 -7 9 -21 18
-32 20 -12 3 -21 14 -23 27 -4 27 -10 28 -28 5 -12 -16 -13 -14 -8 15 6 27 4
32 -14 32 -11 0 -25 7 -32 15 -9 11 -16 12 -26 4 -16 -13 -34 -4 -34 17 0 17
16 19 23 2 3 -7 6 -2 6 10 1 15 -6 26 -18 29 -28 7 -20 35 23 81 29 30 43 39
52 31 9 -7 14 -4 19 11 5 15 12 19 23 14 10 -3 26 -7 37 -9 11 -1 20 -8 21
-16 3 -41 4 -43 15 -32 7 7 9 22 4 40 -12 42 -11 123 0 124 6 1 13 1 18 0 4 0
7 6 7 14 0 23 -47 19 -60 -5 -6 -11 -8 -25 -5 -30 3 -6 2 -10 -3 -10 -6 0 -9
-6 -8 -12 0 -7 -3 -14 -9 -14 -5 -1 -9 2 -7 7 1 5 -2 9 -8 9 -5 0 -10 7 -10
15 0 8 4 15 10 15 16 0 23 46 10 69 -13 24 -30 28 -30 6 0 -8 -3 -14 -7 -13
-5 0 -16 -2 -26 -7 -26 -11 -35 4 -13 21 25 18 31 76 11 114 -9 17 -11 30 -5
30 16 0 12 27 -6 34 -9 3 -14 13 -10 21 3 8 1 17 -4 20 -6 4 -10 1 -10 -5 0
-7 -7 -10 -15 -6 -8 3 -15 1 -15 -4 0 -6 -6 -10 -13 -10 -7 0 -14 13 -15 30
-3 33 8 39 28 15 13 -16 31 -11 29 8 -4 36 2 77 11 72 6 -4 8 -16 4 -27 -5
-17 -3 -20 11 -15 9 4 19 7 21 7 2 0 4 7 4 15 0 8 -5 15 -11 15 -5 0 -7 5 -4
10 12 20 25 10 25 -19 0 -17 4 -32 9 -35 5 -4 7 3 4 14 -8 29 5 70 22 70 8 0
15 -4 15 -10 0 -5 -5 -10 -11 -10 -7 0 0 -11 15 -25 14 -13 26 -28 26 -33 0
-18 27 -20 58 -5 l32 15 -44 30 c-46 30 -62 53 -45 63 5 4 7 11 4 16 -4 5 1
12 9 15 9 3 13 10 10 16 -3 5 -12 7 -19 4 -7 -2 -21 2 -32 9 -16 13 -14 14 22
10 l40 -5 -35 11 c-19 6 -42 14 -50 16 -8 3 -23 7 -32 8 -26 2 -35 15 -19 24
11 7 9 11 -5 20 -11 6 -14 11 -6 11 8 0 11 7 8 18 -4 10 1 27 9 38 13 16 16
17 25 4 7 -11 10 -11 10 -2 0 7 4 11 10 7 5 -3 7 -12 4 -20 -4 -9 4 -15 23
-18 l28 -4 -27 -2 c-16 0 -28 -6 -28 -12 0 -7 9 -9 21 -6 15 4 22 -1 29 -17 9
-25 36 -41 45 -26 3 5 1 12 -5 15 -6 4 -10 14 -9 23 4 42 -1 52 -26 52 -30 0
-33 16 -5 23 15 4 20 14 20 41 0 35 12 47 25 26 3 -5 16 -10 27 -10 23 0 47
-26 48 -51 0 -17 47 -32 65 -21 23 15 47 8 58 -17 6 -14 16 -29 22 -33 17 -13
45 -9 45 7 0 31 37 14 70 -32 19 -27 34 -51 35 -55 0 -3 4 -10 9 -15 5 -4 7 4
4 20 -4 19 -1 27 9 27 11 0 14 -9 9 -39 -4 -30 -1 -41 11 -45 12 -5 14 -1 10
14 -7 26 11 25 43 -2 16 -14 21 -22 13 -25 -18 -7 -16 -20 5 -27 42 -14 77
-44 77 -65 0 -25 21 -42 43 -33 12 4 14 -1 9 -26 -6 -32 -1 -37 31 -33 8 1 16
-7 19 -18 3 -12 9 -18 14 -15 12 7 37 -18 49 -50 10 -27 4 -56 -11 -56 -5 0
-9 -4 -9 -10 0 -6 9 -6 23 -1 12 5 22 17 22 27 0 37 30 21 33 -18 2 -21 8 -38
14 -38 6 0 26 -11 45 -26 25 -19 33 -33 34 -57 0 -18 3 -26 6 -19 8 20 19 14
21 -14 3 -33 10 -44 29 -44 19 0 57 -40 79 -82 22 -42 45 -65 69 -70 12 -2 21
-13 23 -26 2 -12 8 -22 13 -22 5 0 18 -20 30 -45 12 -25 25 -45 31 -45 5 0 15
-15 23 -32 8 -18 14 -27 15 -20 0 22 36 -4 50 -38 7 -18 20 -30 31 -30 10 0
20 -8 24 -19 3 -10 14 -26 25 -36 11 -10 20 -26 20 -36 0 -12 5 -16 15 -13 9
4 15 1 15 -7 0 -8 10 -30 22 -49 12 -19 22 -39 23 -45 0 -5 12 -16 28 -23 23
-11 26 -17 21 -40 -4 -15 -11 -29 -16 -30 -16 -7 -8 -21 12 -19 11 1 21 8 21
17 1 8 5 2 9 -15 7 -27 8 -28 9 -6 l1 25 23 -24 c12 -14 21 -28 19 -32 -1 -5
5 -8 13 -8 8 0 21 -15 30 -32 8 -18 19 -40 24 -48 13 -21 24 -52 25 -74 1 -25
23 -32 29 -9 4 14 5 13 6 -4 l1 -23 530 0 c496 0 531 1 537 17 3 10 22 33 40
51 32 32 32 34 13 39 -16 4 -18 8 -9 20 7 7 21 12 33 11 18 -3 20 2 18 42 -2
37 2 50 25 75 15 17 34 42 42 57 8 15 19 24 27 21 8 -3 14 1 14 11 0 9 8 16
20 16 15 0 20 -7 20 -25 0 -20 5 -25 25 -25 30 0 31 5 5 54 -20 41 -18 61 6
52 8 -3 14 -1 14 4 0 5 7 7 16 3 14 -5 15 -3 5 15 -11 21 -8 26 12 23 14 -2
37 27 37 48 0 13 7 21 18 21 19 0 62 41 62 60 0 16 58 70 76 70 8 0 14 -7 14
-15 0 -8 5 -15 10 -15 6 0 10 -7 10 -15 0 -8 5 -15 10 -15 6 0 10 -9 10 -20 0
-17 -4 -18 -25 -10 -29 11 -32 4 -8 -22 12 -14 13 -18 3 -18 -8 0 -26 -12 -42
-27 -27 -25 -28 -26 -47 -9 -11 10 -25 15 -31 11 -9 -6 -9 -10 1 -17 10 -6 7
-7 -8 -3 -18 5 -23 2 -23 -11 0 -10 -7 -25 -16 -35 -12 -14 -14 -26 -7 -60 9
-44 26 -61 36 -36 3 8 -3 24 -14 36 -18 19 -18 24 -6 47 23 44 104 43 86 -1
-5 -13 -8 -15 -8 -5 -1 13 -3 13 -10 0 -13 -19 -5 -29 19 -23 14 4 20 14 20
33 0 16 7 30 15 34 9 3 15 14 13 23 -2 12 3 18 17 18 13 0 20 -6 19 -17 -1
-12 6 -18 22 -19 13 -1 29 -2 36 -3 6 -1 13 5 16 12 2 6 -3 12 -12 12 -20 0
-21 29 -1 36 34 13 43 -2 32 -51 -9 -41 -14 -46 -34 -42 -12 2 -20 0 -17 -4 3
-5 11 -9 19 -9 8 0 17 -5 21 -12 5 -8 2 -9 -11 -5 -9 4 -23 3 -29 -2 -6 -5
-20 -11 -31 -15 -11 -3 4 -4 33 -2 51 3 52 2 50 -22 -4 -37 16 -37 29 -1 11
27 15 30 28 19 17 -14 20 -30 6 -30 -5 0 -12 8 -15 18 -2 9 -2 1 0 -19 9 -59
10 -147 2 -142 -5 2 -8 17 -8 34 0 24 -4 29 -23 29 -13 0 -28 -5 -35 -12 -9
-9 -12 -8 -12 4 0 9 -6 19 -12 21 -7 3 3 6 22 7 19 1 28 4 20 7 -8 4 -20 13
-27 22 -11 14 -12 14 -13 -1 0 -11 -8 -18 -18 -18 -10 0 -25 -13 -34 -28 l-17
-29 49 -13 c27 -7 47 -17 44 -22 -3 -4 1 -8 9 -8 17 0 30 -37 16 -46 -5 -3
-13 6 -18 19 -5 13 -19 27 -30 30 -22 5 -29 -7 -11 -18 6 -3 10 -11 10 -16 0
-6 -4 -7 -10 -4 -5 3 -10 1 -10 -4 0 -6 -9 -20 -21 -32 -15 -15 -29 -20 -49
-16 -36 8 -47 -23 -19 -49 19 -17 19 -18 -4 -38 l-24 -21 74 -2 c63 -2 74 0
69 12 -3 9 0 15 9 15 9 0 12 -6 9 -15 -5 -13 8 -15 85 -15 l91 0 0 31 c0 26 3
30 23 27 12 -2 22 -8 22 -15 0 -6 3 -15 8 -19 4 -4 7 1 7 12 1 18 1 18 11 2 5
-10 17 -18 24 -18 8 0 15 -4 15 -10 0 -6 83 -10 230 -10 l230 0 0 63 c0 35 -4
88 -9 118 -5 30 -15 97 -21 149 -27 222 -78 447 -154 686 -42 132 -80 250 -85
264 -4 14 -13 24 -19 22 -7 -1 -12 7 -12 18 0 30 -14 25 -54 -20 -34 -38 -36
-45 -35 -101 1 -42 -2 -64 -11 -69 -10 -6 -11 -12 -3 -22 12 -14 13 -98 1 -98
-4 0 -5 -7 -2 -15 5 -12 10 -13 19 -5 9 7 12 29 10 63 -3 45 -3 48 6 22 5 -16
12 -61 14 -100 3 -38 7 -83 10 -100 6 -29 5 -29 -10 -10 -9 11 -15 32 -12 48
2 15 -1 27 -6 27 -5 0 -7 6 -4 13 3 8 -3 14 -14 14 -11 1 -17 -3 -13 -9 4 -6
0 -15 -7 -20 -10 -7 -8 -8 9 -5 14 3 22 0 22 -8 0 -7 -10 -16 -22 -20 -14 -4
-18 -8 -10 -12 6 -2 12 -16 12 -29 0 -25 14 -32 24 -11 3 6 4 3 3 -8 -2 -14
-9 -19 -25 -18 -19 2 -21 -1 -18 -29 3 -22 -2 -37 -13 -45 -15 -11 -14 -12 2
-13 18 0 18 -1 1 -17 -17 -17 -17 -18 0 -21 15 -3 15 -6 -4 -22 -15 -13 -20
-25 -16 -38 4 -13 1 -22 -9 -26 -12 -4 -14 -10 -5 -25 14 -27 13 -31 -11 -31
-19 0 -20 5 -17 63 1 34 7 65 12 69 6 4 9 36 8 72 -2 57 0 66 18 76 11 6 18
16 14 22 -11 18 -11 222 0 237 6 7 9 28 7 47 -1 19 2 34 8 34 6 0 11 8 10 18
0 10 -3 12 -6 5 -6 -15 -23 -17 -23 -4 0 16 61 102 107 150 24 24 43 48 43 53
0 4 3 8 8 8 10 0 39 57 51 103 9 37 2 153 -18 288 -5 35 -9 71 -10 79 -2 68
-3 152 -3 315 -1 520 2 606 29 718 15 65 15 79 -6 270 -31 286 -19 490 36 604
20 41 22 125 4 147 -6 7 -8 16 -4 19 3 4 1 13 -5 20 -7 8 -9 17 -5 20 3 4 -3
17 -14 30 -12 12 -22 33 -22 47 0 14 -4 52 -9 85 -5 33 -10 191 -11 350 -1
160 -4 319 -6 355 -3 36 -5 119 -5 185 0 66 0 127 -1 135 -1 22 -2 184 0 275
0 44 -3 81 -8 83 -5 2 -7 24 -5 50 3 39 2 42 -5 17 -8 -29 -9 -29 -11 -5 -1
14 -3 37 -5 52 -2 15 1 30 6 33 14 9 11 25 -6 25 -17 0 -21 26 -5 32 6 2 4 39
-5 102 -8 55 -15 114 -15 133 0 18 -3 33 -7 33 -5 0 -9 48 -10 106 -1 59 -5
110 -10 113 -4 3 -10 51 -11 106 -2 55 -7 105 -12 110 -4 6 -8 40 -9 78 0 37
-7 97 -15 135 -16 72 -24 164 -31 337 -5 115 -7 133 -17 150 -3 6 -6 30 -5 55
0 24 -5 46 -12 48 -6 2 -11 28 -12 60 0 41 -3 51 -9 37 -7 -16 -9 -12 -10 20
-2 22 -2 44 -1 49 2 7 -27 77 -49 118 -5 9 -8 57 -5 105 4 89 -17 275 -27 238
-4 -13 -6 -7 -6 15 0 19 -2 54 -5 78 -3 23 -2 42 3 42 5 0 7 14 5 30 -2 17 0
30 5 30 14 0 7 79 -7 84 -7 3 -13 15 -13 26 0 11 -4 20 -10 20 -12 0 -50 73
-50 95 0 9 -4 13 -10 10 -5 -3 -10 -1 -10 4 0 6 -13 38 -30 72 -16 34 -27 65
-25 69 3 4 -2 11 -11 14 -8 3 -13 10 -9 16 7 11 -10 158 -31 255 -8 39 -21
124 -29 190 -16 124 -24 177 -45 280 -16 79 -9 164 15 198 11 14 24 27 29 27
5 0 0 -10 -12 -23 -35 -37 -30 -133 13 -287 19 -69 33 -107 31 -85 -9 83 9 77
28 -10 10 -47 23 -85 27 -85 5 0 9 -10 9 -22 0 -42 29 28 60 146 15 61 36 129
45 151 22 51 94 158 142 211 74 80 108 127 144 202 40 84 40 116 0 62 -53 -70
-112 -120 -142 -120 -16 0 -29 3 -29 6 0 3 19 25 43 48 105 105 160 227 151
331 -3 33 -13 82 -21 108 -8 27 -13 51 -9 54 3 3 -2 12 -10 20 -8 9 -13 22
-10 29 3 7 1 16 -4 19 -6 4 -10 18 -10 32 0 15 -9 45 -19 67 -11 23 -26 62
-35 88 -21 65 -37 87 -55 81 -14 -4 -14 -3 -1 5 12 9 12 14 1 36 -8 13 -11 31
-8 39 3 9 -1 18 -9 21 -8 3 -14 11 -14 19 0 19 -57 51 -64 35 -3 -7 -3 -3 0 9
4 17 2 21 -9 17 -18 -7 -31 24 -17 41 15 19 -7 30 -26 14 -8 -6 -17 -9 -21 -5
-3 3 -1 6 5 6 7 0 12 5 12 10 0 6 -7 10 -15 10 -8 0 -15 7 -15 16 0 9 -10 26
-22 37 -16 13 -19 21 -10 24 6 3 12 10 12 16 0 8 -4 7 -12 -1 -19 -19 -47 -15
-41 7 2 10 -3 25 -11 34 -9 8 -16 20 -16 26 0 6 -7 11 -15 11 -8 0 -15 9 -15
21 0 11 -4 17 -10 14 -5 -3 -10 3 -10 13 0 11 -7 22 -15 26 -8 3 -12 12 -9 21
3 8 1 15 -5 15 -6 0 -11 6 -11 13 0 7 -11 23 -25 35 -14 12 -39 45 -56 72 -17
28 -35 50 -39 50 -5 0 -15 12 -23 28 -7 15 -19 26 -25 25 -7 -2 -12 4 -12 12
0 8 -3 15 -8 15 -4 0 -13 13 -20 29 -7 16 -23 40 -36 54 -13 14 -26 36 -29 49
-4 14 -26 46 -49 73 -23 26 -44 57 -45 69 -2 11 -10 24 -18 29 -8 4 -15 15
-15 23 0 9 -7 14 -17 12 -13 -2 -17 3 -15 15 2 12 -4 21 -18 24 -14 4 -19 11
-15 20 4 11 1 13 -11 9 -17 -6 -56 25 -67 54 -4 12 -6 11 -6 -3 -1 -10 -5 -16
-11 -12 -5 3 -7 11 -4 19 6 15 -62 109 -134 186 -45 47 -53 53 -62 38 -7 -11
-24 -16 -55 -16 -42 0 -45 2 -45 26 0 46 -11 16 -12 -34 -1 -57 -16 -78 -41
-59 -9 7 -17 16 -17 20 0 5 -7 16 -15 25 -8 9 -19 34 -24 56 -10 38 -10 38 -7
-16z m643 -542 c-3 -7 -5 -2 -5 12 0 14 2 19 5 13 2 -7 2 -19 0 -25z m-3237
-373 c0 -8 -2 -15 -4 -15 -2 0 -6 7 -10 15 -3 8 -1 15 4 15 6 0 10 -7 10 -15z
m3045 -426 c25 -12 66 -49 109 -100 59 -69 67 -83 55 -95 -12 -12 -25 -9 -89
20 -84 39 -85 39 -193 76 -104 36 -109 42 -68 84 47 49 103 53 186 15z m595
-1149 c0 -5 -5 -10 -11 -10 -5 0 -7 5 -4 10 3 6 8 10 11 10 2 0 4 -4 4 -10z
m-3863 -472 c-2 -13 -4 -5 -4 17 -1 22 1 32 4 23 2 -10 2 -28 0 -40z m3109
-311 c52 -12 67 -12 93 -1 35 15 68 7 91 -21 12 -15 12 -19 -4 -30 -10 -8 -15
-18 -11 -24 3 -6 0 -11 -8 -11 -17 0 -27 -21 -27 -55 0 -25 40 -46 111 -59 30
-5 88 -51 77 -61 -6 -6 -214 14 -263 25 -32 7 -93 9 -169 4 -95 -5 -120 -4
-127 7 -6 10 -9 11 -9 2 0 -7 -9 -13 -20 -13 -11 0 -20 6 -21 13 0 10 -2 10
-6 0 -2 -7 -14 -13 -26 -12 -21 0 -21 1 -2 9 19 8 19 9 -2 9 -13 1 -23 -3 -23
-8 0 -11 -81 -4 -117 10 -18 7 -22 14 -17 36 3 15 11 60 17 98 18 100 31 105
242 100 88 -2 188 -10 221 -18z m-2961 -104 c-5 -10 -7 -24 -6 -31 1 -8 -5
-12 -16 -10 -11 2 -17 -2 -15 -11 5 -22 -9 -51 -24 -51 -8 0 -14 -5 -14 -10 0
-6 -10 -24 -22 -41 -20 -26 -23 -28 -30 -12 -5 15 -7 14 -7 -5 -1 -14 -5 -21
-12 -16 -15 9 -5 52 31 130 35 74 56 100 85 106 24 5 41 -23 30 -49z m-168
-165 c-3 -8 -6 -5 -6 6 -1 11 2 17 5 13 3 -3 4 -12 1 -19z m4090 -630 c-3 -8
-6 -5 -6 6 -1 11 2 17 5 13 3 -3 4 -12 1 -19z m-584 -180 c3 -13 9 -57 13 -99
5 -64 4 -78 -11 -93 -20 -19 -33 -12 -38 21 -2 13 -6 26 -10 29 -14 14 -7 115
9 139 20 31 30 32 37 3z m-183 -38 c0 -5 11 -10 24 -10 19 0 25 -7 30 -34 4
-18 2 -44 -3 -57 -9 -21 -10 -22 -11 -4 -1 15 -3 16 -7 5 -3 -8 -12 -22 -20
-32 -8 -9 -13 -23 -11 -32 5 -25 -65 -56 -160 -71 -13 -2 -31 -10 -40 -17 -16
-13 -36 -23 -95 -47 -33 -13 -37 -13 -37 -3 0 6 46 30 70 36 18 5 29 19 23 29
-4 7 -8 15 -8 20 0 14 -20 7 -20 -8 0 -8 -4 -14 -10 -13 -12 3 -7 32 6 36 5 2
9 8 9 13 0 6 -5 7 -12 3 -7 -5 -8 -3 -3 6 6 10 11 10 20 -3 18 -25 43 -21 43
6 0 12 3 32 7 45 5 14 3 22 -4 22 -6 0 -11 -8 -11 -17 0 -15 -2 -16 -10 -3 -9
13 -11 13 -20 0 -6 -9 -10 -10 -10 -3 0 6 -8 13 -17 16 -13 3 -11 6 10 12 20
5 27 12 23 24 -5 13 -4 13 8 -1 16 -22 27 -23 20 -3 -4 8 -1 15 5 15 6 0 11
-6 11 -14 0 -8 8 -14 18 -14 9 1 27 -2 40 -6 22 -7 23 -6 17 28 -5 25 -4 36 5
36 7 0 10 -6 7 -14 -3 -7 6 -25 19 -39 13 -14 24 -33 24 -41 0 -8 5 -18 10
-21 6 -4 10 10 10 35 0 25 -4 39 -10 35 -6 -3 -10 5 -10 19 0 18 -4 24 -15 20
-10 -4 -15 0 -15 11 0 11 5 15 14 12 8 -3 17 0 20 8 4 12 14 16 59 24 4 0 7
-3 7 -9z m-419 -101 c1 -35 -4 -86 -10 -114 -6 -27 -14 -76 -17 -108 -7 -55
-8 -58 -31 -54 -32 6 -211 -39 -441 -112 -50 -16 -95 -25 -98 -20 -10 17 9 85
47 167 33 72 42 83 69 88 17 4 33 11 36 15 3 5 16 9 30 9 13 0 24 5 24 10 0 6
11 10 24 10 14 0 28 5 31 10 3 6 22 10 42 10 19 0 67 8 106 17 58 14 78 25
114 59 27 27 43 51 43 66 0 14 3 28 7 32 13 13 22 -21 24 -85z m119 -3 c0 -11
-19 -15 -25 -6 -3 5 1 10 9 10 9 0 16 -2 16 -4z m475 -316 c-4 -13 -12 -19
-21 -16 -8 3 -14 1 -14 -4 0 -6 -9 -10 -20 -10 -11 0 -20 2 -20 4 0 2 -3 11
-6 20 -5 13 1 16 29 16 20 0 39 5 42 11 11 17 17 3 10 -21z m-95 -25 c0 -8 -4
-15 -10 -15 -5 0 -10 7 -10 15 0 8 5 15 10 15 6 0 10 -7 10 -15z m-3588 -775
c-11 -11 -23 -16 -26 -13 -13 14 -5 43 17 58 21 15 22 14 25 -6 2 -12 -5 -29
-16 -39z m-42 -27 c0 -21 -3 -24 -9 -14 -5 8 -7 20 -4 28 8 21 13 15 13 -14z
m2579 -624 l16 -24 -24 16 c-27 17 -42 44 -21 37 7 -2 20 -15 29 -29z m13
-145 c0 -27 -3 -65 -7 -85 -6 -31 -10 -35 -40 -37 -18 -2 -36 2 -40 8 -3 5
-17 10 -29 10 -36 0 -52 25 -37 57 6 14 14 23 18 20 3 -4 17 3 31 13 13 11 31
20 38 20 7 0 11 6 8 14 -6 17 36 50 49 37 4 -4 8 -30 9 -57z m-1614 -140 c3
-68 2 -75 -14 -72 -28 5 -40 78 -19 118 8 16 19 30 23 30 4 0 8 -34 10 -76z
m-1 -149 c23 -21 26 -28 17 -52 -15 -45 -113 -51 -120 -8 -6 35 16 74 44 78
15 2 28 5 30 6 2 0 15 -10 29 -24z m-83 -143 c16 -2 32 2 36 9 5 8 10 5 15
-10 6 -19 27 -31 24 -13 -4 21 2 42 12 42 7 0 9 -10 5 -25 -4 -15 -2 -25 4
-25 6 0 8 -4 5 -10 -3 -5 0 -10 8 -10 8 0 17 -11 19 -25 5 -25 -6 -43 -16 -27
-5 9 -31 9 -56 -1 -8 -3 -24 -8 -35 -10 -11 -3 1 -5 27 -6 56 -1 78 -9 78 -26
0 -7 7 -16 16 -19 13 -5 14 -9 4 -20 -9 -12 -7 -17 12 -27 14 -8 18 -14 10
-17 -18 -6 -15 -52 3 -52 20 0 19 -6 -5 -30 -11 -11 -20 -27 -20 -35 0 -21
-70 -20 -111 3 -43 22 -65 42 -48 42 7 0 21 -7 31 -17 21 -19 23 -6 3 21 -9
11 -20 16 -31 12 -9 -3 -23 -1 -30 5 -11 9 -18 8 -29 -1 -12 -10 -16 -9 -21 5
-4 9 -2 21 5 28 6 6 11 19 11 29 0 10 7 21 16 25 9 3 20 15 24 27 9 21 9 21 9
-2 1 -30 30 -41 47 -17 21 28 17 34 -25 41 -44 7 -63 33 -31 41 20 5 28 23 11
23 -12 0 -29 78 -26 115 5 44 7 44 14 0 5 -35 10 -40 35 -43z m-76 -60 c0 -15
2 -32 3 -37 5 -18 -12 -85 -21 -85 -6 0 -10 -6 -10 -14 0 -8 -6 -16 -14 -19
-20 -8 -28 30 -10 48 16 15 37 112 28 126 -3 5 1 9 9 9 8 0 14 -11 15 -28z
m1337 -52 c3 -5 -2 -10 -12 -10 -15 0 -16 -2 -3 -10 12 -8 13 -13 3 -29 -8
-13 -9 -22 -3 -26 6 -3 10 -1 10 6 0 7 9 3 20 -9 11 -12 20 -23 20 -25 0 -7
-76 -1 -89 7 -6 4 -11 25 -11 47 0 32 4 41 23 49 29 12 35 12 42 0z m27 -35
c3 -14 1 -25 -3 -25 -5 0 -9 11 -9 25 0 14 2 25 4 25 2 0 6 -11 8 -25z m-25
-217 c-3 -8 -6 -5 -6 6 -1 11 2 17 5 13 3 -3 4 -12 1 -19z m151 7 c24 -1 47
-6 50 -11 4 -5 23 -11 42 -12 19 -2 39 -10 45 -17 11 -15 175 -51 280 -61 39
-3 85 -13 104 -20 18 -8 42 -14 53 -14 10 0 16 -4 13 -10 -4 -6 7 -10 24 -10
19 0 31 -5 31 -13 0 -12 96 -41 178 -54 17 -3 32 -9 32 -14 0 -12 -24 -11 -69
1 -20 5 -76 19 -126 31 -49 12 -151 40 -225 61 -163 47 -147 43 -278 64 -147
23 -175 31 -202 54 -13 11 -27 20 -32 20 -4 0 -8 5 -8 11 0 6 9 8 23 3 12 -4
42 -8 65 -9z m-187 -58 c-14 -36 -35 -36 -26 0 4 16 12 34 18 42 10 12 12 12
15 -1 2 -8 -2 -27 -7 -41z m207 -99 c24 -10 55 -18 68 -18 13 0 24 -4 24 -10
0 -5 9 -10 20 -10 11 0 20 -4 20 -8 0 -10 178 -66 203 -64 9 0 17 -4 17 -9 0
-6 5 -7 11 -3 19 11 145 -32 154 -53 6 -17 -7 -16 -95 8 -41 11 -119 28 -173
39 -54 11 -124 28 -155 39 -31 10 -99 29 -149 41 -51 12 -93 26 -93 31 0 5 -7
9 -16 9 -30 0 5 29 39 33 41 4 71 -2 125 -25z m319 6 c-3 -3 -12 -4 -19 -1 -8
3 -5 6 6 6 11 1 17 -2 13 -5z m-345 -144 c13 0 18 -5 15 -14 -5 -12 1 -13 29
-9 21 4 34 2 34 -5 0 -6 7 -9 15 -6 8 4 15 1 15 -5 0 -7 -6 -14 -14 -17 -18
-7 -139 25 -148 39 -10 16 1 29 19 23 8 -3 24 -6 35 -6z m1128 -30 c12 -8 9
-10 -12 -10 -16 0 -28 5 -28 10 0 13 20 13 40 0z m80 -23 c19 -7 43 -17 54
-23 18 -11 18 -12 -3 -33 -12 -12 -19 -26 -16 -31 9 -15 25 -12 25 5 0 30 22
43 55 33 16 -5 38 -14 48 -19 10 -5 22 -7 27 -4 13 8 12 3 0 -30 -5 -14 -14
-24 -19 -21 -5 4 -55 7 -110 8 l-101 2 0 28 c0 17 -5 28 -14 28 -18 0 -29 -42
-13 -52 8 -5 6 -8 -7 -8 -15 0 -17 5 -13 29 6 29 5 30 -31 26 -20 -3 -29 -2
-19 1 19 6 22 19 7 29 -5 3 -10 11 -10 17 0 7 5 6 15 -2 8 -6 19 -9 25 -5 5 3
13 -1 16 -9 3 -9 12 -16 20 -16 10 0 12 8 8 30 -7 34 1 37 56 17z m-2501 -84
c17 -10 34 -26 37 -35 3 -10 10 -18 15 -18 6 0 9 -15 7 -32 l-3 -33 -84 1
c-92 2 -105 10 -96 58 13 73 60 95 124 59z m2311 -15 c0 -5 -4 -8 -10 -8 -5 0
-10 10 -10 23 0 18 2 19 10 7 5 -8 10 -18 10 -22z m489 4 c6 -9 23 -12 84 -14
34 -1 87 -18 87 -29 0 -20 16 -7 34 26 11 19 25 35 33 35 8 0 23 -21 34 -47
24 -54 36 -123 23 -123 -14 0 -56 30 -79 57 -18 20 -24 21 -63 11 -34 -8 -53
-7 -100 6 -87 26 -104 35 -109 56 -6 23 -23 27 -23 5 0 -8 -4 -15 -10 -15 -12
0 -9 19 5 37 11 15 74 10 84 -5z m-414 -2 c15 -7 10 -9 -23 -9 -26 -1 -41 3
-37 9 7 12 32 12 60 0z m-2342 -170 c14 0 31 9 39 22 17 25 39 17 31 -11 -5
-21 -43 -41 -77 -41 -28 0 -103 56 -84 63 7 2 25 -4 40 -14 14 -11 37 -19 51
-19z m1214 -42 c7 19 79 14 123 -8 22 -11 67 -26 101 -33 58 -11 62 -14 65
-42 2 -16 8 -31 14 -33 5 -2 10 -10 10 -18 0 -8 -6 -11 -15 -8 -8 4 -21 1 -29
-5 -7 -6 -16 -8 -20 -4 -4 4 -11 1 -16 -7 -7 -12 -11 -12 -26 1 -24 20 -101
38 -113 26 -5 -5 -32 -9 -60 -9 -28 1 -51 -2 -51 -7 0 -4 -11 -6 -25 -3 -15 2
-33 -2 -43 -11 -26 -23 -79 -47 -102 -47 -13 0 -24 8 -27 20 -3 11 -10 20 -15
20 -5 0 -7 -4 -4 -9 4 -5 2 -20 -3 -33 l-9 -23 -10 25 c-6 14 -11 23 -12 20
-1 -3 -4 -16 -6 -30 -3 -13 -9 -29 -14 -34 -7 -7 -10 18 -9 70 1 43 3 70 6 59
6 -23 23 -45 23 -28 0 6 9 13 20 16 15 4 20 14 20 38 0 24 3 30 11 22 21 -21
159 29 159 57 0 21 31 31 43 15 6 -7 10 -6 14 3z m-1147 -35 c0 -5 -4 -15 -10
-23 -11 -18 -25 -7 -17 15 6 15 27 21 27 8z m180 -73 c0 -5 6 -10 14 -10 44 0
21 -82 -42 -151 l-24 -26 -29 29 c-33 33 -50 33 -61 -3 -5 -14 -6 -1 -3 35 3
41 10 64 23 77 11 10 22 23 24 30 3 8 21 12 47 11 26 -1 40 2 36 8 -3 6 -1 10
4 10 6 0 11 -4 11 -10z m1345 -10 c-3 -5 -12 -10 -20 -10 -8 0 -17 5 -20 10
-4 6 5 10 20 10 15 0 24 -4 20 -10z m-1524 -70 c14 0 11 -20 -6 -37 -13 -12
-18 -13 -33 -2 -9 7 -19 15 -21 16 -10 7 24 33 36 28 8 -3 19 -5 24 -5z m1131
-116 c10 -43 22 -88 27 -99 5 -11 12 -27 14 -35 3 -8 6 -3 6 13 1 41 15 33 29
-17 15 -56 70 -139 87 -132 8 3 19 -2 25 -10 7 -8 19 -14 26 -14 8 0 14 -5 14
-11 0 -6 -9 -8 -20 -4 -11 3 -20 4 -20 2 0 -11 73 -47 95 -47 24 0 34 -16 42
-66 4 -30 1 -33 -34 -45 -21 -7 -41 -12 -45 -11 -5 1 -8 -2 -8 -7 0 -5 -10
-12 -22 -14 -17 -3 -14 -5 10 -6 29 -1 37 -10 33 -35 -5 -25 32 -43 88 -45 56
-1 121 -23 121 -41 0 -14 -43 -40 -67 -40 -24 0 -39 -15 -24 -25 6 -3 7 -13 4
-21 -7 -20 13 -34 49 -34 15 0 30 -4 33 -10 3 -5 24 -10 47 -10 22 0 54 -6 71
-14 18 -8 41 -17 51 -20 10 -4 17 -8 15 -10 -9 -9 -166 -17 -326 -17 -186 0
-252 10 -260 42 -3 10 -13 19 -22 20 -9 0 -81 1 -160 1 -118 0 -147 -3 -156
-15 -19 -26 -195 -28 -195 -2 0 8 -8 15 -19 15 -10 0 -32 3 -49 6 -29 6 -30 5
-42 -45 -9 -39 -16 -51 -31 -51 -10 0 -19 6 -19 14 0 8 -6 13 -12 13 -22 -3
-132 14 -168 25 -68 20 -91 33 -103 60 -8 20 -17 26 -30 22 -24 -8 -107 81
-107 113 0 13 3 23 7 23 11 0 82 -83 89 -103 8 -25 38 -17 42 11 4 25 30 29
64 11 16 -9 23 -8 29 2 8 12 10 12 18 1 6 -10 10 -8 14 8 3 14 12 20 24 19 21
-4 72 40 66 57 -2 7 -20 8 -56 3 -40 -7 -55 -5 -66 5 -19 20 -6 46 23 46 13 0
26 5 28 11 5 16 196 78 243 80 32 0 36 2 20 9 -17 7 -15 9 11 9 17 1 56 15 87
32 l57 31 14 -34 c8 -19 18 -46 21 -61 7 -26 10 -27 49 -22 22 3 73 8 111 11
39 2 93 8 120 12 45 7 50 10 47 32 -1 14 -16 38 -34 54 -31 29 -35 41 -58 171
-5 33 -20 81 -32 105 -24 50 -30 70 -19 70 4 0 14 11 21 25 7 13 17 22 22 19
4 -3 8 2 8 10 0 16 39 48 54 43 5 -2 18 -39 28 -83z m-515 9 l-1 -34 -18 23
c-10 13 -18 33 -18 46 0 19 2 21 19 10 13 -8 19 -22 18 -45z m-631 40 c-4 -5
-13 -8 -18 -8 -6 0 -13 -6 -16 -14 -3 -10 0 -12 12 -8 9 4 16 4 16 0 0 -10
-34 -32 -51 -33 -9 0 -20 -10 -24 -22 -6 -20 -8 -21 -12 -5 -7 28 6 67 22 67
8 0 15 7 15 15 0 10 10 15 32 15 17 0 28 -3 24 -7z m698 -39 c13 -33 6 -52
-20 -57 -19 -3 -24 -1 -20 9 3 8 9 21 12 29 4 10 0 15 -10 15 -9 0 -16 5 -16
10 0 16 47 11 54 -6z m2365 -33 c-15 -5 -22 6 -14 19 6 9 10 9 16 -1 5 -8 4
-15 -2 -18z m41 -1 c0 -5 -2 -10 -4 -10 -3 0 -8 5 -11 10 -3 6 -1 10 4 10 6 0
11 -4 11 -10z m-2996 -35 c-6 -16 -24 -21 -24 -7 0 11 11 22 21 22 5 0 6 -7 3
-15z m-126 -42 c-2 -21 -7 -41 -12 -45 -6 -4 -5 -12 3 -21 9 -12 9 -16 -1 -20
-11 -5 -11 -7 0 -15 17 -12 24 -69 11 -93 -18 -35 -33 -20 -43 44 -1 9 -5 19
-9 23 -3 4 -2 15 4 25 6 13 6 19 -1 19 -5 0 -10 11 -10 25 0 18 -5 25 -20 25
-24 0 -26 13 -5 30 8 7 15 10 15 6 0 -3 15 3 33 14 17 11 33 20 35 20 2 0 2
-17 0 -37z m42 -55 c0 -49 -3 -69 -10 -62 -19 19 -14 134 6 134 2 0 4 -32 4
-72z m1240 32 c0 -5 7 -10 16 -10 8 0 12 -4 9 -10 -3 -5 0 -10 7 -10 8 0 14
-15 15 -40 2 -29 -1 -40 -12 -40 -9 0 -12 6 -9 15 4 8 1 15 -5 15 -12 0 -41
52 -41 75 0 8 5 15 10 15 6 0 10 -4 10 -10z m115 0 c-3 -5 -1 -10 4 -10 6 0
11 -6 11 -14 0 -9 -7 -12 -19 -9 -22 6 -25 43 -3 43 7 0 10 -4 7 -10z m108
-141 c14 -9 0 -42 -16 -37 -15 6 -21 33 -12 56 6 14 8 15 13 2 3 -8 9 -18 15
-21z m-778 -19 c4 -6 1 -18 -6 -26 -11 -14 -13 -14 -21 0 -15 26 12 51 27 26z
m-696 -57 c3 -2 0 -8 -5 -13 -7 -7 -24 -7 -50 -1 -21 5 -31 9 -21 10 9 1 17 6
17 11 0 9 47 4 59 -7z m88 -34 c-3 -10 -1 -21 3 -24 4 -3 6 -14 3 -26 l-6 -20
-18 20 c-22 23 -23 34 -8 62 12 24 33 14 26 -12z m-99 -29 c15 0 15 -2 2 -10
-9 -5 -19 -5 -24 0 -4 4 -16 6 -25 3 -12 -3 -11 0 4 12 12 9 21 11 23 5 2 -5
11 -10 20 -10z m157 -31 c-8 -12 -35 -12 -35 0 0 11 22 20 33 14 4 -2 5 -9 2
-14z m1835 -49 c0 -10 -4 -22 -10 -25 -16 -10 -11 -64 8 -83 28 -29 75 -102
69 -108 -3 -3 -14 -1 -25 5 -12 6 -33 11 -49 11 -15 0 -50 7 -77 15 -27 8 -69
15 -93 15 -24 0 -61 6 -83 12 -31 10 -40 18 -40 35 0 18 6 23 24 23 14 0 28 5
31 10 4 6 10 8 15 5 5 -3 12 0 15 5 4 6 17 15 28 21 27 11 57 30 75 47 7 6 26
12 41 12 16 0 34 7 41 15 15 18 30 11 30 -15z m580 10 c0 -5 -2 -10 -4 -10 -3
0 -8 5 -11 10 -3 6 -1 10 4 10 6 0 11 -4 11 -10z m50 -1 c38 -11 36 -11 163
-36 83 -16 91 -16 135 -1 25 10 49 15 51 12 8 -8 20 -175 14 -191 -6 -15 -49
-18 -57 -4 -3 5 -25 7 -48 5 -64 -6 -179 -6 -185 0 -3 3 0 12 7 21 7 8 9 15 5
15 -4 0 -14 -8 -21 -17 -12 -16 -13 -14 -14 17 -1 33 -1 34 -16 15 -15 -19
-16 -19 -29 -1 -7 10 -18 15 -24 11 -19 -11 -42 8 -30 25 8 11 12 12 16 3 2
-7 9 -13 14 -13 6 0 8 4 4 9 -3 5 0 13 5 16 6 4 11 19 10 33 -1 15 -2 34 -1
42 1 13 2 13 11 0 5 -8 10 -10 10 -4 0 16 -22 34 -42 34 -10 0 -18 5 -18 10 0
12 -2 12 40 -1z m-23 -54 c-2 -42 -17 -47 -17 -7 0 25 7 42 17 42 1 0 2 -16 0
-35z m-40 3 c-3 -8 -6 -5 -6 6 -1 11 2 17 5 13 3 -3 4 -12 1 -19z m-2547 0 c0
-3 13 -9 29 -13 26 -6 29 -10 28 -41 -2 -40 -23 -46 -37 -10 -5 15 -20 27 -39
31 -16 3 -39 15 -51 25 l-23 20 47 -3 c25 -1 46 -5 46 -9z m2650 -158 c0 -5
-2 -10 -4 -10 -3 0 -8 5 -11 10 -3 6 -1 10 4 10 6 0 11 -4 11 -10z m-250 -16
c0 -2 -7 -4 -15 -4 -8 0 -15 4 -15 10 0 5 7 7 15 4 8 -4 15 -8 15 -10z m-2327
-24 c9 0 17 -4 17 -8 0 -14 -69 -9 -75 6 -9 24 6 34 24 18 10 -9 25 -16 34
-16z m740 -107 c-7 -2 -19 -2 -25 0 -7 3 -2 5 12 5 14 0 19 -2 13 -5z m-1021
-38 c-2 -5 -10 -9 -18 -7 -8 2 -14 -4 -14 -13 0 -8 -8 -15 -18 -15 -17 0 -31
-17 -61 -75 l-16 -30 -3 31 c-4 37 28 110 46 107 7 -2 12 2 12 8 0 6 16 9 38
7 20 -2 36 -7 34 -13z m568 -9 c0 -3 -4 -8 -10 -11 -5 -3 -10 -1 -10 4 0 6 5
11 10 11 6 0 10 -2 10 -4z m2660 -229 c0 -5 -4 -5 -10 -2 -5 3 -10 1 -10 -6 0
-7 -2 -10 -5 -8 -2 3 -2 15 2 28 4 17 8 19 14 9 5 -7 9 -17 9 -21z m40 12 c0
-6 -4 -7 -10 -4 -5 3 -10 11 -10 16 0 6 5 7 10 4 6 -3 10 -11 10 -16z m-3210
-39 c0 -5 8 -10 18 -10 23 0 43 -35 44 -77 1 -18 6 -34 12 -36 9 -4 11 -30 7
-82 -1 -5 -5 -3 -11 5 -8 13 -10 12 -15 -1 -4 -12 -17 -15 -46 -14 -21 1 -39
-2 -39 -6 0 -5 -6 -9 -14 -9 -19 0 -31 -19 -19 -31 8 -8 34 -13 91 -18 6 0 12
-8 12 -17 0 -8 4 -13 9 -9 12 7 31 -57 31 -102 0 -41 11 -47 90 -48 68 -2 104
-11 94 -26 -6 -11 16 -35 31 -33 6 0 17 3 25 6 39 15 50 17 50 7 0 -5 8 -12
18 -16 9 -3 32 -17 49 -30 43 -31 112 -63 141 -63 23 0 62 -32 62 -52 0 -6 -9
-31 -21 -54 -16 -35 -18 -49 -11 -78 6 -19 7 -38 4 -41 -4 -4 -7 -12 -7 -18 0
-8 -22 -12 -63 -12 -67 0 -78 -11 -46 -47 28 -30 -8 -33 -53 -4 -21 13 -51 28
-66 32 -31 7 -103 90 -113 130 -6 23 -90 82 -101 70 -5 -5 28 -56 59 -90 9
-10 15 -23 12 -28 -3 -4 1 -8 9 -8 7 0 14 -7 14 -15 0 -21 -11 -19 -45 10 -17
14 -34 25 -38 25 -5 0 -38 25 -74 55 -57 47 -150 118 -251 192 -17 12 -44 39
-61 60 -29 37 -30 40 -24 112 9 113 22 148 59 155 43 9 57 -9 64 -80 6 -58 37
-144 53 -144 10 0 1 41 -14 59 -12 16 -14 208 -2 284 5 31 17 59 34 77 28 31
42 37 42 20z m1787 -39 c7 -1 21 -11 32 -22 20 -22 20 -22 -6 -71 -14 -27 -26
-64 -25 -81 0 -21 -8 -40 -29 -61 l-29 -30 0 27 c0 15 -4 27 -10 27 -5 0 -10
9 -10 20 0 19 -9 24 -36 21 -15 -2 -22 25 -20 82 1 34 -3 47 -12 47 -9 0 -12
-6 -8 -15 3 -8 1 -25 -4 -37 -7 -17 -9 -7 -9 42 l-1 66 78 -8 c42 -3 82 -7 89
-7z m-317 -41 c0 -5 -4 -12 -10 -15 -18 -11 -11 -25 12 -22 25 2 34 -19 24
-59 -10 -37 -25 -28 -19 11 5 31 3 35 -16 35 -12 0 -24 6 -27 14 -3 8 -17 12
-37 10 -18 -2 -56 -5 -85 -7 -29 -2 -55 -7 -58 -10 -3 -3 -12 -3 -20 0 -8 3
-20 0 -27 -5 -18 -16 -37 0 -31 26 5 17 10 20 24 12 47 -25 230 -3 230 27 0
11 5 11 20 3 11 -6 20 -15 20 -20z m-1610 -100 c0 -5 -7 -10 -16 -10 -8 0 -12
5 -9 10 3 6 10 10 16 10 5 0 9 -4 9 -10z m1426 -2 c4 -6 3 -13 -3 -15 -6 -2
-9 -12 -7 -21 3 -9 -6 -29 -20 -43 -14 -15 -22 -29 -19 -33 3 -3 -2 -8 -11
-12 -24 -9 -29 0 -36 61 -5 48 -4 56 13 61 10 3 30 3 44 0 16 -5 22 -3 18 4
-3 5 -2 10 4 10 5 0 13 -5 17 -12z m-406 -163 c7 -14 18 -25 24 -26 6 0 21 -2
34 -3 13 -2 25 1 28 5 2 5 11 6 19 2 9 -3 15 1 15 8 0 11 3 11 10 -1 9 -13 10
-13 10 0 1 8 9 -1 20 -21 23 -43 34 -53 83 -68 20 -7 37 -19 37 -27 0 -8 9
-14 21 -14 16 0 19 -4 13 -22 -10 -35 -23 -47 -52 -47 -61 -1 -90 -8 -117 -29
-41 -32 -52 -28 -65 28 -11 45 -16 52 -37 49 -3 0 -10 6 -15 15 -5 9 -16 16
-24 16 -8 0 -24 9 -35 19 -17 15 -20 30 -18 72 1 30 4 57 6 62 8 15 30 6 43
-18z m340 5 c0 -11 -7 -20 -15 -20 -15 0 -21 21 -8 33 12 13 23 7 23 -13z
m-591 -32 c-1 -7 -5 -24 -9 -38 -7 -22 -8 -21 -9 13 -1 20 4 37 9 37 6 0 10
-6 9 -12z m-372 -30 c-3 -8 -6 -5 -6 6 -1 11 2 17 5 13 3 -3 4 -12 1 -19z
m1413 -208 c0 -36 -29 -79 -70 -105 -48 -30 -50 -30 -50 -4 0 23 34 71 82 116
20 19 38 15 38 -7z m-2933 -87 c-3 -10 -5 -2 -5 17 0 19 2 27 5 18 2 -10 2
-26 0 -35z m2411 24 c3 -14 -1 -18 -20 -15 -12 2 -24 11 -26 21 -3 14 1 18 20
15 12 -2 24 -11 26 -21z m2149 -59 c-3 -7 -5 -2 -5 12 0 14 2 19 5 13 2 -7 2
-19 0 -25z m-1917 -39 c0 -5 4 -8 9 -4 5 3 13 0 17 -6 4 -8 9 -7 15 2 7 11 9
11 9 1 0 -12 -4 -18 -35 -55 -20 -23 -57 -87 -50 -87 3 0 3 -6 -2 -12 -7 -13
-8 -17 -11 -48 -4 -35 -24 12 -29 69 -6 62 2 92 37 133 16 20 40 24 40 7z
m-210 -15 c0 -8 -4 -12 -10 -9 -5 3 -10 10 -10 16 0 5 5 9 10 9 6 0 10 -7 10
-16z m-17 -47 c18 -36 27 -70 27 -100 0 -85 -43 -42 -54 53 -3 30 -9 65 -12
78 -11 41 12 23 39 -31z m-2127 -34 c-5 -12 -10 -13 -17 -6 -8 8 -7 16 2 26
16 17 24 5 15 -20z m439 7 c-27 -12 -43 -12 -25 0 8 5 22 9 30 9 10 0 8 -3 -5
-9z m253 -19 c3 -8 -1 -12 -9 -9 -7 2 -15 10 -17 17 -3 8 1 12 9 9 7 -2 15
-10 17 -17z m-688 -26 c0 -8 -4 -15 -10 -15 -5 0 -10 7 -10 15 0 8 5 15 10 15
6 0 10 -7 10 -15z m17 -7 c-3 -8 -6 -5 -6 6 -1 11 2 17 5 13 3 -3 4 -12 1 -19z
m893 3 c0 -11 -4 -23 -10 -26 -6 -4 -10 5 -10 19 0 14 5 26 10 26 6 0 10 -9
10 -19z m375 9 c3 -5 1 -10 -4 -10 -6 0 -11 5 -11 10 0 6 2 10 4 10 3 0 8 -4
11 -10z m399 -42 c-8 -12 -34 11 -34 28 0 11 4 10 19 -3 11 -9 18 -20 15 -25z
m16 32 c0 -5 -4 -10 -10 -10 -5 0 -10 5 -10 10 0 6 5 10 10 10 6 0 10 -4 10
-10z m-1160 -20 c0 -5 -7 -10 -15 -10 -8 0 -15 5 -15 10 0 6 7 10 15 10 8 0
15 -4 15 -10z m757 4 c-3 -3 -12 -4 -19 -1 -8 3 -5 6 6 6 11 1 17 -2 13 -5z
m-1289 -34 c-2 -16 0 -31 6 -33 6 -2 11 -40 12 -92 1 -66 6 -91 17 -100 12 -9
13 -14 2 -28 -7 -9 -20 -17 -29 -17 -9 0 -16 -8 -16 -20 0 -32 -19 -23 -25 13
-4 25 -2 190 4 295 1 6 8 12 17 12 12 0 15 -7 12 -30z m582 26 c0 -2 -7 -6
-15 -10 -8 -3 -15 -1 -15 4 0 6 7 10 15 10 8 0 15 -2 15 -4z m-543 -68 c-3 -7
-5 -2 -5 12 0 14 2 19 5 13 2 -7 2 -19 0 -25z m380 0 c-3 -7 -5 -2 -5 12 0 14
2 19 5 13 2 -7 2 -19 0 -25z m573 23 c0 -12 -20 -25 -27 -18 -7 7 6 27 18 27
5 0 9 -4 9 -9z m1550 -21 c0 -5 8 -10 18 -11 14 0 14 -2 -3 -8 -19 -8 -19 -8
3 -15 27 -9 50 -46 29 -46 -8 0 -20 7 -27 15 -7 8 -23 15 -36 15 -22 0 -23 -4
-26 -77 -2 -61 -6 -78 -18 -78 -8 0 -19 10 -26 22 -6 13 -19 32 -30 44 -33 37
-4 117 44 119 6 0 12 4 12 9 0 5 -6 12 -12 14 -7 3 6 6 30 6 23 1 42 -3 42 -9z
m-1035 -20 c3 -5 -1 -10 -9 -10 -9 0 -16 5 -16 10 0 6 4 10 9 10 6 0 13 -4 16
-10z m-965 -26 c6 -14 15 -22 21 -18 7 4 7 -1 -1 -16 -7 -12 -8 -20 -2 -16 16
9 21 -31 7 -51 -13 -17 -14 -17 -20 -1 -4 9 -8 22 -9 30 -6 28 -19 48 -31 48
-15 0 -28 27 -19 41 11 19 45 9 54 -17z m1850 -30 c0 -44 -46 -44 -66 0 -10
22 -9 25 10 28 37 6 56 -3 56 -28z m-1770 -24 c0 -5 -2 -10 -4 -10 -3 0 -8 5
-11 10 -3 6 -1 10 4 10 6 0 11 -4 11 -10z m-176 -9 c3 -5 -1 -11 -9 -15 -15
-6 -29 7 -18 18 9 9 21 8 27 -3z m-361 -26 c7 -18 -6 -27 -27 -19 -13 5 -14 9
-5 20 15 18 25 18 32 -1z m1697 -40 c0 -7 15 -25 33 -39 17 -15 37 -31 44 -36
7 -6 15 -10 18 -10 6 0 19 -10 59 -45 20 -19 40 -31 91 -59 27 -15 33 -25 28
-45 -3 -13 6 -20 35 -29 50 -15 53 -15 46 3 -5 11 -2 13 10 9 9 -3 16 -10 16
-15 0 -5 5 -9 11 -9 14 0 32 -19 55 -59 22 -40 54 -72 104 -103 19 -12 42 -30
51 -40 9 -10 21 -18 26 -18 5 0 14 -5 21 -12 17 -17 52 -20 82 -8 32 13 50 72
50 166 0 37 4 63 9 59 5 -3 11 5 13 17 5 36 25 31 32 -9 3 -21 9 -77 12 -125
6 -76 4 -93 -15 -137 -11 -27 -21 -59 -21 -70 0 -16 -6 -21 -24 -21 -14 0 -28
5 -32 11 -4 7 -24 9 -55 6 -46 -6 -49 -5 -69 28 -21 34 -51 52 -70 40 -6 -4
-10 -12 -9 -18 5 -38 -2 -57 -21 -57 -11 0 -20 4 -20 8 0 5 -13 22 -30 38 -32
31 -42 84 -16 84 8 0 18 -4 21 -10 3 -5 14 -9 23 -9 15 1 15 2 0 6 -10 2 -18
11 -18 19 0 8 -7 14 -16 14 -8 0 -12 4 -9 10 8 14 -37 8 -52 -6 -22 -21 19
-107 82 -169 20 -20 91 -65 103 -65 6 0 14 -12 17 -27 11 -55 39 -129 73 -191
28 -52 82 -176 82 -189 0 -2 -6 -3 -13 -3 -23 0 -42 29 -108 160 -34 69 -73
139 -86 156 -12 17 -23 38 -23 46 0 8 -11 25 -25 38 -14 13 -25 18 -25 12 0
-7 4 -12 9 -12 5 0 11 -14 13 -30 7 -48 -5 -41 -78 45 -27 33 -62 76 -78 97
-27 36 -23 54 8 42 36 -14 11 23 -72 110 -95 98 -136 150 -226 291 -32 50 -67
98 -77 108 -11 10 -19 27 -19 37 0 11 -4 20 -9 20 -5 0 -11 6 -14 14 -5 12 -1
13 24 4 16 -5 29 -16 29 -23z m-1122 7 c9 -6 5 -12 -13 -20 -36 -17 -44 -15
-38 8 5 21 28 26 51 12z m-233 -22 c3 -5 -1 -10 -10 -10 -9 0 -13 5 -10 10 3
6 8 10 10 10 2 0 7 -4 10 -10z m1977 -47 c12 -12 17 -26 13 -33 -5 -9 -15 -4
-32 14 -13 14 -28 26 -33 26 -6 0 -10 4 -10 8 0 16 41 6 62 -15z m98 -13 c0
-11 -4 -20 -10 -20 -5 0 -10 9 -10 20 0 11 5 20 10 20 6 0 10 -9 10 -20z
m-2480 0 c0 -5 9 -10 20 -10 23 0 23 0 10 -35 -7 -17 -14 -24 -22 -18 -7 4
-21 6 -30 5 -14 -3 -15 1 -6 33 10 32 28 48 28 25z m526 -27 c-10 -10 -19 5
-10 18 6 11 8 11 12 0 2 -7 1 -15 -2 -18z m-510 -61 c6 -4 14 -20 17 -37 3
-16 13 -55 21 -85 16 -54 10 -80 -14 -65 -8 5 -11 23 -7 51 4 43 4 43 -14 21
-15 -18 -18 -19 -19 -5 0 9 7 23 15 32 8 8 15 17 15 20 0 3 -7 6 -15 6 -8 0
-15 6 -15 14 0 8 -12 17 -27 22 -21 5 -24 8 -10 11 9 3 17 9 17 14 0 11 20 12
36 1z m84 -26 l0 -31 -15 29 c-18 35 -18 33 0 33 10 0 15 -10 15 -31z m400
-40 c0 -11 -19 -15 -25 -6 -3 5 1 10 9 10 9 0 16 -2 16 -4z m1900 -92 c0 -8
-4 -14 -10 -14 -5 0 -10 9 -10 21 0 11 5 17 10 14 6 -3 10 -13 10 -21z m-35
-74 c3 -5 2 -10 -4 -10 -5 0 -13 5 -16 10 -3 6 -2 10 4 10 5 0 13 -4 16 -10z
m-1832 -23 c15 -11 16 -15 4 -31 -17 -24 -37 -13 -37 20 0 27 8 30 33 11z
m-393 -7 c0 -5 -9 -10 -20 -10 -11 0 -20 5 -20 10 0 6 9 10 20 10 11 0 20 -4
20 -10z m431 -57 c0 -5 2 -23 3 -40 2 -18 2 -33 0 -33 -8 0 -31 56 -27 68 5
13 23 17 24 5z m-124 -25 c-3 -8 -6 -5 -6 6 -1 11 2 17 5 13 3 -3 4 -12 1 -19z
m3959 -15 c-11 -11 -19 6 -11 24 8 17 8 17 12 0 3 -10 2 -21 -1 -24z m-3796 7
c0 -5 -4 -10 -10 -10 -5 0 -10 5 -10 10 0 6 5 10 10 10 6 0 10 -4 10 -10z
m1485 -19 c3 -5 1 -12 -4 -15 -5 -3 -11 1 -15 9 -6 16 9 21 19 6z m-2339 -53
c-12 -29 -26 -62 -30 -72 -3 -10 -9 -16 -12 -13 -14 14 41 137 61 137 2 0 -6
-24 -19 -52z m4620 26 c-3 -9 -6 -27 -6 -40 0 -14 -4 -23 -8 -20 -11 7 -2 76
10 76 6 0 7 -7 4 -16z m34 -23 c0 -37 -14 -61 -27 -48 -8 9 8 87 18 87 5 0 9
-18 9 -39z m-1660 4 c0 -26 -23 -65 -38 -65 -13 0 -13 3 1 18 10 10 17 31 17
46 0 16 4 25 10 21 6 -3 10 -12 10 -20z m1780 -61 c0 -8 -4 -12 -10 -9 -5 3
-10 10 -10 16 0 5 5 9 10 9 6 0 10 -7 10 -16z m-251 -46 c-1 -24 -4 -34 -6
-23 -3 11 -10 23 -16 26 -6 5 -5 12 4 23 19 21 19 21 18 -26z m86 12 c20 -39
20 -57 -1 -40 -21 19 -36 49 -29 60 9 15 13 13 30 -20z m145 4 c0 -8 -5 -12
-10 -9 -6 4 -8 11 -5 16 9 14 15 11 15 -7z m-200 -29 c0 -8 -4 -15 -10 -15 -5
0 -10 7 -10 15 0 8 5 15 10 15 6 0 10 -7 10 -15z m-4198 -58 c-5 -43 -32 -46
-32 -5 0 16 4 27 9 23 5 -3 12 -1 16 5 10 16 11 12 7 -23z m4033 12 c4 -12 2
-26 -4 -32 -23 -23 -14 -28 38 -18 2 1 -2 8 -9 16 -6 8 -9 19 -5 26 6 8 10 7
16 -2 12 -19 11 -59 -1 -59 -20 0 -10 -31 18 -55 26 -24 26 -24 5 -25 -15 0
-23 -6 -24 -17 -1 -10 -4 -4 -8 12 -6 27 -10 30 -49 32 -40 1 -42 0 -36 -23 4
-15 2 -24 -5 -24 -10 0 -16 33 -13 73 1 11 -6 21 -18 24 -21 6 -27 37 -11 62
11 17 51 25 51 11 0 -6 -9 -10 -21 -10 -12 0 -19 -5 -16 -12 2 -7 15 -12 28
-11 15 1 17 0 7 -3 -20 -6 -23 -19 -9 -29 13 -7 31 27 31 59 0 32 26 35 35 5z
m205 -15 c0 -12 -7 -27 -15 -34 -12 -10 -15 -10 -15 1 0 8 -11 19 -25 26 -21
9 -25 9 -26 -5 0 -14 -2 -13 -9 3 -14 32 -12 34 40 32 44 -2 50 -5 50 -23z
m-3760 -35 c0 -18 -2 -19 -15 -9 -15 12 -12 30 6 30 5 0 9 -10 9 -21z m-50
-21 c0 -5 -9 -4 -20 2 -11 6 -20 12 -20 14 0 2 9 2 20 -1 11 -3 20 -9 20 -15z
m3710 -4 c0 -8 -7 -14 -15 -14 -15 0 -21 21 -9 33 10 9 24 -2 24 -19z m90 -14
c0 -5 -5 -10 -11 -10 -5 0 -7 5 -4 10 3 6 8 10 11 10 2 0 4 -4 4 -10z m-3753
-6 c-3 -3 -12 -4 -19 -1 -8 3 -5 6 6 6 11 1 17 -2 13 -5z m3721 -12 c3 -9 -3
-10 -21 -3 -14 5 -28 7 -33 3 -4 -4 -4 -2 -1 4 8 14 50 11 55 -4z m-3802 -19
c-10 -10 -19 5 -10 18 6 11 8 11 12 0 2 -7 1 -15 -2 -18z m129 13 c6 -2 -18
-5 -53 -7 -41 -3 -62 0 -62 7 0 10 81 9 115 0z m3640 -26 c4 -6 11 -8 16 -5 5
4 9 -3 9 -14 0 -27 -2 -26 -28 4 -12 14 -18 25 -13 25 6 0 13 -5 16 -10z
m-395 -22 c0 -16 -3 -19 -11 -11 -6 6 -8 16 -5 22 11 17 16 13 16 -11z m490
-8 c0 -19 -5 -26 -21 -27 -17 -2 -19 1 -10 10 15 15 14 27 -4 27 -8 0 -15 4
-15 10 0 5 11 9 25 8 20 -2 25 -8 25 -28z m-4960 -60 c-6 -11 -7 -20 -3 -20 4
0 2 -5 -5 -12 -7 -7 -12 -23 -13 -37 0 -15 -3 -20 -6 -13 -2 6 -9 10 -14 6 -5
-3 -9 -1 -9 5 0 5 5 13 11 16 6 4 7 19 4 36 -4 16 -1 46 6 66 l12 38 14 -33
c10 -24 10 -38 3 -52z m1250 45 c0 -8 7 -15 15 -15 8 0 15 -9 15 -20 0 -12 9
-30 20 -42 11 -12 20 -25 20 -29 0 -21 -108 -17 -122 5 -5 6 -8 1 -8 -11 0
-24 3 -26 64 -27 24 -1 41 -6 44 -15 3 -8 0 -11 -7 -7 -11 7 -15 -4 -12 -36 1
-9 -3 -19 -9 -23 -6 -4 -10 7 -10 29 0 20 -4 36 -10 36 -5 0 -10 -7 -10 -16 0
-10 -6 -14 -15 -10 -12 4 -15 -5 -16 -52 0 -31 -3 -51 -6 -44 -2 6 -11 12 -18
12 -21 0 -40 39 -26 53 6 6 11 22 11 36 0 17 -3 22 -11 14 -5 -5 -21 -8 -34
-5 -25 4 -40 27 -24 37 5 4 7 11 4 16 -4 5 1 9 9 9 9 0 16 -6 16 -14 0 -8 6
-18 13 -22 6 -4 9 -4 5 1 -10 11 12 36 24 29 5 -4 8 4 6 17 -2 16 2 23 10 21
8 -1 13 5 12 15 -1 10 1 29 6 43 l8 25 7 -25 7 -25 1 28 c1 27 21 39 21 12z
m3776 1 c8 -8 14 -20 14 -27 0 -10 -3 -10 -12 -1 -7 7 -22 12 -35 12 -14 0
-23 6 -23 15 0 19 37 20 56 1z m-3729 -28 c-3 -7 -5 -2 -5 12 0 14 2 19 5 13
2 -7 2 -19 0 -25z m3788 22 c3 -5 -1 -10 -9 -10 -9 0 -16 5 -16 10 0 6 4 10 9
10 6 0 13 -4 16 -10z m-199 -27 c-10 -10 -19 5 -10 18 6 11 8 11 12 0 2 -7 1
-15 -2 -18z m-464 -8 c0 -5 -5 -11 -11 -13 -6 -2 -11 4 -11 13 0 9 5 15 11 13
6 -2 11 -8 11 -13z m572 9 c31 -12 5 -33 -35 -28 -29 4 -39 1 -39 -10 0 -7 7
-16 15 -20 8 -3 15 -2 15 2 0 4 20 8 45 9 25 1 45 -2 45 -7 0 -6 -18 -10 -40
-10 -29 0 -40 -4 -40 -15 0 -21 -29 -19 -37 3 -4 9 -13 23 -20 30 -15 16 -18
36 -3 27 5 -3 20 1 32 9 24 17 38 19 62 10z m-3661 -11 c-7 -2 -13 -12 -13
-20 0 -9 -3 -14 -6 -10 -10 10 4 37 18 36 10 0 10 -2 1 -6z m3503 -24 c3 -5
-1 -9 -9 -9 -20 0 -68 26 -61 33 7 7 62 -12 70 -24z m244 27 c0 -3 -4 -8 -10
-11 -5 -3 -10 -1 -10 4 0 6 5 11 10 11 6 0 10 -2 10 -4z m-288 -54 c10 -8 15
-19 12 -24 -3 -5 -12 -4 -20 3 -11 9 -14 8 -14 -5 0 -9 -7 -16 -16 -16 -11 0
-14 5 -10 16 3 9 6 25 6 35 0 21 10 19 42 -9z m-3422 8 c0 -5 -2 -10 -4 -10
-3 0 -8 5 -11 10 -3 6 -1 10 4 10 6 0 11 -4 11 -10z m-21 -34 c9 -10 8 -16 -4
-26 -13 -11 -15 -8 -15 14 0 30 3 32 19 12z m3556 4 c3 -5 1 -10 -4 -10 -6 0
-11 5 -11 10 0 6 2 10 4 10 3 0 8 -4 11 -10z m115 -11 c0 -5 -7 -9 -15 -9 -8
0 -15 -4 -15 -10 0 -5 -12 -11 -27 -11 -17 -1 -21 -3 -10 -6 9 -2 17 -13 17
-24 0 -10 5 -19 10 -19 6 0 10 9 10 20 0 11 5 20 10 20 6 0 10 -11 10 -25 0
-22 -5 -25 -32 -25 -18 0 -44 -3 -57 -7 -17 -4 -22 -3 -17 5 4 7 18 12 32 12
14 0 23 4 20 9 -3 5 -24 7 -46 4 -48 -7 -52 4 -9 19 23 8 27 13 17 19 -10 7
-8 9 7 10 11 1 28 2 38 1 11 -1 17 5 17 17 0 14 5 18 20 14 11 -3 20 -9 20
-14z m-160 1 c0 -5 -4 -10 -10 -10 -5 0 -10 5 -10 10 0 6 5 10 10 10 6 0 10
-4 10 -10z m-3800 -24 c0 -11 -19 -15 -25 -6 -3 5 1 10 9 10 9 0 16 -2 16 -4z
m-1110 -25 c0 -6 -4 -13 -10 -16 -5 -3 -10 1 -10 9 0 9 5 16 10 16 6 0 10 -4
10 -9z m1390 -19 c0 -10 5 -23 12 -30 9 -9 7 -12 -10 -12 -15 0 -22 6 -22 20
0 12 -7 20 -17 21 -15 0 -15 2 2 9 30 13 35 12 35 -8z m3726 -19 c-10 -10 -19
5 -10 18 6 11 8 11 12 0 2 -7 1 -15 -2 -18z m-5098 -35 c0 -39 -1 -40 -9 -15
-6 24 -3 57 6 57 1 0 3 -19 3 -42z m5245 -81 c9 -5 7 -12 -7 -22 -14 -11 -17
-22 -12 -45 4 -23 2 -30 -7 -27 -14 4 -17 54 -9 152 l6 70 9 -60 c5 -33 14
-63 20 -68z m-330 94 c-3 -14 -11 -17 -26 -13 -18 5 -19 7 -4 10 9 2 17 8 17
13 0 5 4 9 9 9 5 0 7 -8 4 -19z m45 -25 c3 -12 -1 -17 -10 -14 -7 3 -15 13
-16 22 -3 12 1 17 10 14 7 -3 15 -13 16 -22z m82 15 c0 -5 -7 -12 -16 -15 -12
-5 -13 -10 -6 -19 13 -15 -21 -67 -35 -54 -4 5 0 15 11 22 19 14 16 52 -3 40
-6 -3 -8 -12 -4 -20 3 -9 -1 -15 -11 -15 -32 0 -16 38 24 57 31 15 40 15 40 4z
m70 -1 c0 -5 -4 -10 -10 -10 -5 0 -10 5 -10 10 0 6 5 10 10 10 6 0 10 -4 10
-10z m-4350 -40 c0 -11 -4 -20 -10 -20 -5 0 -10 9 -10 20 0 11 5 20 10 20 6 0
10 -9 10 -20z m745 -39 c-4 -23 -11 -38 -17 -35 -5 3 -7 12 -4 20 3 8 -1 17
-9 20 -8 4 -15 10 -15 16 0 5 4 7 9 3 5 -3 13 4 16 16 12 37 28 5 20 -40z
m3395 50 c0 -5 3 -23 6 -40 5 -24 3 -31 -10 -31 -9 0 -16 -4 -16 -10 0 -5 -4
-10 -10 -10 -17 0 -11 28 8 39 14 8 15 13 5 29 -12 19 -8 32 9 32 4 0 8 -4 8
-9z m-3542 -33 c-1 -18 -6 -36 -12 -40 -10 -7 -46 12 -46 25 0 4 5 5 10 2 6
-4 10 5 10 19 0 19 5 26 20 26 17 0 20 -6 18 -32z m169 -10 c-3 -7 -5 -2 -5
12 0 14 2 19 5 13 2 -7 2 -19 0 -25z m-327 12 c0 -5 -2 -10 -4 -10 -3 0 -8 5
-11 10 -3 6 -1 10 4 10 6 0 11 -4 11 -10z m370 -5 c0 -8 -4 -15 -10 -15 -5 0
-7 7 -4 15 4 8 8 15 10 15 2 0 4 -7 4 -15z m-370 -35 c0 -5 -7 -7 -15 -4 -9 4
-15 0 -15 -10 0 -19 -11 -21 -28 -4 -19 19 -14 26 16 30 31 4 42 1 42 -12z
m3766 -6 c-8 -20 10 -26 24 -9 27 33 39 17 36 -47 -3 -46 1 -68 12 -80 17 -20
10 -23 -20 -7 -15 8 -18 17 -13 36 4 17 1 29 -7 34 -10 7 -10 9 0 9 6 0 12 10
12 22 l0 22 -21 -23 c-17 -18 -19 -27 -11 -45 9 -20 7 -22 -17 -20 -38 2 -41
3 -41 14 0 6 6 10 14 10 7 0 16 9 19 20 3 11 1 20 -4 20 -7 0 -7 36 0 68 1 2
6 0 12 -3 6 -4 8 -13 5 -21z m-3437 -41 c-1 -27 -3 -40 -6 -30 -2 9 -9 17 -14
17 -5 0 -9 7 -9 16 0 8 5 12 10 9 6 -3 10 3 10 14 0 12 2 21 5 21 3 0 4 -21 4
-47z m-1554 -3 c22 0 28 -19 11 -35 -19 -19 -25 -19 -25 3 0 9 -2 28 -4 42 -2
14 -2 17 0 8 2 -10 11 -18 18 -18z m4845 24 c0 -2 -7 -4 -15 -4 -8 0 -15 4
-15 10 0 5 7 7 15 4 8 -4 15 -8 15 -10z m-3250 -36 c0 -5 -7 -8 -15 -8 -10 0
-15 10 -15 27 0 26 1 26 15 7 8 -10 15 -22 15 -26z m-280 22 c0 -5 -4 -10 -10
-10 -5 0 -10 5 -10 10 0 6 5 10 10 10 6 0 10 -4 10 -10z m3623 -6 c11 -11 -3
-24 -18 -18 -8 4 -12 10 -9 15 6 11 18 12 27 3z m187 -8 c0 -3 -4 -8 -10 -11
-5 -3 -10 -1 -10 4 0 6 5 11 10 11 6 0 10 -2 10 -4z m-3655 -27 c0 -8 6 -14
14 -14 21 0 51 -57 38 -72 -19 -25 -44 -15 -51 21 -4 19 -13 39 -21 46 -7 6
-11 18 -8 26 7 18 28 13 28 -7z m3315 1 c0 -5 -5 -10 -11 -10 -5 0 -7 5 -4 10
3 6 8 10 11 10 2 0 4 -4 4 -10z m-3390 -10 c0 -5 -2 -10 -4 -10 -3 0 -8 5 -11
10 -3 6 -1 10 4 10 6 0 11 -4 11 -10z m3350 0 c0 -5 -4 -10 -10 -10 -5 0 -10
5 -10 10 0 6 5 10 10 10 6 0 10 -4 10 -10z m135 0 c3 -5 13 -6 23 -3 13 4 13
2 -3 -10 -20 -16 -55 -7 -55 13 0 13 27 13 35 0z m-3704 -40 c5 0 9 -4 9 -10
0 -5 -7 -10 -15 -10 -11 0 -15 10 -14 33 1 23 3 26 6 10 2 -13 9 -23 14 -23z
m3549 12 c19 0 40 4 45 7 18 12 40 7 43 -11 3 -14 -4 -16 -40 -15 -35 2 -43
-1 -42 -15 1 -10 -4 -14 -12 -11 -8 3 -14 11 -14 19 0 8 -10 14 -25 14 -19 0
-25 5 -25 22 0 19 1 20 18 5 9 -9 33 -15 52 -15z m520 -12 c-15 -28 -20 -23
-13 13 4 18 9 25 15 19 6 -6 6 -18 -2 -32z m-5032 -32 l-3 -23 -13 23 c-11 19
-11 26 0 39 12 15 13 15 16 0 2 -9 2 -27 0 -39z m1177 42 c-3 -5 -10 -10 -16
-10 -5 0 -9 5 -9 10 0 6 7 10 16 10 8 0 12 -4 9 -10z m3540 -20 c-5 -8 -11 -8
-17 -2 -6 6 -7 16 -3 22 5 8 11 8 17 2 6 -6 7 -16 3 -22z m-4122 -21 c-6 -23
-29 -25 -37 -3 -10 25 -7 32 12 36 21 5 31 -8 25 -33z m4307 31 c0 -5 -2 -10
-4 -10 -3 0 -8 5 -11 10 -3 6 -1 10 4 10 6 0 11 -4 11 -10z m-3520 -10 c0 -5
-4 -10 -10 -10 -5 0 -10 5 -10 10 0 6 5 10 10 10 6 0 10 -4 10 -10z m3283 -25
c-7 -21 -13 -19 -13 6 0 11 4 18 10 14 5 -3 7 -12 3 -20z m367 -5 c-8 -5 -19
-10 -25 -10 -5 0 -3 5 5 10 8 5 20 10 25 10 6 0 3 -5 -5 -10z"/>
<path d="M15745 5010 c-3 -5 -1 -10 4 -10 6 0 11 5 11 10 0 6 -2 10 -4 10 -3
0 -8 -4 -11 -10z"/>
<path d="M15650 4860 c0 -5 7 -10 16 -10 8 0 12 5 9 10 -3 6 -10 10 -16 10 -5
0 -9 -4 -9 -10z"/>
<path d="M15705 4850 c3 -5 11 -10 16 -10 6 0 7 5 4 10 -3 6 -11 10 -16 10 -6
0 -7 -4 -4 -10z"/>
<path d="M18340 4350 c0 -11 5 -20 10 -20 6 0 10 9 10 20 0 11 -4 20 -10 20
-5 0 -10 -9 -10 -20z"/>
<path d="M18305 4350 c3 -5 8 -10 11 -10 2 0 4 5 4 10 0 6 -5 10 -11 10 -5 0
-7 -4 -4 -10z"/>
<path d="M18330 4305 c0 -8 5 -15 10 -15 6 0 10 7 10 15 0 8 -4 15 -10 15 -5
0 -10 -7 -10 -15z"/>
<path d="M18460 4300 c0 -5 7 -10 16 -10 8 0 12 5 9 10 -3 6 -10 10 -16 10 -5
0 -9 -4 -9 -10z"/>
<path d="M17290 3979 c0 -5 5 -7 10 -4 6 3 10 8 10 11 0 2 -4 4 -10 4 -5 0
-10 -5 -10 -11z"/>
<path d="M16870 3251 l-95 -17 4 -34 c3 -19 5 -61 5 -92 l1 -58 158 0 c86 0
157 2 157 5 0 16 -31 63 -45 69 -9 3 -55 9 -101 13 -47 3 -86 9 -89 12 -2 4 0
13 6 21 6 10 9 11 9 3 0 -7 5 -13 11 -13 5 0 7 5 4 10 -3 6 2 10 12 11 104 6
154 18 160 38 2 9 9 24 14 34 8 15 3 17 -53 16 -35 -1 -106 -9 -158 -18z m-20
-77 c0 -8 -5 -12 -10 -9 -6 4 -8 11 -5 16 9 14 15 11 15 -7z"/>
<path d="M16505 3192 c-40 -13 -105 -56 -105 -69 0 -7 -4 -13 -9 -13 -18 0 1
-38 22 -45 55 -18 54 -18 125 -16 l62 1 0 34 c0 18 -8 44 -18 57 -10 13 -21
32 -25 42 -7 18 -18 20 -52 9z m-37 -84 c17 -17 15 -28 -7 -28 -19 0 -35 23
-24 34 9 9 18 7 31 -6z"/>
<path d="M16418 3183 c7 -3 16 -2 19 1 4 3 -2 6 -13 5 -11 0 -14 -3 -6 -6z"/>
<path d="M17273 3119 c-21 -6 -33 -16 -33 -27 0 -10 -5 -23 -12 -30 -18 -18
-4 -24 64 -26 51 -1 62 2 59 14 -2 8 -5 26 -6 40 -1 14 -3 28 -4 33 -1 9 -27
8 -68 -4z"/>
<path d="M18620 3260 c0 -5 5 -10 10 -10 6 0 10 5 10 10 0 6 -4 10 -10 10 -5
0 -10 -4 -10 -10z"/>
<path d="M18560 3231 c0 -5 9 -16 20 -26 19 -18 20 -17 20 2 0 12 -8 23 -20
26 -11 3 -20 2 -20 -2z"/>
<path d="M15880 2094 c0 -14 3 -14 15 -4 8 7 15 14 15 16 0 2 -7 4 -15 4 -8 0
-15 -7 -15 -16z"/>
<path d="M15926 2091 c-4 -6 -12 -9 -17 -6 -5 4 -9 0 -9 -7 0 -19 53 -48 87
-48 25 1 26 2 11 14 -10 7 -15 15 -12 19 3 3 -5 8 -18 12 -13 4 -26 12 -29 17
-4 6 -9 6 -13 -1z"/>
<path d="M16870 1180 c0 -5 5 -10 10 -10 6 0 10 5 10 10 0 6 -4 10 -10 10 -5
0 -10 -4 -10 -10z"/>
<path d="M16900 1170 c0 -5 7 -10 15 -10 7 0 18 -8 24 -17 5 -10 13 -15 17
-10 4 4 -1 16 -11 27 -19 21 -45 27 -45 10z"/>
<path d="M16935 1091 c-3 -5 -2 -12 3 -15 12 -7 52 4 52 15 0 12 -47 12 -55 0z"/>
<path d="M15362 1030 c0 -14 2 -19 5 -12 2 6 2 18 0 25 -3 6 -5 1 -5 -13z"/>
<path d="M18935 620 c3 -5 10 -10 16 -10 5 0 9 5 9 10 0 6 -7 10 -16 10 -8 0
-12 -4 -9 -10z"/>
<path d="M15495 440 c4 -6 11 -8 16 -5 14 9 11 15 -7 15 -8 0 -12 -5 -9 -10z"/>
<path d="M15449 330 c-7 -35 -4 -48 7 -38 3 4 4 21 2 40 l-3 33 -6 -35z"/>
<path d="M17912 11960 c0 -14 2 -19 5 -12 2 6 2 18 0 25 -3 6 -5 1 -5 -13z"/>
<path d="M15362 11647 c-65 -67 -105 -116 -126 -157 -4 -8 10 5 31 30 21 24
69 79 106 122 37 43 67 78 65 78 -2 0 -36 -33 -76 -73z"/>
<path d="M15168 11428 c-24 -24 -60 -57 -80 -74 -20 -18 -41 -41 -47 -51 -5
-11 -27 -40 -47 -64 -20 -24 -45 -63 -56 -86 -10 -22 -34 -65 -54 -95 -44 -63
-94 -166 -94 -191 0 -9 -11 -40 -24 -68 -14 -28 -30 -76 -37 -107 -6 -31 -16
-65 -21 -75 -5 -10 -7 -23 -5 -30 2 -7 15 24 29 68 14 44 40 109 57 145 17 36
31 71 31 78 0 6 4 12 10 12 5 0 17 17 27 38 9 20 23 43 30 50 7 7 9 20 6 28
-4 11 0 15 13 12 14 -2 18 4 20 30 2 39 14 56 15 21 0 -19 3 -16 16 16 9 22
24 47 33 55 10 8 27 35 39 59 13 24 35 55 50 70 14 14 27 30 27 35 1 4 6 15
12 25 27 39 59 82 80 111 32 42 22 38 -30 -12z"/>
<path d="M15326 11232 c-3 -6 -1 -14 5 -17 14 -9 20 -2 10 14 -6 8 -11 9 -15
3z"/>
<path d="M15190 11010 c0 -5 5 -10 10 -10 6 0 10 5 10 10 0 6 -4 10 -10 10 -5
0 -10 -4 -10 -10z"/>
<path d="M8997 10933 c-4 -3 -7 -48 -7 -100 0 -86 1 -93 20 -93 17 0 20 7 20
40 0 39 1 40 35 40 69 0 85 85 19 110 -29 11 -78 13 -87 3z m71 -29 c34 -10
26 -48 -10 -52 -25 -3 -28 0 -28 27 0 33 2 34 38 25z"/>
<path d="M9710 10925 c0 -8 7 -15 15 -15 12 0 15 -16 15 -85 0 -69 3 -85 15
-85 12 0 15 18 15 100 l0 100 -30 0 c-20 0 -30 -5 -30 -15z"/>
<path d="M9165 10875 c-51 -50 -16 -140 52 -136 15 1 40 2 56 2 l27 0 0 74 c0
69 -13 103 -29 77 -4 -7 -12 -8 -21 -2 -26 17 -60 11 -85 -15z m93 -48 c4 -35
-13 -57 -43 -57 -24 0 -35 17 -35 54 0 31 9 37 45 34 25 -2 31 -8 33 -31z"/>
<path d="M9352 10884 c-36 -25 -25 -55 28 -81 37 -17 42 -23 27 -29 -10 -3
-29 -1 -43 6 -28 16 -43 6 -28 -18 13 -21 80 -28 100 -11 25 20 12 52 -28 72
-21 10 -38 23 -38 27 0 17 19 20 33 5 20 -19 47 -19 47 -1 0 17 -38 46 -60 46
-9 0 -26 -7 -38 -16z"/>
<path d="M9495 10875 c-52 -51 -22 -136 47 -138 42 -1 73 21 83 60 19 78 -74
134 -130 78z m93 -54 c7 -46 -56 -72 -78 -32 -14 28 -13 38 11 62 18 18 23 19
42 6 12 -8 23 -24 25 -36z"/>
<path d="M9802 10873 c2 -10 10 -18 18 -18 8 0 16 8 18 18 2 12 -3 17 -18 17
-15 0 -20 -5 -18 -17z"/>
<path d="M15018 10873 c7 -3 16 -2 19 1 4 3 -2 6 -13 5 -11 0 -14 -3 -6 -6z"/>
<path d="M9807 10774 c-14 -15 -6 -34 14 -34 14 0 19 5 17 17 -3 18 -20 27
-31 17z"/>
<path d="M14895 10700 c-3 -5 -1 -10 4 -10 6 0 11 5 11 10 0 6 -2 10 -4 10 -3
0 -8 -4 -11 -10z"/>
<path d="M19131 10684 c0 -11 3 -14 6 -6 3 7 2 16 -1 19 -3 4 -6 -2 -5 -13z"/>
<path d="M19309 10627 c22 -44 44 -96 47 -118 4 -21 11 -36 15 -33 15 9 66
-134 105 -288 22 -91 38 -88 32 5 -4 58 -12 85 -41 137 -19 36 -38 76 -42 90
-14 49 -115 247 -136 266 -16 14 -11 -1 20 -59z"/>
<path d="M19152 10638 c6 -18 28 -21 28 -4 0 9 -7 16 -16 16 -9 0 -14 -5 -12
-12z"/>
<path d="M14669 10514 c-7 -16 -13 -45 -14 -64 -1 -19 -6 -73 -10 -120 -4 -53
-3 -94 3 -110 6 -14 11 -18 12 -10 0 8 2 69 4 135 2 66 10 135 16 153 15 41 5
55 -11 16z"/>
<path d="M9510 9551 l0 -171 25 0 c24 0 24 0 27 113 l3 112 49 -113 c63 -143
70 -144 132 -7 25 55 50 104 55 110 5 5 9 -34 9 -103 0 -105 1 -112 20 -112
19 0 20 7 20 170 l0 170 -23 0 c-21 0 -31 -17 -82 -130 -31 -71 -60 -130 -64
-130 -3 0 -31 58 -62 128 -50 112 -60 127 -83 130 l-26 3 0 -170z"/>
<path d="M9985 9640 c-90 -37 -100 -193 -16 -243 67 -39 169 -9 197 58 40 97
-21 196 -121 194 -22 0 -49 -4 -60 -9z m116 -59 c21 -22 29 -39 29 -66 0 -48
-44 -95 -90 -95 -41 0 -80 41 -80 86 0 93 80 136 141 75z"/>
<path d="M10230 9515 l0 -135 25 0 c25 0 25 1 25 88 0 98 14 132 56 132 19 0
24 5 24 25 0 29 -24 33 -58 9 -20 -14 -22 -14 -22 0 0 10 -9 16 -25 16 l-25 0
0 -135z"/>
<path d="M10465 9641 c-80 -35 -94 -172 -25 -233 39 -36 113 -39 154 -7 l26
20 0 -20 c0 -14 6 -21 20 -21 19 0 20 7 20 135 0 128 -1 135 -20 135 -14 0
-20 -7 -20 -22 0 -20 -1 -21 -20 -3 -22 20 -104 30 -135 16z m120 -56 c19 -18
25 -35 25 -70 0 -106 -120 -132 -160 -36 -36 89 70 172 135 106z"/>
<path d="M8849 9601 c-17 -18 -29 -40 -29 -56 0 -16 12 -38 29 -56 18 -17 40
-29 56 -29 16 0 38 12 56 29 17 18 29 40 29 56 0 16 -12 38 -29 56 -18 17 -40
29 -56 29 -16 0 -38 -12 -56 -29z"/>
<path d="M10947 9023 c-4 -3 -7 -17 -7 -30 0 -18 5 -23 25 -23 14 0 28 7 31
15 11 27 -30 58 -49 38z"/>
<path d="M9605 8983 c-15 -39 -115 -316 -115 -319 0 -2 11 -4 23 -4 19 0 28 9
40 40 l15 40 65 0 c69 0 81 -7 92 -53 5 -20 13 -27 31 -27 13 0 24 6 23 13 0
6 -26 82 -57 167 -53 142 -60 155 -83 158 -18 2 -29 -3 -34 -15z m60 -126 c14
-37 25 -72 25 -77 0 -11 -93 -14 -103 -4 -3 3 6 39 21 79 15 41 28 73 29 71 1
-1 14 -32 28 -69z"/>
<path d="M9840 8795 c0 -128 1 -135 20 -135 18 0 20 7 20 74 0 108 17 146 68
146 17 0 22 6 22 25 0 19 -5 25 -23 25 -12 0 -33 -7 -45 -16 -20 -14 -22 -14
-22 0 0 9 -9 16 -20 16 -19 0 -20 -7 -20 -135z"/>
<path d="M10058 8914 c-37 -20 -58 -63 -58 -119 0 -88 47 -135 136 -135 39 0
51 5 81 35 34 34 37 55 6 55 -9 0 -26 -11 -39 -25 -14 -16 -34 -25 -52 -25
-36 0 -82 34 -82 61 0 18 8 19 106 19 l106 0 -6 38 c-8 44 -34 82 -67 99 -32
17 -98 16 -131 -3z m119 -39 c11 -8 23 -24 26 -35 5 -19 1 -20 -74 -20 -88 0
-100 12 -53 49 31 25 71 27 101 6z"/>
<path d="M10365 8921 c-79 -35 -93 -177 -23 -236 39 -33 113 -35 152 -4 l26
20 0 -80 c0 -74 2 -81 20 -81 19 0 20 7 20 195 0 188 -1 195 -20 195 -14 0
-20 -7 -20 -22 0 -20 -1 -21 -20 -3 -22 20 -104 30 -135 16z m112 -46 c34 -24
47 -76 29 -118 -25 -61 -84 -75 -133 -33 -23 20 -28 32 -28 71 0 39 5 51 28
71 32 27 73 31 104 9z"/>
<path d="M10632 8828 c4 -109 15 -139 55 -157 31 -14 79 -14 105 0 14 8 23 8
31 0 6 -6 19 -11 29 -11 16 0 18 12 18 136 0 135 0 135 -22 132 -22 -3 -23 -9
-28 -101 -5 -108 -16 -127 -71 -127 -50 0 -69 39 -69 141 l0 89 -26 0 -26 0 4
-102z"/>
<path d="M10940 8795 l0 -135 25 0 25 0 0 135 0 135 -25 0 -25 0 0 -135z"/>
<path d="M11060 8735 l0 -195 25 0 c24 0 25 2 25 75 l0 76 30 -16 c64 -33 146
-9 175 51 31 66 11 155 -44 187 -40 24 -102 22 -135 -4 l-26 -20 0 20 c0 16
-6 21 -25 21 l-25 0 0 -195z m191 126 c60 -61 21 -161 -62 -161 -35 0 -79 53
-79 95 0 45 45 95 85 95 16 0 38 -12 56 -29z"/>
<path d="M11428 8912 c-77 -47 -76 -189 1 -235 70 -41 191 -2 191 62 0 20 -39
11 -64 -14 -33 -33 -79 -33 -111 0 -48 47 -36 55 80 55 l105 0 0 26 c0 39 -27
88 -59 107 -37 22 -108 21 -143 -1z m127 -47 c40 -39 32 -45 -55 -45 -49 0
-80 4 -80 10 0 23 50 60 80 60 19 0 40 -9 55 -25z"/>
<path d="M8849 8881 c-17 -18 -29 -40 -29 -56 0 -16 12 -38 29 -56 18 -17 40
-29 56 -29 16 0 38 12 56 29 17 18 29 40 29 56 0 16 -12 38 -29 56 -18 17 -40
29 -56 29 -16 0 -38 -12 -56 -29z"/>
<path d="M14971 8709 c-67 -151 -86 -220 -94 -342 -5 -75 10 -52 30 46 8 39
20 76 27 82 19 15 28 45 13 45 -8 0 -9 3 -1 8 18 11 30 44 29 80 0 17 3 32 8
32 5 0 7 7 3 15 -3 8 -1 27 5 41 17 45 1 39 -20 -7z"/>
<path d="M9510 8110 l0 -170 25 0 c24 0 25 2 25 75 l0 75 55 0 c48 0 55 2 55
20 0 18 -7 20 -55 20 l-55 0 0 55 0 55 70 0 c63 0 70 2 70 20 0 19 -7 20 -95
20 l-95 0 0 -170z"/>
<path d="M9750 8075 l0 -135 25 0 c25 0 25 1 25 90 0 77 3 93 20 110 11 11 29
20 40 20 15 0 20 7 20 25 0 29 -24 33 -58 9 -20 -14 -22 -14 -22 0 0 10 -9 16
-25 16 l-25 0 0 -135z"/>
<path d="M9979 8194 c-81 -52 -79 -195 3 -240 13 -8 45 -13 72 -14 43 0 52 4
85 37 34 36 35 38 13 41 -12 2 -34 -6 -48 -17 -36 -28 -85 -27 -112 2 -12 13
-22 31 -22 40 0 15 13 17 98 17 54 0 101 2 104 5 12 13 -12 89 -35 113 -33 33
-118 41 -158 16z m119 -41 c12 -10 22 -27 24 -38 3 -18 -3 -20 -74 -23 -72 -3
-78 -1 -78 17 0 26 46 61 80 61 15 0 37 -8 48 -17z"/>
<path d="M10265 8198 c-74 -40 -53 -114 40 -140 56 -16 77 -35 64 -59 -14 -27
-75 -26 -91 1 -13 20 -58 28 -58 11 0 -62 116 -96 174 -50 19 15 26 30 26 54
0 38 -23 59 -80 75 -55 15 -77 35 -64 57 16 27 70 29 86 4 7 -12 23 -21 35
-21 26 0 27 1 12 33 -19 43 -97 61 -144 35z"/>
<path d="M10528 8194 c-82 -44 -75 -212 10 -245 36 -14 108 -5 132 16 19 17
20 17 20 -3 0 -15 6 -22 20 -22 19 0 20 7 20 135 0 128 -1 135 -20 135 -13 0
-20 -7 -20 -20 0 -20 0 -20 -32 0 -39 23 -92 25 -130 4z m119 -39 c34 -24 47
-76 29 -118 -25 -61 -84 -75 -133 -33 -23 20 -28 32 -28 71 0 39 5 51 28 71
32 27 73 31 104 9z"/>
<path d="M8849 8161 c-17 -18 -29 -40 -29 -56 0 -16 12 -38 29 -56 18 -17 40
-29 56 -29 16 0 38 12 56 29 17 18 29 40 29 56 0 16 -12 38 -29 56 -18 17 -40
29 -56 29 -16 0 -38 -12 -56 -29z"/>
<path d="M14893 8150 c0 -25 2 -35 4 -22 2 12 2 32 0 45 -2 12 -4 2 -4 -23z"/>
<path d="M14871 8013 c-8 -18 -9 -29 -1 -37 7 -7 10 -2 10 16 0 15 5 28 12 30
8 3 9 6 1 11 -5 3 -15 -5 -22 -20z"/>
<path d="M14866 7915 c-3 -8 -1 -15 4 -15 6 0 10 7 10 15 0 8 -2 15 -4 15 -2
0 -6 -7 -10 -15z"/>
<path d="M14845 7826 c-4 -31 -5 -60 -1 -63 3 -4 6 5 6 20 0 14 5 38 10 53 7
17 7 31 1 37 -6 6 -12 -12 -16 -47z"/>
<path d="M14806 7616 c-10 -22 -16 -57 -15 -103 1 -37 3 -57 6 -43 2 14 11 58
19 98 18 83 14 99 -10 48z"/>
<path d="M9880 7400 l0 -180 25 0 c25 0 25 0 25 93 0 85 2 96 23 115 30 28 68
28 95 -1 19 -20 22 -35 22 -115 0 -91 0 -92 25 -92 25 0 25 0 25 95 0 137 -24
175 -107 175 -21 0 -49 -7 -61 -16 l-22 -15 0 60 c0 58 -1 61 -25 61 l-25 0 0
-180z"/>
<path d="M11092 7403 c3 -176 3 -178 26 -181 l22 -3 0 180 0 181 -25 0 -25 0
2 -177z"/>
<path d="M9582 7543 c-85 -42 -113 -170 -56 -258 23 -36 87 -65 141 -65 56 0
124 37 142 77 10 21 8 23 -15 23 -15 0 -41 -13 -61 -30 -112 -99 -254 74 -156
190 42 50 120 52 164 5 14 -14 35 -25 52 -25 27 0 27 1 13 28 -32 63 -149 92
-224 55z"/>
<path d="M11550 7520 c0 -23 -4 -30 -20 -30 -13 0 -20 -7 -20 -20 0 -13 7 -20
20 -20 19 0 20 -7 20 -99 0 -92 2 -101 22 -115 12 -9 37 -16 55 -16 26 0 33 4
33 20 0 15 -7 20 -25 20 -34 0 -47 35 -43 119 l3 66 33 3 c24 2 32 8 32 23 0
15 -7 19 -35 19 -32 0 -35 2 -35 30 0 23 -4 30 -20 30 -16 0 -20 -7 -20 -30z"/>
<path d="M10230 7468 c-71 -48 -78 -152 -14 -216 33 -33 37 -34 95 -30 51 4
65 9 92 36 29 30 32 38 32 97 0 59 -3 67 -32 96 -26 26 -41 33 -85 37 -44 3
-59 0 -88 -20z m131 -47 c21 -22 29 -39 29 -66 0 -45 -45 -95 -85 -95 -40 0
-85 50 -85 95 0 45 45 95 85 95 16 0 38 -12 56 -29z"/>
<path d="M10538 7472 c-55 -33 -74 -121 -42 -188 21 -43 59 -64 120 -64 39 0
51 5 80 34 19 19 34 39 34 45 0 20 -42 11 -66 -14 -52 -56 -134 -15 -134 68 0
85 81 129 134 72 24 -25 66 -34 66 -14 0 6 -15 26 -34 45 -29 29 -40 34 -82
34 -28 0 -61 -8 -76 -18z"/>
<path d="M10830 7468 c-71 -48 -78 -152 -14 -216 33 -33 37 -34 95 -30 51 4
65 9 92 36 29 30 32 38 32 97 0 59 -3 67 -32 96 -26 26 -41 33 -85 37 -44 3
-59 0 -88 -20z m131 -47 c21 -22 29 -39 29 -66 0 -45 -45 -95 -85 -95 -40 0
-85 50 -85 95 0 45 45 95 85 95 16 0 38 -12 56 -29z"/>
<path d="M11258 7474 c-81 -43 -75 -213 8 -244 43 -17 99 -12 128 11 l26 20 0
-20 c0 -16 6 -21 25 -21 l25 0 0 135 0 135 -25 0 c-19 0 -25 -5 -25 -21 l0
-20 -26 20 c-32 25 -96 27 -136 5z m129 -48 c23 -20 28 -32 28 -71 0 -39 -5
-51 -28 -71 -61 -52 -137 -14 -137 69 0 85 76 126 137 73z"/>
<path d="M11758 7474 c-37 -20 -58 -63 -58 -119 0 -88 47 -135 136 -135 39 0
51 5 80 34 19 19 34 39 34 45 0 20 -42 11 -66 -14 -14 -16 -34 -25 -52 -25
-36 0 -82 34 -82 61 0 18 8 19 106 19 l106 0 -6 38 c-8 44 -34 82 -67 99 -32
17 -98 16 -131 -3z m107 -30 c8 -4 22 -19 31 -35 l15 -29 -81 0 c-89 0 -102
12 -54 49 27 21 59 26 89 15z"/>
<path d="M8849 7441 c-17 -18 -29 -40 -29 -56 0 -16 12 -38 29 -56 18 -17 40
-29 56 -29 16 0 38 12 56 29 17 18 29 40 29 56 0 16 -12 38 -29 56 -18 17 -40
29 -56 29 -16 0 -38 -12 -56 -29z"/>
<path d="M14752 7353 c-33 -91 -43 -156 -62 -408 -5 -71 -14 -146 -20 -165
-12 -42 -13 -90 -2 -90 5 0 14 42 20 93 28 222 44 322 53 333 5 7 16 63 24
125 8 63 17 133 21 157 3 23 5 42 2 42 -2 0 -18 -39 -36 -87z"/>
<path d="M9760 6613 c-21 -7 -40 -34 -40 -55 0 -24 26 -23 33 2 3 14 14 20 31
20 22 0 26 -5 26 -28 0 -20 -14 -41 -50 -77 -27 -27 -50 -53 -50 -57 0 -4 32
-8 70 -8 56 0 70 3 70 15 0 11 -11 15 -37 15 l-37 0 26 28 c55 58 62 100 22
131 -27 21 -37 24 -64 14z"/>
<path d="M8997 6603 c-4 -3 -7 -48 -7 -100 0 -86 1 -93 20 -93 17 0 20 7 20
40 0 39 1 40 35 40 69 0 85 85 19 110 -29 11 -78 13 -87 3z m71 -29 c34 -10
26 -48 -10 -52 -25 -3 -28 0 -28 27 0 33 2 34 38 25z"/>
<path d="M9165 6545 c-51 -50 -16 -140 52 -136 15 1 40 2 56 2 l27 0 0 74 c0
69 -13 103 -29 77 -4 -7 -12 -8 -21 -2 -26 17 -60 11 -85 -15z m93 -48 c4 -35
-13 -57 -43 -57 -24 0 -35 17 -35 54 0 31 9 37 45 34 25 -2 31 -8 33 -31z"/>
<path d="M9352 6554 c-36 -25 -25 -55 28 -81 37 -17 42 -23 27 -29 -10 -3 -29
-1 -43 6 -28 16 -43 6 -28 -18 13 -21 80 -28 100 -11 25 20 12 52 -28 72 -21
10 -38 23 -38 27 0 17 19 20 33 5 20 -19 47 -19 47 -1 0 17 -38 46 -60 46 -9
0 -26 -7 -38 -16z"/>
<path d="M9495 6545 c-52 -51 -22 -136 47 -138 42 -1 73 21 83 60 19 78 -74
134 -130 78z m93 -54 c7 -46 -56 -72 -78 -32 -14 28 -13 38 11 62 18 18 23 19
42 6 12 -8 23 -24 25 -36z"/>
<path d="M9872 6543 c2 -10 10 -18 18 -18 8 0 16 8 18 18 2 12 -3 17 -18 17
-15 0 -20 -5 -18 -17z"/>
<path d="M9877 6444 c-14 -15 -6 -34 14 -34 14 0 19 5 17 17 -3 18 -20 27 -31
17z"/>
<path d="M9880 5220 l0 -180 25 0 c25 0 25 1 25 90 0 83 2 93 25 115 13 14 34
25 45 25 12 0 32 -11 45 -25 23 -22 25 -32 25 -115 l0 -90 26 0 26 0 -4 111
c-3 107 -4 112 -31 135 -21 18 -40 24 -77 24 -27 0 -52 -4 -55 -10 -15 -24
-25 -6 -25 45 0 52 -1 55 -25 55 l-25 0 0 -180z"/>
<path d="M11090 5220 l0 -180 25 0 25 0 0 180 0 180 -25 0 -25 0 0 -180z"/>
<path d="M9621 5379 c-77 -17 -126 -82 -125 -169 0 -104 55 -162 159 -168 71
-4 120 18 148 67 l19 31 -29 0 c-18 0 -38 -9 -53 -25 -47 -50 -143 -38 -174
24 -22 41 -20 109 3 147 36 60 124 69 171 19 14 -15 35 -25 52 -25 34 0 34 3
7 41 -35 50 -108 74 -178 58z"/>
<path d="M11547 5374 c-4 -4 -7 -20 -7 -36 0 -18 -5 -28 -15 -28 -8 0 -15 -9
-15 -20 0 -11 6 -20 14 -20 10 0 15 -23 18 -94 5 -116 19 -139 82 -134 29 2
42 8 44 21 2 11 -3 17 -16 17 -48 0 -52 7 -52 101 l0 89 36 0 c28 0 35 3 32
18 -2 11 -14 18 -35 20 -28 3 -32 7 -35 35 -2 23 -9 33 -23 35 -12 2 -24 0
-28 -4z"/>
<path d="M10214 5277 c-31 -28 -37 -42 -41 -84 -10 -94 41 -153 132 -153 85 0
135 50 135 135 0 87 -50 135 -139 135 -44 0 -56 -5 -87 -33z m147 -36 c21 -22
29 -39 29 -66 0 -44 -45 -95 -83 -95 -87 0 -116 137 -37 177 38 19 59 16 91
-16z"/>
<path d="M10538 5294 c-71 -38 -79 -179 -14 -233 25 -21 84 -30 123 -19 40 11
83 49 83 73 0 24 -40 18 -66 -10 -25 -27 -68 -33 -95 -12 -54 42 -50 140 8
166 35 16 48 14 81 -14 30 -25 72 -34 72 -14 0 63 -120 102 -192 63z"/>
<path d="M10814 5277 c-31 -28 -37 -42 -41 -84 -10 -94 41 -153 132 -153 85 0
135 50 135 135 0 87 -50 135 -139 135 -44 0 -56 -5 -87 -33z m147 -36 c21 -22
29 -39 29 -66 0 -44 -45 -95 -83 -95 -87 0 -116 137 -37 177 38 19 59 16 91
-16z"/>
<path d="M11242 5285 c-38 -32 -56 -96 -41 -151 25 -92 107 -123 198 -75 17
10 21 9 21 -4 0 -9 9 -15 25 -15 l25 0 0 135 0 135 -25 0 c-16 0 -25 -6 -25
-15 0 -19 -9 -19 -34 0 -33 25 -109 19 -144 -10z m128 -30 c93 -48 28 -205
-69 -165 -57 23 -69 104 -22 151 33 33 50 35 91 14z"/>
<path d="M11765 5301 c-75 -31 -93 -172 -30 -231 30 -29 87 -41 132 -28 40 11
83 49 83 73 0 24 -42 18 -69 -10 -30 -33 -74 -33 -106 0 -14 13 -25 29 -25 34
0 6 42 11 103 13 l102 3 3 27 c4 38 -23 91 -57 111 -30 18 -101 22 -136 8z
m109 -52 c47 -37 35 -49 -49 -49 -41 0 -75 3 -75 6 0 16 24 46 43 54 35 14 52
12 81 -11z"/>
<path d="M12140 5175 l0 -135 25 0 c25 0 25 0 25 94 0 90 1 96 26 115 33 26
55 26 85 2 22 -17 24 -29 27 -115 4 -94 4 -96 28 -96 24 0 24 2 24 89 0 101
-12 143 -45 165 -28 18 -97 21 -126 6 -13 -7 -19 -7 -19 0 0 5 -11 10 -25 10
l-25 0 0 -135z"/>
<path d="M12488 5294 c-37 -20 -58 -63 -58 -119 0 -97 54 -143 163 -137 31 2
87 51 87 76 0 25 -40 19 -66 -9 -38 -41 -94 -31 -123 23 l-12 22 106 0 105 0
0 35 c0 48 -24 91 -60 110 -37 19 -107 19 -142 -1z m111 -39 c16 -8 31 -23 34
-35 5 -19 1 -20 -74 -20 l-79 0 11 24 c20 42 63 55 108 31z"/>
<path d="M12772 5285 c-79 -67 -52 -218 45 -244 34 -10 97 2 108 19 4 6 11 10
17 10 15 0 0 -71 -19 -92 -25 -28 -89 -24 -117 7 -25 27 -66 34 -66 11 0 -7 9
-25 20 -38 46 -59 149 -64 204 -9 l31 31 3 165 3 165 -25 0 c-16 0 -26 -6 -26
-15 0 -19 -9 -19 -34 0 -33 25 -109 19 -144 -10z m128 -30 c93 -48 28 -205
-69 -165 -57 23 -69 104 -22 151 33 33 50 35 91 14z"/>
<path d="M13070 5175 l0 -135 25 0 c25 0 25 1 25 90 0 77 3 93 20 110 11 11
29 20 40 20 15 0 20 7 20 25 0 28 -25 34 -61 15 -13 -7 -19 -7 -19 0 0 5 -11
10 -25 10 l-25 0 0 -135z"/>
<path d="M13289 5293 c-38 -24 -59 -65 -59 -118 0 -88 51 -138 138 -137 52 1
85 21 112 65 37 60 21 141 -36 186 -33 26 -116 28 -155 4z m136 -54 c26 -26
27 -99 2 -127 -39 -43 -113 -35 -136 14 -20 44 -13 83 19 116 26 25 36 29 63
24 18 -4 41 -16 52 -27z"/>
<path d="M8845 5265 c-17 -16 -25 -35 -25 -60 0 -25 8 -44 25 -60 16 -17 35
-25 60 -25 25 0 44 8 60 25 17 16 25 35 25 60 0 25 -8 44 -25 60 -16 17 -35
25 -60 25 -25 0 -44 -8 -60 -25z"/>
<path d="M14486 5011 c-4 -5 -11 -45 -18 -89 -9 -69 -9 -85 6 -119 l16 -38 -5
40 c-3 22 -1 78 4 125 9 84 9 101 -3 81z"/>
<path d="M14494 4731 c3 -18 6 -44 6 -57 0 -13 5 -24 11 -24 8 0 9 11 4 33 -4
17 -8 40 -9 49 -1 10 -6 21 -11 25 -4 5 -5 -7 -1 -26z"/>
<path d="M14541 4633 c-1 -27 -17 -30 -25 -5 -3 9 -4 -19 -1 -62 2 -51 8 -82
17 -87 10 -7 10 -9 0 -9 -8 0 -10 -9 -6 -27 11 -46 24 -50 24 -9 0 34 2 37 23
31 22 -7 22 -7 2 10 -16 13 -16 15 -3 11 9 -2 22 2 30 11 11 14 10 15 -10 9
-20 -7 -22 -4 -22 28 0 20 -4 36 -10 36 -5 0 -10 9 -10 20 0 19 1 20 24 4 14
-8 26 -24 28 -35 3 -19 3 -19 16 1 12 20 10 22 -17 33 -17 6 -31 17 -31 25 0
7 -4 11 -9 7 -5 -3 -12 3 -14 12 -4 14 -5 13 -6 -4z"/>
<path d="M14570 4390 c0 -5 -8 -10 -17 -10 -13 0 -12 -4 7 -14 14 -7 29 -10
34 -8 5 3 1 8 -9 12 -17 6 -16 8 10 18 l30 10 -27 1 c-16 1 -28 -3 -28 -9z"/>
<path d="M14476 4091 c-14 -22 -10 -104 6 -133 14 -26 15 -23 11 50 -5 92 -7
100 -17 83z"/>
<path d="M9750 3707 c-25 -12 -41 -57 -21 -57 6 0 20 9 31 20 24 24 52 16 48
-14 -2 -13 -12 -22 -25 -24 -28 -4 -31 -32 -4 -32 24 0 45 -25 37 -45 -7 -19
-55 -20 -62 0 -4 8 -15 15 -25 15 -21 0 -16 -27 9 -47 20 -16 84 -17 100 -1
15 15 16 74 2 83 -7 4 -6 13 1 27 16 29 3 67 -27 78 -32 12 -34 12 -64 -3z"/>
<path d="M8997 3703 c-4 -3 -7 -48 -7 -100 0 -86 1 -93 20 -93 17 0 20 7 20
40 0 39 1 40 35 40 69 0 85 85 19 110 -29 11 -78 13 -87 3z m71 -29 c34 -10
26 -48 -10 -52 -25 -3 -28 0 -28 27 0 33 2 34 38 25z"/>
<path d="M9165 3645 c-51 -50 -16 -140 52 -136 15 1 40 2 56 2 l27 0 0 74 c0
69 -13 103 -29 77 -4 -7 -12 -8 -21 -2 -26 17 -60 11 -85 -15z m93 -48 c4 -35
-13 -57 -43 -57 -24 0 -35 17 -35 54 0 31 9 37 45 34 25 -2 31 -8 33 -31z"/>
<path d="M9352 3654 c-36 -25 -25 -55 28 -81 37 -17 42 -23 27 -29 -10 -3 -29
-1 -43 6 -28 16 -43 6 -28 -18 13 -21 80 -28 100 -11 25 20 12 52 -28 72 -21
10 -38 23 -38 27 0 17 19 20 33 5 20 -19 47 -19 47 -1 0 17 -38 46 -60 46 -9
0 -26 -7 -38 -16z"/>
<path d="M9495 3645 c-52 -51 -22 -136 47 -138 42 -1 73 21 83 60 19 78 -74
134 -130 78z m93 -54 c7 -46 -56 -72 -78 -32 -14 28 -13 38 11 62 18 18 23 19
42 6 12 -8 23 -24 25 -36z"/>
<path d="M9874 3649 c-8 -14 11 -33 25 -25 6 4 11 14 11 22 0 16 -26 19 -36 3z"/>
<path d="M9875 3541 c-8 -15 3 -31 21 -31 9 0 14 7 12 17 -4 20 -24 28 -33 14z"/>
<path d="M10184 2506 c-10 -26 4 -46 31 -46 23 0 26 4 23 28 -3 31 -44 45 -54
18z"/>
<path d="M9880 2330 l0 -180 25 0 c25 0 25 1 25 90 0 83 2 93 25 115 13 14 34
25 45 25 12 0 32 -11 45 -25 23 -22 25 -32 25 -115 l0 -90 26 0 26 0 -4 111
c-3 107 -4 112 -31 135 -21 18 -40 24 -77 24 -27 0 -52 -4 -55 -10 -15 -24
-25 -6 -25 45 0 52 -1 55 -25 55 l-25 0 0 -180z"/>
<path d="M11210 2449 l0 -60 -22 15 c-36 26 -111 21 -147 -10 -82 -68 -54
-216 45 -243 36 -10 85 -1 110 20 11 9 14 8 14 -5 0 -11 9 -16 30 -16 l30 0 0
180 0 180 -30 0 -30 0 0 -61z m-47 -81 c34 -18 46 -40 46 -83 0 -22 -5 -47
-12 -56 -34 -44 -103 -47 -132 -6 -18 26 -20 97 -2 119 28 35 65 45 100 26z"/>
<path d="M12050 2330 l0 -180 25 0 c24 0 25 2 25 75 0 92 18 140 54 149 26 6
64 -7 78 -28 4 -6 8 -53 8 -103 0 -92 0 -93 25 -93 l25 0 0 106 c0 103 -1 106
-29 135 -25 24 -38 29 -80 29 -27 0 -53 -4 -56 -10 -15 -24 -25 -6 -25 45 0
52 -1 55 -25 55 l-25 0 0 -180z"/>
<path d="M13260 2330 l0 -180 25 0 25 0 0 180 0 180 -25 0 -25 0 0 -180z"/>
<path d="M9621 2489 c-77 -17 -126 -82 -125 -169 0 -104 55 -162 159 -168 71
-4 120 18 148 67 l19 31 -29 0 c-18 0 -38 -9 -53 -25 -47 -50 -143 -38 -174
24 -22 41 -20 109 3 147 36 60 124 69 171 19 14 -15 35 -25 52 -25 34 0 34 3
7 41 -35 50 -108 74 -178 58z"/>
<path d="M13717 2484 c-4 -4 -7 -20 -7 -36 0 -18 -5 -28 -15 -28 -8 0 -15 -9
-15 -20 0 -11 6 -20 14 -20 10 0 15 -23 18 -94 5 -116 19 -139 82 -134 29 2
42 8 44 21 2 11 -3 17 -16 17 -48 0 -52 7 -52 101 l0 89 36 0 c28 0 35 3 32
18 -2 11 -14 18 -35 20 -28 3 -32 7 -35 35 -2 23 -9 33 -23 35 -12 2 -24 0
-28 -4z"/>
<path d="M14542 2450 c0 -14 2 -19 5 -12 2 6 2 18 0 25 -3 6 -5 1 -5 -13z"/>
<path d="M10190 2285 l0 -135 25 0 25 0 0 135 0 135 -25 0 -25 0 0 -135z"/>
<path d="M10310 2219 l0 -200 23 3 c20 3 22 9 25 80 l3 78 25 -16 c33 -22 94
-21 132 2 81 47 82 190 3 237 -36 21 -109 22 -139 1 -20 -14 -22 -14 -22 0 0
10 -9 16 -25 16 l-25 0 0 -201z m164 151 c33 -12 61 -69 52 -105 -9 -37 -50
-75 -81 -75 -40 0 -85 50 -85 95 0 27 8 44 29 66 32 31 45 34 85 19z"/>
<path d="M10646 2399 c-56 -44 -20 -116 70 -138 48 -12 64 -32 44 -56 -18 -21
-56 -19 -80 5 -11 11 -31 20 -45 20 -21 0 -23 -3 -16 -22 27 -74 166 -85 195
-16 24 57 3 86 -84 115 -60 20 -75 44 -40 63 29 15 67 5 75 -20 4 -13 15 -20
31 -20 32 0 32 33 -1 65 -32 33 -110 35 -149 4z"/>
<path d="M11378 2404 c-37 -20 -58 -63 -58 -119 0 -97 54 -143 163 -137 31 2
87 51 87 76 0 25 -40 19 -66 -9 -38 -41 -94 -31 -123 23 l-12 22 106 0 105 0
0 35 c0 48 -24 91 -60 110 -37 19 -107 19 -142 -1z m111 -39 c16 -8 31 -23 34
-35 5 -19 1 -20 -74 -20 l-79 0 11 24 c20 42 63 55 108 31z"/>
<path d="M11791 2394 c-111 -93 -24 -275 116 -244 36 8 93 57 93 80 0 20 -50
9 -74 -15 -53 -53 -126 -13 -126 68 0 54 22 84 67 93 26 5 37 1 58 -20 32 -32
76 -36 68 -6 -18 69 -141 95 -202 44z"/>
<path d="M12384 2387 c-31 -28 -37 -42 -41 -84 -10 -94 41 -153 132 -153 85 0
135 50 135 135 0 87 -50 135 -139 135 -44 0 -56 -5 -87 -33z m147 -36 c21 -22
29 -39 29 -66 0 -44 -45 -95 -83 -95 -87 0 -116 137 -37 177 38 19 59 16 91
-16z"/>
<path d="M12708 2404 c-71 -38 -79 -179 -14 -233 25 -21 84 -30 123 -19 40 11
83 49 83 73 0 24 -40 18 -66 -10 -25 -27 -68 -33 -95 -12 -54 42 -50 140 8
166 35 16 48 14 81 -14 30 -25 72 -34 72 -14 0 63 -120 102 -192 63z"/>
<path d="M12984 2387 c-31 -28 -37 -42 -41 -84 -10 -94 41 -153 132 -153 85 0
135 50 135 135 0 87 -50 135 -139 135 -44 0 -56 -5 -87 -33z m147 -36 c21 -22
29 -39 29 -66 0 -44 -45 -95 -83 -95 -87 0 -116 137 -37 177 38 19 59 16 91
-16z"/>
<path d="M13412 2395 c-38 -32 -56 -96 -41 -151 25 -92 107 -123 198 -75 17
10 21 9 21 -4 0 -9 9 -15 25 -15 l25 0 0 135 0 135 -25 0 c-16 0 -25 -6 -25
-15 0 -19 -9 -19 -34 0 -33 25 -109 19 -144 -10z m128 -30 c93 -48 28 -205
-69 -165 -57 23 -69 104 -22 151 33 33 50 35 91 14z"/>
<path d="M13935 2411 c-75 -31 -93 -172 -30 -231 30 -29 87 -41 132 -28 40 11
83 49 83 73 0 24 -42 18 -69 -10 -30 -33 -74 -33 -106 0 -14 13 -25 29 -25 34
0 6 42 11 103 13 l102 3 3 27 c4 38 -23 91 -57 111 -30 18 -101 22 -136 8z
m109 -52 c47 -37 35 -49 -49 -49 -41 0 -75 3 -75 6 0 16 24 46 43 54 35 14 52
12 81 -11z"/>
<path d="M8845 2375 c-54 -53 -16 -145 60 -145 49 0 85 36 85 85 0 49 -36 85
-85 85 -25 0 -44 -8 -60 -25z"/>
<path d="M9621 1769 c-77 -17 -126 -82 -125 -169 0 -104 55 -162 159 -168 71
-4 120 18 148 67 l19 31 -29 0 c-18 0 -38 -9 -53 -25 -47 -50 -143 -38 -174
24 -22 41 -20 109 3 147 36 60 124 69 171 19 14 -15 35 -25 52 -25 34 0 34 3
7 41 -35 50 -108 74 -178 58z"/>
<path d="M9931 1687 c-85 -44 -92 -180 -11 -239 33 -24 106 -26 148 -4 84 43
85 198 2 241 -35 18 -106 19 -139 2z m102 -38 c62 -28 62 -140 0 -168 -37 -17
-62 -13 -88 14 -42 41 -31 135 18 155 30 12 42 12 70 -1z"/>
<path d="M10190 1565 l0 -135 25 0 c25 0 25 1 25 90 0 77 3 93 20 110 11 11
29 20 40 20 15 0 20 7 20 25 0 28 -25 34 -61 15 -13 -7 -19 -7 -19 0 0 5 -11
10 -25 10 l-25 0 0 -135z"/>
<path d="M10408 1682 c-79 -48 -75 -197 5 -239 40 -20 100 -20 132 1 22 14 25
15 25 1 0 -9 9 -15 25 -15 l25 0 0 135 0 135 -25 0 c-16 0 -25 -6 -25 -16 0
-14 -2 -14 -22 0 -30 21 -106 20 -140 -2z m133 -51 c21 -22 29 -39 29 -66 0
-44 -45 -95 -83 -95 -87 0 -116 137 -37 177 38 19 59 16 91 -16z"/>
<path d="M10670 1680 c0 -18 7 -20 60 -20 33 0 60 -3 60 -7 0 -5 -27 -48 -60
-98 -83 -124 -82 -125 35 -125 88 0 95 1 95 20 0 18 -7 20 -60 20 -33 0 -60 2
-60 5 0 3 27 46 60 95 33 49 60 98 60 110 0 19 -6 20 -95 20 -88 0 -95 -1 -95
-20z"/>
<path d="M10961 1687 c-85 -44 -92 -180 -11 -239 33 -24 106 -26 148 -4 84 43
85 198 2 241 -35 18 -106 19 -139 2z m102 -38 c28 -12 47 -47 47 -84 0 -81
-82 -123 -135 -70 -42 41 -31 135 18 155 30 12 42 12 70 -1z"/>
<path d="M11220 1565 l0 -135 25 0 c25 0 25 0 25 94 0 90 1 96 26 115 33 26
55 26 85 2 22 -17 24 -29 27 -115 4 -94 4 -96 28 -96 24 0 24 2 24 89 0 101
-12 143 -45 165 -28 18 -97 21 -126 6 -13 -7 -19 -7 -19 0 0 5 -11 10 -25 10
l-25 0 0 -135z"/>
<path d="M11568 1684 c-37 -20 -58 -63 -58 -119 0 -97 54 -143 163 -137 31 2
87 51 87 76 0 25 -40 19 -66 -9 -38 -41 -94 -31 -123 23 l-12 22 106 0 105 0
0 35 c0 48 -24 91 -60 110 -37 19 -107 19 -142 -1z m111 -39 c16 -8 31 -23 34
-35 5 -19 1 -20 -74 -20 l-79 0 11 24 c20 42 63 55 108 31z"/>
<path d="M11835 1675 c-49 -48 -28 -95 55 -126 72 -26 87 -41 65 -63 -22 -22
-62 -20 -82 4 -20 23 -63 27 -63 6 0 -46 81 -81 147 -64 35 9 63 41 63 71 0
28 -53 75 -93 82 -20 4 -43 15 -52 25 -15 16 -15 19 0 34 23 23 52 20 79 -9
30 -32 56 -33 56 -1 0 63 -125 92 -175 41z"/>
<path d="M8845 1655 c-54 -53 -16 -145 60 -145 49 0 85 36 85 85 0 49 -36 85
-85 85 -25 0 -44 -8 -60 -25z"/>
<path d="M15610 1624 l-45 -12 48 -1 c35 -1 47 3 47 14 0 8 -1 14 -2 14 -2 -1
-23 -7 -48 -15z"/>
<path d="M15846 1591 c-4 -7 -5 -15 -2 -18 9 -9 19 4 14 18 -4 11 -6 11 -12 0z"/>
<path d="M15823 1504 c20 -6 20 -6 6 -38 -9 -20 -9 -28 4 -40 14 -15 17 -15
31 0 19 18 20 30 6 39 -6 4 -9 14 -8 23 2 13 -5 17 -27 19 -16 1 -22 -1 -12
-3z"/>
<path d="M15761 1440 c-8 -18 -20 -30 -32 -30 -10 0 -19 -5 -19 -11 0 -7 -8
-18 -17 -25 -17 -12 -17 -13 1 -20 12 -5 21 -2 27 9 6 11 19 15 39 12 16 -2
32 1 35 6 4 5 2 9 -3 9 -14 0 -21 49 -8 53 7 3 8 8 1 15 -7 8 -14 3 -24 -18z"/>
<path d="M15545 1300 c2 -31 15 -37 15 -7 0 15 -4 27 -8 27 -5 0 -8 -9 -7 -20z"/>
<path d="M15572 1278 c-5 -21 -42 -25 -42 -4 0 9 -11 13 -32 12 -26 -1 -34 -6
-36 -25 -2 -13 1 -28 7 -34 8 -8 11 -8 12 1 1 7 2 17 3 24 3 27 27 17 42 -17
17 -41 11 -70 -17 -85 -26 -14 -25 -50 1 -50 11 0 20 -4 20 -9 0 -13 43 -22
51 -10 4 6 9 3 13 -7 6 -15 9 -14 21 10 19 36 19 56 0 56 -11 0 -14 7 -9 24 3
13 1 27 -5 30 -21 13 -12 36 14 36 26 0 29 10 16 44 -10 26 -52 29 -59 4z"/>
<path d="M15718 1203 c7 -3 16 -2 19 1 4 3 -2 6 -13 5 -11 0 -14 -3 -6 -6z"/>
<path d="M15710 1130 c0 -5 7 -10 15 -10 8 0 15 5 15 10 0 6 -7 10 -15 10 -8
0 -15 -4 -15 -10z"/>
<path d="M15665 1100 c3 -5 19 -8 36 -6 46 5 47 16 0 16 -25 0 -40 -4 -36 -10z"/>
<path d="M15623 1062 c-5 -13 -13 -23 -18 -22 -21 3 -14 -18 7 -23 25 -7 17
-21 -19 -31 -16 -5 -23 -2 -26 11 -3 10 -5 -7 -5 -37 1 -43 2 -48 7 -22 7 37
7 37 42 23 26 -9 27 -8 31 27 3 20 1 50 -2 67 -7 30 -7 30 -17 7z"/>
<path d="M10260 890 l0 -180 25 0 25 0 0 180 0 180 -25 0 -25 0 0 -180z"/>
<path d="M15741 1054 c0 -11 3 -14 6 -6 3 7 2 16 -1 19 -3 4 -6 -2 -5 -13z"/>
<path d="M16136 1049 c3 -6 0 -15 -7 -20 -11 -6 -8 -9 8 -9 27 0 40 19 22 31
-20 12 -31 11 -23 -2z"/>
<path d="M9510 880 l0 -170 25 0 c24 0 25 2 25 70 l0 70 50 0 c61 0 97 16 116
51 17 34 18 60 2 94 -18 40 -57 55 -143 55 l-75 0 0 -170z m162 100 c23 -29
23 -36 -7 -65 -18 -18 -35 -25 -65 -25 l-40 0 0 61 0 62 47 -6 c32 -3 53 -12
65 -27z"/>
<path d="M9828 963 c-76 -49 -76 -190 0 -235 29 -17 56 -22 106 -20 31 2 102
65 91 82 -11 18 -43 11 -69 -15 -31 -30 -65 -32 -100 -4 -50 40 -36 49 75 49
l102 0 -5 51 c-7 73 -38 102 -115 106 -43 3 -65 -1 -85 -14z m127 -48 c39 -38
32 -45 -50 -45 -84 0 -96 12 -49 49 35 28 69 26 99 -4z"/>
<path d="M10080 845 l0 -135 24 0 c22 0 23 4 28 90 6 99 21 130 65 130 18 0
23 5 23 25 0 28 -25 34 -63 14 -16 -9 -22 -9 -25 0 -2 6 -15 11 -28 11 l-24 0
0 -135z"/>
<path d="M10412 955 c-38 -32 -56 -96 -41 -151 25 -92 107 -123 198 -75 17 10
21 9 21 -4 0 -9 9 -15 25 -15 l25 0 0 135 0 135 -25 0 c-16 0 -25 -6 -25 -15
0 -19 -9 -19 -34 0 -33 25 -109 19 -144 -10z m128 -30 c93 -48 28 -205 -69
-165 -57 23 -69 104 -22 151 33 33 50 35 91 14z"/>
<path d="M10726 959 c-31 -24 -35 -72 -9 -101 9 -10 41 -26 70 -34 57 -17 73
-35 53 -59 -18 -21 -56 -19 -80 5 -21 21 -70 28 -70 9 0 -19 58 -69 82 -70 86
-4 128 21 128 77 0 38 -20 56 -93 80 -52 17 -67 35 -47 59 19 23 56 18 78 -10
20 -25 62 -35 62 -15 0 20 -29 68 -45 74 -36 13 -102 6 -129 -15z"/>
<path d="M8845 935 c-54 -53 -16 -145 60 -145 49 0 85 36 85 85 0 49 -36 85
-85 85 -25 0 -44 -8 -60 -25z"/>
<path d="M15580 939 c0 -5 10 -9 22 -9 12 0 18 3 14 7 -10 11 -36 12 -36 2z"/>
<path d="M15767 913 c-16 -15 -7 -34 13 -28 11 3 20 2 20 -3 0 -14 -25 -22
-49 -15 -13 3 -21 1 -21 -6 0 -7 5 -9 10 -6 6 3 10 -1 10 -9 0 -8 5 -18 10
-21 18 -11 50 6 50 26 0 11 7 19 18 19 13 1 10 6 -13 25 -32 27 -38 29 -48 18z"/>
<path d="M16555 870 c-7 -12 2 -30 16 -30 5 0 9 9 9 20 0 21 -15 27 -25 10z"/>
<path d="M15566 855 c-9 -26 -7 -32 5 -12 6 10 9 21 6 23 -2 3 -7 -2 -11 -11z"/>
<path d="M15425 840 c3 -5 10 -10 16 -10 5 0 9 5 9 10 0 6 -7 10 -16 10 -8 0
-12 -4 -9 -10z"/>
<path d="M15586 824 c-7 -25 17 -63 28 -45 4 5 1 11 -5 13 -9 3 -9 9 -1 25 9
16 9 22 -2 26 -9 4 -16 -3 -20 -19z"/>
<path d="M15783 803 c-7 -2 -12 -17 -12 -31 2 -25 2 -25 6 -4 3 15 10 22 19
18 8 -3 14 1 14 9 0 15 -6 17 -27 8z"/>
<path d="M16488 803 c7 -3 16 -2 19 1 4 3 -2 6 -13 5 -11 0 -14 -3 -6 -6z"/>
<path d="M15710 680 c0 -5 5 -10 10 -10 6 0 10 5 10 10 0 6 -4 10 -10 10 -5 0
-10 -4 -10 -10z"/>
<path d="M15895 621 c-7 -12 24 -43 36 -36 17 11 10 45 -10 45 -11 0 -22 -4
-26 -9z"/>
<path d="M15610 597 c0 -14 5 -29 10 -32 7 -4 10 3 8 19 -5 35 -18 45 -18 13z"/>
<path d="M15640 611 c0 -6 4 -11 10 -11 5 0 7 -7 4 -15 -4 -8 -1 -15 5 -15 16
0 13 25 -4 40 -10 9 -15 9 -15 1z"/>
<path d="M18838 613 c7 -3 16 -2 19 1 4 3 -2 6 -13 5 -11 0 -14 -3 -6 -6z"/>
<path d="M18810 584 c0 -8 5 -12 10 -9 6 4 8 11 5 16 -9 14 -15 11 -15 -7z"/>
<path d="M15691 577 c-13 -16 -5 -27 21 -27 20 0 21 1 12 24 -7 20 -18 20 -33
3z"/>
<path d="M15800 570 c0 -5 5 -10 10 -10 6 0 10 5 10 10 0 6 -4 10 -10 10 -5 0
-10 -4 -10 -10z"/>
<path d="M15840 565 c-1 -5 -3 -19 -4 -30 -1 -14 -7 -19 -21 -17 -11 2 -21 8
-23 13 -2 5 -8 9 -14 9 -12 0 1 -41 17 -55 7 -5 16 -23 19 -39 7 -27 5 -28
-19 -22 -16 4 -25 2 -25 -5 0 -7 3 -9 7 -6 3 4 12 2 20 -5 10 -8 17 -8 25 0 6
6 17 8 24 5 9 -3 14 2 14 12 0 9 -9 19 -20 22 -11 3 -20 14 -20 24 0 21 16 26
23 7 3 -7 6 -3 6 10 1 24 16 30 24 10 3 -7 6 3 6 22 1 25 -2 31 -9 20 -7 -12
-11 -10 -19 10 -5 14 -10 21 -11 15z"/>
<path d="M18805 540 c-3 -5 -1 -10 4 -10 6 0 11 5 11 10 0 6 -2 10 -4 10 -3 0
-8 -4 -11 -10z"/>
<path d="M16056 494 c-8 -21 -3 -26 18 -18 9 4 15 11 13 17 -6 18 -24 19 -31
1z"/>
<path d="M15681 448 c0 -13 3 -17 6 -10 2 6 13 12 24 12 10 0 19 5 19 10 0 6
-11 10 -25 10 -19 0 -25 -5 -24 -22z"/>
<path d="M15710 430 c0 -5 5 -10 10 -10 6 0 10 5 10 10 0 6 -4 10 -10 10 -5 0
-10 -4 -10 -10z"/>
<path d="M15874 406 c-11 -23 -10 -24 12 -14 13 6 20 16 17 24 -8 20 -17 17
-29 -10z"/>
<path d="M16010 420 c0 -5 5 -10 11 -10 5 0 7 5 4 10 -3 6 -8 10 -11 10 -2 0
-4 -4 -4 -10z"/>
<path d="M18860 420 c0 -5 4 -10 9 -10 5 0 17 -3 25 -6 12 -5 15 -2 10 10 -7
17 -44 22 -44 6z"/>
<path d="M15967 406 c-3 -8 0 -17 8 -20 14 -5 28 17 18 28 -10 10 -21 7 -26
-8z"/>
<path d="M15767 379 c6 -22 23 -26 23 -5 0 8 -6 16 -14 19 -10 4 -12 0 -9 -14z"/>
<path d="M15676 382 c-3 -6 -1 -14 5 -17 15 -10 25 3 12 16 -7 7 -13 7 -17 1z"/>
<path d="M15890 358 c0 -11 -5 -15 -14 -12 -15 6 -26 -25 -25 -71 2 -30 2 -30
9 5 l7 35 2 -32 c0 -18 6 -33 12 -33 5 0 7 5 4 11 -4 5 1 26 10 45 11 25 13
39 6 52 -10 16 -10 16 -11 0z m-3 -50 c-3 -8 -6 -5 -6 6 -1 11 2 17 5 13 3 -3
4 -12 1 -19z"/>
<path d="M18850 321 c0 -31 4 -50 10 -46 8 5 4 84 -6 94 -2 2 -4 -19 -4 -48z"/>
<path d="M10557 354 c-4 -4 -7 -18 -7 -31 0 -21 4 -24 28 -21 21 2 27 8 27 28
0 18 -6 26 -20 28 -12 2 -24 0 -28 -4z"/>
<path d="M9510 166 l0 -166 25 0 c24 0 24 1 27 105 l3 105 45 -102 c39 -88 49
-103 71 -106 23 -3 29 5 70 100 l44 102 3 -102 3 -102 30 0 29 0 -2 163 -3
162 -28 0 c-27 0 -32 -8 -85 -128 -31 -70 -59 -124 -63 -120 -4 5 -32 62 -61
128 -48 107 -57 120 -81 123 l-27 3 0 -165z"/>
<path d="M18885 320 c-3 -5 -1 -10 4 -10 6 0 11 5 11 10 0 6 -2 10 -4 10 -3 0
-8 -4 -11 -10z"/>
<path d="M15950 310 c0 -5 5 -10 10 -10 6 0 10 5 10 10 0 6 -4 10 -10 10 -5 0
-10 -4 -10 -10z"/>
<path d="M9968 244 c-60 -32 -78 -141 -35 -205 22 -32 26 -34 90 -37 36 -2 76
2 87 8 13 7 20 7 20 0 0 -5 11 -10 25 -10 l25 0 0 130 0 130 -25 0 c-16 0 -25
-6 -25 -15 0 -14 -3 -14 -30 0 -37 19 -97 19 -132 -1z m137 -55 c14 -14 20
-33 20 -65 0 -38 -5 -50 -28 -70 -38 -32 -72 -31 -108 5 -41 41 -40 91 1 133
26 25 36 29 63 24 18 -4 41 -16 52 -27z"/>
<path d="M10250 130 l0 -130 25 0 c25 0 25 1 25 89 0 85 1 91 26 110 33 26 55
26 85 2 21 -17 24 -29 27 -110 4 -88 5 -91 28 -91 23 0 24 2 24 84 0 96 -12
138 -45 160 -28 18 -97 21 -126 6 -13 -7 -19 -7 -19 0 0 5 -11 10 -25 10 l-25
0 0 -130z"/>
<path d="M10550 130 l0 -130 25 0 25 0 0 130 0 130 -25 0 -25 0 0 -130z"/>
<path d="M8845 215 c-54 -53 -16 -145 60 -145 49 0 85 36 85 85 0 49 -36 85
-85 85 -25 0 -44 -8 -60 -25z"/>
<path d="M16850 231 c0 -6 5 -13 10 -16 6 -3 10 1 10 9 0 9 -4 16 -10 16 -5 0
-10 -4 -10 -9z"/>
<path d="M18837 227 c-4 -11 -5 -22 -2 -27 6 -10 43 -1 51 12 4 6 -2 8 -14 4
-15 -5 -21 -2 -24 11 -3 17 -4 17 -11 0z"/>
<path d="M18750 220 c0 -17 39 -32 58 -21 16 10 16 10 0 11 -10 0 -18 5 -18
10 0 6 -9 10 -20 10 -11 0 -20 -4 -20 -10z"/>
<path d="M15964 182 c4 -43 17 -53 39 -30 16 17 16 18 -1 18 -11 0 -24 10 -30
23 -10 20 -11 19 -8 -11z"/>
<path d="M18720 184 c0 -14 3 -14 15 -4 8 7 15 14 15 16 0 2 -7 4 -15 4 -8 0
-15 -7 -15 -16z"/>
<path d="M14290 180 c0 -5 5 -10 10 -10 6 0 10 5 10 10 0 6 -4 10 -10 10 -5 0
-10 -4 -10 -10z"/>
<path d="M18905 181 c-3 -5 -1 -12 5 -16 5 -3 10 1 10 9 0 18 -6 21 -15 7z"/>
<path d="M18798 173 c-26 -7 -22 -32 5 -30 23 1 39 16 31 29 -5 8 -8 8 -36 1z"/>
<path d="M15940 119 c0 -5 5 -7 10 -4 6 3 10 8 10 11 0 2 -4 4 -10 4 -5 0 -10
-5 -10 -11z"/>
<path d="M18798 113 c7 -3 16 -2 19 1 4 3 -2 6 -13 5 -11 0 -14 -3 -6 -6z"/>
<path d="M14280 86 c0 -8 5 -18 10 -21 6 -3 10 3 10 14 0 12 -4 21 -10 21 -5
0 -10 -6 -10 -14z"/>
<path d="M15958 93 c12 -2 30 -2 40 0 9 3 -1 5 -23 4 -22 0 -30 -2 -17 -4z"/>
<path d="M18760 90 c-11 -7 -12 -12 -3 -21 13 -13 33 -4 33 17 0 16 -9 18 -30
4z"/>
<path d="M14230 48 c0 -19 2 -20 10 -8 8 12 10 10 10 -8 0 -13 -4 -20 -10 -17
-5 3 -10 1 -10 -4 0 -6 7 -11 15 -11 10 0 15 11 15 35 0 24 -5 35 -15 35 -9 0
-15 -9 -15 -22z"/>
<path d="M18718 64 c-5 -4 -8 -16 -8 -28 0 -14 3 -17 11 -9 6 6 9 19 7 28 -1
9 -6 13 -10 9z"/>
<path d="M15466 44 c-10 -26 -7 -44 8 -44 20 0 28 29 12 45 -12 12 -15 12 -20
-1z"/>
<path d="M18540 50 c0 -5 5 -10 10 -10 6 0 10 5 10 10 0 6 -4 10 -10 10 -5 0
-10 -4 -10 -10z"/>
<path d="M14287 25 c-4 -8 -2 -17 3 -20 6 -4 10 3 10 14 0 25 -6 27 -13 6z"/>
<path d="M14320 28 c0 -9 5 -20 10 -23 13 -8 13 5 0 25 -8 13 -10 13 -10 -2z"/>
<path d="M15894 15 c-19 -14 -19 -14 2 -15 12 0 21 6 21 15 0 18 1 18 -23 0z"/>
<path d="M16098 13 c7 -3 16 -2 19 1 4 3 -2 6 -13 5 -11 0 -14 -3 -6 -6z"/>
<path d="M18644 9 c-3 -5 6 -9 20 -9 31 0 34 6 6 13 -11 3 -23 1 -26 -4z"/>
</g>
</svg>
